<mxfile host="app.diagrams.net" modified="2021-11-30T15:11:44.157Z" agent="5.0 (Windows)" etag="Tt1dX8S-I-O2z-e3ageh" version="15.8.3" type="github">
  <diagram id="FNSFmsmh0JtaeNu6PuuN" name="Page-1">
    <mxGraphModel dx="867" dy="584" grid="1" gridSize="10" guides="1" tooltips="1" connect="1" arrows="1" fold="1" page="1" pageScale="1" pageWidth="850" pageHeight="1100" background="#001933" math="0" shadow="0">
      <root>
        <mxCell id="0" />
        <mxCell id="1" parent="0" />
        <mxCell id="0GgaDCThM9D1acnP9XUS-2" value="" style="swimlane;startSize=0;strokeColor=#FFFFFF;strokeWidth=2;fillColor=#003366;" vertex="1" parent="1">
          <mxGeometry x="30" y="290" width="160" height="249" as="geometry" />
        </mxCell>
        <mxCell id="0GgaDCThM9D1acnP9XUS-3" value="" style="shape=cylinder3;whiteSpace=wrap;html=1;boundedLbl=1;backgroundOutline=1;size=15;strokeColor=#FFFFFF;strokeWidth=2;fillColor=#003366;" vertex="1" parent="0GgaDCThM9D1acnP9XUS-2">
          <mxGeometry x="44" y="49.5" width="70" height="50" as="geometry" />
        </mxCell>
        <mxCell id="0GgaDCThM9D1acnP9XUS-9" value="&lt;div style=&quot;font-size: 16px&quot;&gt;&lt;font style=&quot;font-size: 16px&quot; color=&quot;#FFFFFF&quot;&gt;R1soft Servers&lt;/font&gt;&lt;/div&gt;" style="text;html=1;align=center;verticalAlign=middle;resizable=0;points=[];autosize=1;strokeColor=none;fillColor=none;fontSize=16;fontColor=#FFFFFF;" vertex="1" parent="0GgaDCThM9D1acnP9XUS-2">
          <mxGeometry x="20" y="219" width="120" height="20" as="geometry" />
        </mxCell>
        <mxCell id="0GgaDCThM9D1acnP9XUS-19" value="" style="shape=cylinder3;whiteSpace=wrap;html=1;boundedLbl=1;backgroundOutline=1;size=15;strokeColor=#FFFFFF;strokeWidth=2;fillColor=#003366;" vertex="1" parent="0GgaDCThM9D1acnP9XUS-2">
          <mxGeometry x="44" y="105" width="70" height="50" as="geometry" />
        </mxCell>
        <mxCell id="0GgaDCThM9D1acnP9XUS-20" value="" style="shape=cylinder3;whiteSpace=wrap;html=1;boundedLbl=1;backgroundOutline=1;size=15;strokeColor=#FFFFFF;strokeWidth=2;fillColor=#003366;" vertex="1" parent="0GgaDCThM9D1acnP9XUS-2">
          <mxGeometry x="44" y="161" width="70" height="50" as="geometry" />
        </mxCell>
        <mxCell id="0GgaDCThM9D1acnP9XUS-27" value="Data Center 2" style="text;html=1;align=center;verticalAlign=middle;resizable=0;points=[];autosize=1;strokeColor=none;fillColor=none;fontSize=16;fontColor=#FFFFFF;" vertex="1" parent="0GgaDCThM9D1acnP9XUS-2">
          <mxGeometry x="20" y="10" width="120" height="20" as="geometry" />
        </mxCell>
        <mxCell id="0GgaDCThM9D1acnP9XUS-22" value="" style="swimlane;startSize=0;strokeColor=#FFFFFF;strokeWidth=2;fillColor=#003366;" vertex="1" parent="1">
          <mxGeometry x="30" y="31" width="160" height="249" as="geometry" />
        </mxCell>
        <mxCell id="0GgaDCThM9D1acnP9XUS-23" value="" style="shape=cylinder3;whiteSpace=wrap;html=1;boundedLbl=1;backgroundOutline=1;size=15;strokeColor=#FFFFFF;strokeWidth=2;fillColor=#003366;" vertex="1" parent="0GgaDCThM9D1acnP9XUS-22">
          <mxGeometry x="44" y="48.5" width="70" height="50" as="geometry" />
        </mxCell>
        <mxCell id="0GgaDCThM9D1acnP9XUS-24" value="&lt;div style=&quot;font-size: 16px&quot;&gt;&lt;font style=&quot;font-size: 16px&quot; color=&quot;#FFFFFF&quot;&gt;R1soft Servers&lt;/font&gt;&lt;/div&gt;" style="text;html=1;align=center;verticalAlign=middle;resizable=0;points=[];autosize=1;strokeColor=none;fillColor=none;fontSize=16;fontColor=#FFFFFF;" vertex="1" parent="0GgaDCThM9D1acnP9XUS-22">
          <mxGeometry x="20" y="219" width="120" height="20" as="geometry" />
        </mxCell>
        <mxCell id="0GgaDCThM9D1acnP9XUS-25" value="" style="shape=cylinder3;whiteSpace=wrap;html=1;boundedLbl=1;backgroundOutline=1;size=15;strokeColor=#FFFFFF;strokeWidth=2;fillColor=#003366;" vertex="1" parent="0GgaDCThM9D1acnP9XUS-22">
          <mxGeometry x="44" y="105" width="70" height="50" as="geometry" />
        </mxCell>
        <mxCell id="0GgaDCThM9D1acnP9XUS-26" value="" style="shape=cylinder3;whiteSpace=wrap;html=1;boundedLbl=1;backgroundOutline=1;size=15;strokeColor=#FFFFFF;strokeWidth=2;fillColor=#003366;" vertex="1" parent="0GgaDCThM9D1acnP9XUS-22">
          <mxGeometry x="44" y="161" width="70" height="50" as="geometry" />
        </mxCell>
        <mxCell id="0GgaDCThM9D1acnP9XUS-21" value="Data Center 1" style="text;html=1;align=center;verticalAlign=middle;resizable=0;points=[];autosize=1;strokeColor=none;fillColor=none;fontSize=16;fontColor=#FFFFFF;" vertex="1" parent="0GgaDCThM9D1acnP9XUS-22">
          <mxGeometry x="20" y="9" width="120" height="20" as="geometry" />
        </mxCell>
        <mxCell id="0GgaDCThM9D1acnP9XUS-29" value="" style="swimlane;startSize=0;fontSize=16;fontColor=#FFFFFF;strokeColor=#FFFFFF;strokeWidth=2;fillColor=#003366;" vertex="1" parent="1">
          <mxGeometry x="250" y="30" width="160" height="510" as="geometry" />
        </mxCell>
        <mxCell id="0GgaDCThM9D1acnP9XUS-52" style="edgeStyle=orthogonalEdgeStyle;rounded=0;orthogonalLoop=1;jettySize=auto;html=1;exitX=0.5;exitY=1;exitDx=0;exitDy=0;entryX=0.5;entryY=0;entryDx=0;entryDy=0;fontSize=16;fontColor=#FFFFFF;strokeColor=#FFFFFF;strokeWidth=2;" edge="1" parent="0GgaDCThM9D1acnP9XUS-29" source="0GgaDCThM9D1acnP9XUS-30" target="0GgaDCThM9D1acnP9XUS-32">
          <mxGeometry relative="1" as="geometry" />
        </mxCell>
        <mxCell id="0GgaDCThM9D1acnP9XUS-30" value="Health Monitoring" style="ellipse;whiteSpace=wrap;html=1;fontSize=16;fontColor=#FFFFFF;strokeColor=#FFFFFF;strokeWidth=2;fillColor=#003366;" vertex="1" parent="0GgaDCThM9D1acnP9XUS-29">
          <mxGeometry x="20" y="92" width="120" height="80" as="geometry" />
        </mxCell>
        <mxCell id="0GgaDCThM9D1acnP9XUS-53" style="edgeStyle=orthogonalEdgeStyle;rounded=0;orthogonalLoop=1;jettySize=auto;html=1;exitX=0.5;exitY=1;exitDx=0;exitDy=0;entryX=0.5;entryY=0;entryDx=0;entryDy=0;fontSize=16;fontColor=#FFFFFF;strokeColor=#FFFFFF;strokeWidth=2;" edge="1" parent="0GgaDCThM9D1acnP9XUS-29" source="0GgaDCThM9D1acnP9XUS-32" target="0GgaDCThM9D1acnP9XUS-33">
          <mxGeometry relative="1" as="geometry" />
        </mxCell>
        <mxCell id="0GgaDCThM9D1acnP9XUS-32" value="&lt;div&gt;Backup&lt;/div&gt;&lt;div&gt;Failure&lt;br&gt;&lt;/div&gt;Features" style="ellipse;whiteSpace=wrap;html=1;fontSize=16;fontColor=#FFFFFF;strokeColor=#FFFFFF;strokeWidth=2;fillColor=#003366;" vertex="1" parent="0GgaDCThM9D1acnP9XUS-29">
          <mxGeometry x="20" y="212" width="120" height="80" as="geometry" />
        </mxCell>
        <mxCell id="0GgaDCThM9D1acnP9XUS-33" value="&lt;div&gt;Failure&lt;/div&gt;&lt;div&gt;Server List&lt;/div&gt;" style="ellipse;whiteSpace=wrap;html=1;fontSize=16;fontColor=#FFFFFF;strokeColor=#FFFFFF;strokeWidth=2;fillColor=#003366;" vertex="1" parent="0GgaDCThM9D1acnP9XUS-29">
          <mxGeometry x="20" y="335" width="120" height="80" as="geometry" />
        </mxCell>
        <mxCell id="0GgaDCThM9D1acnP9XUS-61" value="&lt;b&gt;&lt;font style=&quot;font-size: 20px&quot;&gt;Monitoring&lt;/font&gt;&lt;/b&gt;" style="text;html=1;align=center;verticalAlign=middle;resizable=0;points=[];autosize=1;strokeColor=none;fillColor=none;fontSize=16;fontColor=#FFFFFF;" vertex="1" parent="0GgaDCThM9D1acnP9XUS-29">
          <mxGeometry x="20" y="20" width="120" height="30" as="geometry" />
        </mxCell>
        <mxCell id="0GgaDCThM9D1acnP9XUS-43" value="" style="edgeStyle=orthogonalEdgeStyle;rounded=0;orthogonalLoop=1;jettySize=auto;html=1;fontSize=16;fontColor=#FFFFFF;strokeColor=#FFFFFF;strokeWidth=2;entryX=1;entryY=0;entryDx=0;entryDy=30;entryPerimeter=0;" edge="1" parent="1" source="0GgaDCThM9D1acnP9XUS-30" target="0GgaDCThM9D1acnP9XUS-23">
          <mxGeometry relative="1" as="geometry">
            <mxPoint x="190" y="160" as="targetPoint" />
          </mxGeometry>
        </mxCell>
        <mxCell id="0GgaDCThM9D1acnP9XUS-45" style="edgeStyle=orthogonalEdgeStyle;rounded=0;orthogonalLoop=1;jettySize=auto;html=1;exitX=0;exitY=0.5;exitDx=0;exitDy=0;entryX=1;entryY=0.5;entryDx=0;entryDy=0;entryPerimeter=0;fontSize=16;fontColor=#FFFFFF;strokeColor=#FFFFFF;strokeWidth=2;" edge="1" parent="1" source="0GgaDCThM9D1acnP9XUS-30" target="0GgaDCThM9D1acnP9XUS-25">
          <mxGeometry relative="1" as="geometry" />
        </mxCell>
        <mxCell id="0GgaDCThM9D1acnP9XUS-46" style="edgeStyle=orthogonalEdgeStyle;rounded=0;orthogonalLoop=1;jettySize=auto;html=1;exitX=0;exitY=0.5;exitDx=0;exitDy=0;entryX=1;entryY=0;entryDx=0;entryDy=30;entryPerimeter=0;fontSize=16;fontColor=#FFFFFF;strokeColor=#FFFFFF;strokeWidth=2;" edge="1" parent="1" source="0GgaDCThM9D1acnP9XUS-30" target="0GgaDCThM9D1acnP9XUS-26">
          <mxGeometry relative="1" as="geometry" />
        </mxCell>
        <mxCell id="0GgaDCThM9D1acnP9XUS-48" style="edgeStyle=orthogonalEdgeStyle;rounded=0;orthogonalLoop=1;jettySize=auto;html=1;exitX=0;exitY=0.5;exitDx=0;exitDy=0;entryX=1;entryY=0;entryDx=0;entryDy=30;entryPerimeter=0;fontSize=16;fontColor=#FFFFFF;strokeColor=#FFFFFF;strokeWidth=2;" edge="1" parent="1" source="0GgaDCThM9D1acnP9XUS-30" target="0GgaDCThM9D1acnP9XUS-3">
          <mxGeometry relative="1" as="geometry" />
        </mxCell>
        <mxCell id="0GgaDCThM9D1acnP9XUS-49" style="edgeStyle=orthogonalEdgeStyle;rounded=0;orthogonalLoop=1;jettySize=auto;html=1;exitX=0;exitY=0.5;exitDx=0;exitDy=0;entryX=1;entryY=0.5;entryDx=0;entryDy=0;entryPerimeter=0;fontSize=16;fontColor=#FFFFFF;strokeColor=#FFFFFF;strokeWidth=2;" edge="1" parent="1" source="0GgaDCThM9D1acnP9XUS-30" target="0GgaDCThM9D1acnP9XUS-19">
          <mxGeometry relative="1" as="geometry" />
        </mxCell>
        <mxCell id="0GgaDCThM9D1acnP9XUS-50" style="edgeStyle=orthogonalEdgeStyle;rounded=0;orthogonalLoop=1;jettySize=auto;html=1;exitX=0;exitY=0.5;exitDx=0;exitDy=0;entryX=1;entryY=0.5;entryDx=0;entryDy=0;entryPerimeter=0;fontSize=16;fontColor=#FFFFFF;strokeColor=#FFFFFF;strokeWidth=2;" edge="1" parent="1" source="0GgaDCThM9D1acnP9XUS-30" target="0GgaDCThM9D1acnP9XUS-20">
          <mxGeometry relative="1" as="geometry" />
        </mxCell>
        <mxCell id="0GgaDCThM9D1acnP9XUS-96" style="edgeStyle=orthogonalEdgeStyle;rounded=0;orthogonalLoop=1;jettySize=auto;html=1;exitX=1;exitY=0.5;exitDx=0;exitDy=0;entryX=0;entryY=0.5;entryDx=0;entryDy=0;fontSize=20;fontColor=#FFFFFF;strokeColor=#FFFFFF;strokeWidth=2;" edge="1" parent="1" source="0GgaDCThM9D1acnP9XUS-54">
          <mxGeometry relative="1" as="geometry">
            <mxPoint x="740.8" y="365" as="targetPoint" />
            <Array as="points">
              <mxPoint x="660" y="285" />
              <mxPoint x="660" y="365" />
            </Array>
          </mxGeometry>
        </mxCell>
        <mxCell id="0GgaDCThM9D1acnP9XUS-101" style="edgeStyle=orthogonalEdgeStyle;rounded=0;orthogonalLoop=1;jettySize=auto;html=1;exitX=1;exitY=0.5;exitDx=0;exitDy=0;fontSize=18;fontColor=#FF8000;strokeColor=#FFFFFF;strokeWidth=2;" edge="1" parent="1" source="0GgaDCThM9D1acnP9XUS-54" target="0GgaDCThM9D1acnP9XUS-98">
          <mxGeometry relative="1" as="geometry">
            <Array as="points">
              <mxPoint x="660" y="285" />
              <mxPoint x="660" y="195" />
            </Array>
          </mxGeometry>
        </mxCell>
        <mxCell id="0GgaDCThM9D1acnP9XUS-54" value="" style="swimlane;startSize=0;fontSize=16;fontColor=#FFFFFF;strokeColor=#FFFFFF;strokeWidth=2;fillColor=#003366;" vertex="1" parent="1">
          <mxGeometry x="470" y="30" width="160" height="510" as="geometry" />
        </mxCell>
        <mxCell id="0GgaDCThM9D1acnP9XUS-62" value="&lt;b&gt;&lt;font style=&quot;font-size: 20px&quot;&gt;Self-Healing&lt;/font&gt;&lt;/b&gt;" style="text;html=1;align=center;verticalAlign=middle;resizable=0;points=[];autosize=1;strokeColor=none;fillColor=none;fontSize=16;fontColor=#FFFFFF;" vertex="1" parent="0GgaDCThM9D1acnP9XUS-54">
          <mxGeometry x="15" y="19" width="130" height="30" as="geometry" />
        </mxCell>
        <mxCell id="0GgaDCThM9D1acnP9XUS-66" value="&lt;font style=&quot;font-size: 16px&quot;&gt;R1soft client crash&lt;/font&gt;" style="rounded=0;whiteSpace=wrap;html=1;fontSize=20;fontColor=#FFFFFF;strokeColor=#FFFFFF;strokeWidth=2;fillColor=#003366;" vertex="1" parent="0GgaDCThM9D1acnP9XUS-54">
          <mxGeometry x="10" y="70" width="140" height="30" as="geometry" />
        </mxCell>
        <mxCell id="0GgaDCThM9D1acnP9XUS-76" value="&lt;div style=&quot;font-size: 16px&quot;&gt;kernel update&lt;/div&gt;" style="rounded=0;whiteSpace=wrap;html=1;fontSize=20;fontColor=#FFFFFF;strokeColor=#FFFFFF;strokeWidth=2;fillColor=#003366;" vertex="1" parent="0GgaDCThM9D1acnP9XUS-54">
          <mxGeometry x="10" y="130" width="140" height="30" as="geometry" />
        </mxCell>
        <mxCell id="0GgaDCThM9D1acnP9XUS-77" value="&lt;font style=&quot;font-size: 16px&quot;&gt;OS reboot&lt;/font&gt;" style="rounded=0;whiteSpace=wrap;html=1;fontSize=20;fontColor=#FFFFFF;strokeColor=#FFFFFF;strokeWidth=2;fillColor=#003366;" vertex="1" parent="0GgaDCThM9D1acnP9XUS-54">
          <mxGeometry x="10" y="190" width="140" height="30" as="geometry" />
        </mxCell>
        <mxCell id="0GgaDCThM9D1acnP9XUS-78" value="&lt;font style=&quot;font-size: 16px&quot;&gt;redhat upgrade&lt;/font&gt;" style="rounded=0;whiteSpace=wrap;html=1;fontSize=20;fontColor=#FFFFFF;strokeColor=#FFFFFF;strokeWidth=2;fillColor=#003366;" vertex="1" parent="0GgaDCThM9D1acnP9XUS-54">
          <mxGeometry x="10" y="250" width="140" height="30" as="geometry" />
        </mxCell>
        <mxCell id="0GgaDCThM9D1acnP9XUS-85" value="&lt;div style=&quot;font-size: 16px&quot;&gt;&lt;font style=&quot;font-size: 16px&quot;&gt;disk change&lt;/font&gt;&lt;/div&gt;" style="rounded=0;whiteSpace=wrap;html=1;fontSize=20;fontColor=#FFFFFF;strokeColor=#FFFFFF;strokeWidth=2;fillColor=#003366;" vertex="1" parent="0GgaDCThM9D1acnP9XUS-54">
          <mxGeometry x="10" y="310" width="140" height="30" as="geometry" />
        </mxCell>
        <mxCell id="0GgaDCThM9D1acnP9XUS-86" value="&lt;font style=&quot;font-size: 16px&quot;&gt;NFS issue&lt;/font&gt;" style="rounded=0;whiteSpace=wrap;html=1;fontSize=20;fontColor=#FFFFFF;strokeColor=#FFFFFF;strokeWidth=2;fillColor=#003366;" vertex="1" parent="0GgaDCThM9D1acnP9XUS-54">
          <mxGeometry x="10" y="370" width="140" height="30" as="geometry" />
        </mxCell>
        <mxCell id="0GgaDCThM9D1acnP9XUS-87" value="&lt;font style=&quot;font-size: 16px&quot;&gt;other failures&lt;/font&gt;" style="rounded=0;whiteSpace=wrap;html=1;fontSize=20;fontColor=#FFFFFF;strokeColor=#FFFFFF;strokeWidth=2;fillColor=#003366;" vertex="1" parent="0GgaDCThM9D1acnP9XUS-54">
          <mxGeometry x="10" y="430" width="140" height="30" as="geometry" />
        </mxCell>
        <mxCell id="0GgaDCThM9D1acnP9XUS-64" style="edgeStyle=orthogonalEdgeStyle;rounded=0;orthogonalLoop=1;jettySize=auto;html=1;exitX=1;exitY=0.5;exitDx=0;exitDy=0;entryX=0;entryY=0.5;entryDx=0;entryDy=0;fontSize=20;fontColor=#FFFFFF;strokeColor=#FFFFFF;strokeWidth=2;" edge="1" parent="1" source="0GgaDCThM9D1acnP9XUS-33" target="0GgaDCThM9D1acnP9XUS-54">
          <mxGeometry relative="1" as="geometry" />
        </mxCell>
        <mxCell id="0GgaDCThM9D1acnP9XUS-94" value="&lt;b&gt;Pass / Fail&lt;/b&gt;" style="text;html=1;align=center;verticalAlign=middle;resizable=0;points=[];autosize=1;strokeColor=none;fillColor=none;fontSize=16;fontColor=#FFFFFF;" vertex="1" parent="1">
          <mxGeometry x="650.8" y="170" width="90" height="20" as="geometry" />
        </mxCell>
        <mxCell id="0GgaDCThM9D1acnP9XUS-97" value="&lt;font style=&quot;font-size: 18px&quot; color=&quot;#FF8000&quot;&gt;&lt;b&gt;&lt;font style=&quot;font-size: 18px&quot;&gt;Fail&lt;/font&gt;&lt;/b&gt;&lt;/font&gt;" style="text;html=1;align=center;verticalAlign=middle;resizable=0;points=[];autosize=1;strokeColor=none;fillColor=none;fontSize=20;fontColor=#FFFFFF;" vertex="1" parent="1">
          <mxGeometry x="668" y="335" width="50" height="30" as="geometry" />
        </mxCell>
        <mxCell id="0GgaDCThM9D1acnP9XUS-98" value="" style="shape=image;imageAspect=0;aspect=fixed;verticalLabelPosition=bottom;verticalAlign=top;fontSize=18;fontColor=#FF8000;strokeColor=#FFFFFF;strokeWidth=2;fillColor=#003366;image=data:image/png,iVBORw0KGgoAAAANSUhEUgAAAPwAAADsCAYAAABQfcv8AAAMYWlDQ1BJQ0MgUHJvZmlsZQAASImVlwdYk1cXgO83MiGssGWEvUTZBJARwgogIFMQlZAEEkaICUHFTSkqWAcqouBCqyKKVisgdSKualHc1lEUUanUohUXKv8NCWjtP57/PM/97ptzzz33nJP7jQuAZhdXIslDtQDIFxdK48ODGZNT0xikHkAAJsAAmAMilyeTsOLiogGUkf7v8voGQBT9VWeFr3+O/1fR4QtkPACQdMiZfBkvH/IJAPASnkRaCAAxBOqtZhZKFCyErCuFAUKeq+BsJa9UcKaStw/bJMazIbcAQFbncqXZAGi0Qz2jiJcN/Wg8guwi5ovEAGjqQg7gCbl8yImQx+bnFyh4IWR7aC+BvAsyM/MLn9l/85856p/LzR5lZV7DQg4RySR53Nn/Z2n+t+TnyUfWsIVNXSiNiFfkD2t4K7cgSsHqkPvEmTGxilpDfiviK+sOAEoVyiOSlPaoCU/GhvUD+pBd+NyQKMgmkMPEeTHRKn1mliiMAxnuFnSWqJCTqJq7RCALTVD5rJUWxMeOcJaUzVLNbeRKh9dV2LfLc5NYKv+3hALOiP9XxcLEFMhUADBqkSg5BrIGZF1ZbkKU0gazLBayY0ZspPJ4RfzWkJkCcXiw0j+WniUNi1fZS/JlI/liZUIRJ0bF1YXCxAhlfbDdPO5w/IaQmwRiVtKIH4FscvRILnxBSKgyd6xDIE5S5YvdlxQGx6vm9kvy4lT2OFmQF67QW0I2lhUlqObiEwrh5lT6x6MlhXGJyjjxjBxuZJwyHrwIRAM2CAEMIIctExSAHCDq6Gvug7+UI2GAC6QgGwiAs0ozMiNleEQMrwmgGPwBSQBko/OCh0cFoAjqP45qlVdnkDU8WjQ8Ixc8hpwPokAe/C0fniUeXS0ZPIIa0T9W58FY82BTjP1Tx4KaaJVGPuKXoTliSQwlhhAjiGFEB9wYD8D98Gh4DYLNDWfiPiPRfrYnPCZ0Eh4SrhO6CLeni0qkX8UyEXRB/2GqjDO/zBi3hT498WDcH3qHnnF93Bg44x5wHRYeCFf2hFq2Km5F7ox/k+doBl/UXGVHcaGgFANKEMX+65kajhqeo14UFf2yPspYM0eryh4d+Xp99hd15sM+6mtLbAl2EDuLncTOY0ewZsDAjmMt2EXsqIJH99Cj4T00slr8cDy50I/oH+txVWsqKilzaXDpdfmgGgOFglmFihuMXSCZLRVlCwsZLPgWEDA4Yt64sQw3FzdXABTvFOVjqv/S8LsCMdL+rFt4C4AJyUNDQ4c/62LMADhUCm/z7s86u9/g4wA+586t5MmlRUodrrgQ4NNAE95RRsAMWAF7mJEb8AJ+IAiEgkgQCxJBKpgG6yyE+1kKZoK5YBEoAxVgJVgLNoDNYBvYBfaCA6AZHAEnwRlwAVwG18EduH96wDPQD16DQQRBSAgNoSNGiDligzghbggTCUBCkWgkHklFMpBsRIzIkbnIN0gFUolsQLYi9cgPyGHkJHIe6URuIw+QXuQl8h7FUHVUFzVFbdHxKBNloVFoIjoVzUZnoMVoKbocrUbr0D1oE3oSvYBeR7vQZ+gABjA1TB+zwJwxJsbGYrE0LAuTYvOxcqwKq8MasVb4T1/FurA+7B1OxOk4A3eGezgCT8J5+Ax8Pr4M34Dvwpvwdvwq/gDvxz8RaAQTghPBl8AhTCZkE2YSyghVhB2EQ4TT8G7qIbwmEon6RDuiN7wbU4k5xDnEZcSNxH3EE8ROYjdxgEQiGZGcSP6kWBKXVEgqI60n7SEdJ10h9ZDektXI5mQ3chg5jSwml5CryLvJx8hXyE/IgxQtig3FlxJL4VNmU1ZQtlNaKZcoPZRBqjbVjupPTaTmUBdRq6mN1NPUu9S/1NTULNV81CapidQWqlWr7Vc7p/ZA7Z26jrqjOls9XV2uvlx9p/oJ9dvqf9FoNFtaEC2NVkhbTqunnaLdp73VoGuM0+Bo8DUWaNRoNGlc0XiuSdG00WRpTtMs1qzSPKh5SbNPi6Jlq8XW4mrN16rROqx1U2tAm67tqh2rna+9THu39nntpzokHVudUB2+TqnONp1TOt10jG5FZ9N59G/o2+mn6T26RF07XY5ujm6F7l7dDt1+PR09D71kvVl6NXpH9br0MX1bfY5+nv4K/QP6N/TfG5gasAwEBksNGg2uGLwxHGMYZCgwLDfcZ3jd8L0RwyjUKNdolVGz0T1j3NjReJLxTONNxqeN+8bojvEbwxtTPubAmF9NUBNHk3iTOSbbTC6aDJiamYabSkzXm54y7TPTNwsyyzFbY3bMrNecbh5gLjJfY37c/HeGHoPFyGNUM9oZ/RYmFhEWcoutFh0Wg5Z2lkmWJZb7LO9ZUa2YVllWa6zarPqtza0nWs+1brD+1YZiw7QR2qyzOWvzxtbONsV2sW2z7VM7QzuOXbFdg91de5p9oP0M+zr7aw5EB6ZDrsNGh8uOqKOno9CxxvGSE+rk5SRy2ujUOZYw1meseGzd2JvO6s4s5yLnBucH4/THRY8rGdc87vl46/Fp41eNPzv+k4unS57Ldpc7rjquka4lrq2uL90c3XhuNW7X3GnuYe4L3FvcX3g4eQg8Nnnc8qR7TvRc7Nnm+dHL20vq1ejV623tneFd632TqcuMYy5jnvMh+AT7LPA54vPO18u30PeA759+zn65frv9nk6wmyCYsH1Ct7+lP9d/q39XACMgI2BLQFegRSA3sC7wYZBVED9oR9ATlgMrh7WH9TzYJVgafCj4DduXPY99IgQLCQ8pD+kI1QlNCt0Qej/MMiw7rCGsP9wzfE74iQhCRFTEqoibHFMOj1PP6Y/0jpwX2R6lHpUQtSHqYbRjtDS6dSI6MXLi6ol3Y2xixDHNsSCWE7s69l6cXdyMuJ8mESfFTaqZ9DjeNX5u/NkEesL0hN0JrxODE1ck3kmyT5IntSVrJqcn1ye/SQlJqUzpmjx+8rzJF1KNU0WpLWmktOS0HWkDU0KnrJ3Sk+6ZXpZ+Y6rd1FlTz08znpY37eh0zenc6QczCBkpGbszPnBjuXXcgUxOZm1mP4/NW8d7xg/ir+H3CvwFlYInWf5ZlVlPs/2zV2f3CgOFVcI+EVu0QfQiJyJnc86b3NjcnblDeSl5+/LJ+Rn5h8U64lxxe4FZwayCTomTpEzSNcN3xtoZ/dIo6Q4ZIpsqaynUhR/vF+X28m/lD4oCimqK3s5MnnlwlvYs8ayLsx1nL539pDis+Ps5+BzenLa5FnMXzX0wjzVv63xkfub8tgVWC0oX9CwMX7hrEXVR7qJfSlxKKktefZPyTWupaenC0u5vw79tKNMok5bdXOy3ePMSfIloScdS96Xrl34q55f/XOFSUVXxYRlv2c/fuX5X/d3Q8qzlHSu8VmxaSVwpXnljVeCqXZXalcWV3asnrm5aw1hTvubV2ulrz1d5VG1eR10nX9dVHV3dst56/cr1HzYIN1yvCa7ZV2tSu7T2zUb+xiubgjY1bjbdXLH5/RbRlltbw7c21dnWVW0jbiva9nh78vaz3zO/r99hvKNix8ed4p1du+J3tdd719fvNtm9ogFtkDf07knfc3lvyN6WRufGrfv091XsB/vl+3//IeOHGweiDrQdZB5s/NHmx9pD9EPlTUjT7Kb+ZmFzV0tqS+fhyMNtrX6th34a99POIxZHao7qHV1xjHqs9NjQ8eLjAyckJ/pOZp/sbpvedufU5FPX2ie1d5yOOn3uTNiZU2dZZ4+f8z935Lzv+cM/M39uvuB1oemi58VDv3j+cqjDq6Ppkvellss+l1s7J3QeuxJ45eTVkKtnrnGuXbgec73zRtKNWzfTb3bd4t96ejvv9otfi34dvLPwLuFu+T2te1X3Te7X/ebw274ur66jD0IeXHyY8PBON6/72SPZow89pY9pj6uemD+pf+r29EhvWO/l36f83vNM8mywr+wP7T9qn9s///HPoD8v9k/u73khfTH0ctlfRn/tfOXxqm0gbuD+6/zXg2/K3xq93fWO+e7s+5T3TwZnfiB9qP7o8LH1U9Snu0P5Q0MSrpQ7/CmAwYZmZQHwcicAtFQA6Jfh98MU5ZlvWBDlOXWYwH9i5blwWLwAaISd4nOdfQKA/bDZLoS+gwCIhS0xCKDu7qNNJbIsdzelL40GAEgWQ0MvCwCgwPYhfGhoMG5o6GMtDPYaAMeeKs+aCiHCs8EWFwVdMT8IvhblOfSLHL/ugSICD/B1/y89GogtOHGrZwAAAIplWElmTU0AKgAAAAgABAEaAAUAAAABAAAAPgEbAAUAAAABAAAARgEoAAMAAAABAAIAAIdpAAQAAAABAAAATgAAAAAAAACQAAAAAQAAAJAAAAABAAOShgAHAAAAEgAAAHigAgAEAAAAAQAAAPygAwAEAAAAAQAAAOwAAAAAQVNDSUkAAABTY3JlZW5zaG90tTgcQwAAAAlwSFlzAAAWJQAAFiUBSVIk8AAAAdZpVFh0WE1MOmNvbS5hZG9iZS54bXAAAAAAADx4OnhtcG1ldGEgeG1sbnM6eD0iYWRvYmU6bnM6bWV0YS8iIHg6eG1wdGs9IlhNUCBDb3JlIDUuNC4wIj4KICAgPHJkZjpSREYgeG1sbnM6cmRmPSJodHRwOi8vd3d3LnczLm9yZy8xOTk5LzAyLzIyLXJkZi1zeW50YXgtbnMjIj4KICAgICAgPHJkZjpEZXNjcmlwdGlvbiByZGY6YWJvdXQ9IiIKICAgICAgICAgICAgeG1sbnM6ZXhpZj0iaHR0cDovL25zLmFkb2JlLmNvbS9leGlmLzEuMC8iPgogICAgICAgICA8ZXhpZjpQaXhlbFhEaW1lbnNpb24+MjUyPC9leGlmOlBpeGVsWERpbWVuc2lvbj4KICAgICAgICAgPGV4aWY6VXNlckNvbW1lbnQ+U2NyZWVuc2hvdDwvZXhpZjpVc2VyQ29tbWVudD4KICAgICAgICAgPGV4aWY6UGl4ZWxZRGltZW5zaW9uPjIzNjwvZXhpZjpQaXhlbFlEaW1lbnNpb24+CiAgICAgIDwvcmRmOkRlc2NyaXB0aW9uPgogICA8L3JkZjpSREY+CjwveDp4bXBtZXRhPgoJrwRqAAAAHGlET1QAAAACAAAAAAAAAHYAAAAoAAAAdgAAAHYAAEvGbCyQFQAAQABJREFUeAHsnQuYnVV579fcMjOBgCCnhcTqqSJgH4HctVUroKcP3oAeq4C3CthCsMcbSp+j5RLUnkdQvJw2wSpwSgFFbUsQ8XLkYqu9JCGI+rRg1R6tCWq9kUDmPnP+v/+71t57JjNJZu89ycye+ZLZ3/etb633tt7/un/ra1uxYsVYSvqf2vRP5zZdjvkqLnWb2sZS+9hYGmlrd5w2XY+lDiLq2ahO7am9fTiNjXakNsUdI317PILSaFumDS0dY0rTrghwjYi+Mj/TTO1pVDxEIuKYf0oj7QiXLMsYDDJ/ZGlvG9YtMo2Kv57xWKK1cS+5MyWddWT+eqyj+iyoI4tkE3+JrbNudbb+7TX6m5ceihaSmr/0x1boX+Vf9IcXB2lEu6K/4upeP/rHmUNS6zKr4Oftukd/4rTr4ah05hpbhv1Hsv1Df0SAbK39C3XrL1lHiVDsaK78RBg5LBL+5bpDhhiR/oRgi1HpT15bf9FA/7GxTqXJ/BW1TXISR7kdsmYetfkPF/hUjwix/nrAGZmq+nOLjYv/Se+S//tp/+DfoXRZf/QINuaF5av+JwvqeUV/8bb+e9h/gv/vYX8sx6Ff9BkVD/hm+1dsoLC2Gv6jWIf42H8K/OHv4C9l/SUw/4MVWuLI+WhbsWJ5fob747ABA+RyNikugiJbXHFDtkY22gUlTKAjR9R9m2hJRIWHk5AetnbaEaVSDuIKhPLMymfHyAFxp+QGn2KWA+p2IyOS63AS5LOYvpcuY3KGzB8peAj/9lFJYoUAa/AnUw0xny3QBP5IX6U+kb/1cIyIQ6aN548hAY34ib8LRtODv6hl/mhjQ8k0ysY0ip0UFFaUtLpGp+APwyicwv6RFnu1T2J/SI92iB/2FyEcn8IJ2lhinP4OD8cJ+xc7w1/XY8r/GvuH0CJhAbkLGUs41uNRVX84whP9a/IfuQjP+oOH/cn/4AM9DnJV/qf8L/5HgcFR8T/42Ncn8Id3CCQNQn8kLUUWj6w//l/0J4N8LQaOoJP1r/InmL+RCfYnJuG1+W9flI9QpOOq2MP84cMhXrX4o3Bqy/ydVtHwnfH4C/9rW7l8hQoIHIksgTgghLwOO0TcwViaOqxdZ+6pcJXvjut7oujZWLuM4QBRs4zhUrgM1OBCKitCfMg6HiwUqlzGIV07iH5RfCJ/O634OJ4pI5D+o0/mHzbKAMn84VvLH+aiIr7BHxBBk3D0wxoqkMkV3YRuXNrG6K9rnUIzlFGc4C96sLKuSselrwlEJkpu9K+xv20Of6LK1Wr0d8ulbcRpaDW1W75a/eEnetK/FGrIhT5IqCc6i2/mh5NFPokV6Sr/0DjbX0mK/d1ykUyksSkkI/ohqu9hlfUZn//EwMbBv1gLfvY75OEpjyfRvxR8zoRx9id/0L9QzPxr/C/sH/mPFCFtyBH2Vxo9qPh/hT+KQX8S/ZWgor+eQ3ec/oV/lssMbP/MX3TJEwqc0D/4IxWaGN7E0RXy2/9gYkFlf/jrlgZXwZ/K8PAvPavgbxL+bStXnCybRQZDHcOX0jlKC1ElQyI3/NSCkHkWgFNkHCkpedpcA0FLYmXwcMef6qycsZJY94TiinZwSU9T16EYHh7ZQWnSRHyclzTBk2vE4CcMo1I1VFd08RdS25QB8EYW+FMIUfHjnOYv5pDAeqaicNd+SmVa4/SfyB/Wilfh76yAWA1/NBFNxVFDOvgjTkisEMloGkWncAZiEKfW/i4gCHf8kEVkiWLZR9WqGhkZTcMj2AH9pZsKgOAf+tuUTjqF/uLZrpqovROLqqYUcewf1gA88Q+dFSH+4K/7UZxY6c0RoWr5Q1c2Hs9f9iAzoK4HcCxgKBxr9Yc2cav5rzvbwjln/giErJP6H/z1DDb8OP995j7sH6Hijv+gv8OVSmmiK0pIcCCVjS/d+Vfxf+nSRvrs/1gFAugPVfu7U4T/Qwb+5C/xzMHpo5sY+DMFxzP/bP9x+os6tT02hr+b+7JP4d+2YuXJtM5ShyIRyK95mj8ZhMxyHvWZbAAeRmAISHwLiDMF2IoxiEZNBPdQwbrYMdyvgLGEAQhuLTi7R/ARxYe8+uZC52iHJHOf06aqGBJROpyBUEf2DPZgaWrWCe0xIXT5E4PCn9oQhvA38ESDeD7gr7SjKjAKf7i4IFFGjuePqxb+WScR2ZO/GZl/G7LrFvFoHroAUiZNrj99PulPAsnsMQDZDvmGBfChoRHpRj4JEMWmksgWs/6R1OKLn+2lcPSnlgz7izb5qRNX2N/9Zenf1dGd2joV6oe1/CNPDNXMf7wDQgdu2D8ISzzzD8Xhn/U311r/C/tTY9E/dT6Yv+6z/QEQ0lqf0NbC26f0ZJz9iYliooEs4+xPMB4jHcbbXzTk/22yRdX+oqp7Sa4UU/i/eFA0wT+0JbYOTJD5R/Ws8BwXaupv1cST/a0q+VqLv6y/yFGBkJ5u3jj8KaxwruWvPvxK5Y+YGtQ4sRK6CkS6qpBR8nCPaXmiuAaCy2QbgyeU7Qin3oqdCcfMCTI9UnMpCji5HtoB4K/aODIiso8HGAkHomTFfNyDUfjjAIRDUdmkX5TkIWECjiK6RiSXFcwzKEMjc/a9S0/RGsv8S2si+CuNkgd/0kNzMv5QDboGivmHfKQ3U8fIl9Yfa6G/qGb9qe3gT5Kq/vAPInDhufCtvwFFyfpjRGiJ75rVz07POOH4dJz+li1dlpYtiz9ITnVs3749+W/HjvTwQw+lh/S3ZcsWRS/6V/kv6uxUC2CR8hwg4Giyfw1/Dx5JDnetkNtJq+lDBnIw9A/gh1MDkLC/YimJLa5zh+j4WsGkYtBu6vynEyKPcP7jU0rk7AkbxaX41/pfpbCK/MCSFfvD03qEBOQ/lcNE/w/76yH+z/hRh/KRviD8fSA3dHVD/usi57TC0J9Cvegf/EkG11r/c/IJ/EcoGUSv2KZN/EfFn8FB689T/Gq5RukdSYzs+FGkmAnMIB5uxB0yqZGnAsFG415/7kvDTJSjKcw1+IUhFOQQAlQHnJxAziDHpnYeyQ4DXTu+TJnFdjo4uEREEv2nQCDdqHjpUvREMDsbRin84Vr6qFzD30aDP+CWady8UprorytjTIvSk4yIw1e+FxX4mX+N/tbHP+P0t81kS/Qfzx8b0YqQ/rKjeuSRSTX649LilCVAPaSA/1jqHxpK7arR4ynhYwL00nTaC16YXnDqaWnN2rWVdM242Lx5c7r3nnvSl+++O+1QYUB2MmKNPO3SoXNRl65Cf8sp2+K46Gz780jyV/IfodBfOnrkW2enj8y0jsQvFoYOdF1TSv9if+55Nv38F+2p7I9fK89K6wlR8YnwR9/Jpyf3f0kpcIs2+nMtvUN/pKRAZF5lgv+P0gELW2VnVtKwX1V/+If+tqn5k/9Bl3i2luxncNu3dZ35Yztimj/5slxNeoLwdSLxE6VQSSSdCQ6T+5kS2BB2SzLKTIOGNSWC/0sYXTOgQCwO7OE+GyUafEW3PK2WohEbo1EQWDaZxkbBqH4cKocsyBfxaA3AMxgW/rgXR84IzjIszuNmFWn1dCJ/0lDijuMv2sQNnfVrGtCfjL84Kj61X/DX/R76o0fhL7KKG5plWZUQ/iOD/SrkMEjEXbJkSfrds85KZ571u+mEE06wRDP9Q61/++23+2/Xrp2SOqxAn7F7UbcFrdTqWRh0A97OMoVh4wCvDIH5sabCOIr98Qgehv1NVoVL9hOi+7mT78P+tfkfPCa3PzTD38fbn+6chZQs2V+R1aSgjejckDriFf+LaFX+fq6Y+L+n1yb6v2gZ+iJaCjPow7/4HzSi+Q7L8KkKfzG0XUKoGhllb0T2Q51XqoYnKq14WxhJdUStLaJ+SrbYpStESykYJQkERaVkim0QHExWJYtEl/BkKu0JSlEiSYUsSZTUClMClKCAIYs9QozGCiu62MDQET/kc4ECPaxpOZBncv7BNzJC5BEBM9qoFC5mCi9dWHauzF/662yx9QQJbRVFGpFeMSpfyx/ixEDn6OK4dWdbwJ/n4sevbmx/bov8Oe3o8EgaGh7Sg7D/MWqeX7xuXTpLQD+Yx+1/e3vacN2G9MgPo9bHrh1d+uvssliRV+P1x3bFb6y/AowXdA1jq/wlEv9zWl2N0k9Xa6LQdP4zmKb8x+5hVxLV2j/SI0zxOUwPfzK5+B/Px9ufLJjM/5SO/M/xoVNaMAGoGv+HqGPGr1uW4mn/10+0IiSv8x9fIp4oi6/toBBXSAov+CP/cyzLSysqurrSBtXtN9JfaS3jFPzVpNc8vK1O5EhIovB8WMjQsnRFKDHiPhplhVHOHJhCA0L5l0wgtdNbJ+JGLDKQGjTiK1QXYLbKH3pV/qY0gT9xg56uIFA5Ms/Mv2ou6RSeo/jj+SMIYeZfGQyawD8Dr+i/f/xzsz3UnqA/FJA7WhxFf+aQBwYHQ3/90my/aN3FBx3oFfPmCwN/44a0fcf2iv27uzXAZ50wqCxVwCo90HS8/bP+MjzmcStTsTySrMiVKVo9C3cOytOzPwBWejHAd4OT6Oh+cv8jdmmBjs9/d1eUEF8kFtIXigFOQiI8Tvvwf8U2/LJUoT+VSfA30MXPdlNo4V/0D6BLAj2SpMQItlmKUgmjK8/aVjJKD1D4L4u6tKwkCUKZmyNEbSWFQ4J4FMmDk3+zOSQFQlASBreAnYXUZWXMIDMlmuOaqjJJAjmTfA8J+kEq2UU3SjUZglJR/3ADKwR/QK6CgRTwxziIa+NxLX1d2mIllHZc5KG5FbR0J9rQIV2kxngdqq2r/CuPHGNq/oUCMlG7qHbQpQen4GFl4B+2GlI/fVSKo9Ghhy5Jr33ta9PFF78RQWbtsWHDhvRXf/VXadeuXZJRLa+OrtSpwb0YPqvanzx0LV+b/y6oMwDD450nVfujNk5Giy7s7yTOP/Im8mwP++s5A3NT5T/+Zx778D/zNnHxl0Y4RfgfculWIoS3OaZCaJ0qRPGsPz6l9BR8+nU+kyY8NvtfqCe/KFpUWxnj+Lu1mPlHCWj+WKF6TMCfePqg4F3OKL0DUF7BaAJThcr9LLjFlMSRLATiGQliuorRWiSmgCC2DjevEVXhUtxxoQA3ZVwxUSnBTdyGgU5JgnswuEMyrnkUclAGBn+aVvEknvmJHhGmw3pUiwQXNnoWRUHIi96AmPnqyEnSQT74hzlq+UdmuOmn6aIR1WLoKTJKFtas8peR1VpwLYcGtlOVv5eowswMUxroG6zYf/XqVek97/1Tj7Irwqw/GOV/57velbZuvV/GC/v3LOqV3Fy76Lf+ruGztQIS0h8fwXUKksi3iv2VT+SRLVBH/os2eeWcqbE/FMP/RNg+GmBENN9m/rX+F1JMkv+mG/Qs5nT8P+uVTYKTmw3yxqyNbiVL0Z8Ixh9nFQAxW6JExCn4y/YnZlbGRL20ljCo+SFNMMolN2kJViiJCyEi6564ZGMBkHjZqAyC0YCFmkU0P2ggrlVw1mPQcAro6Zp7Z3IpZBygYHuB+HAmTOcKfzJIAJdxLWKUWBE3UGza0YKxJpKZVoJkF6kApdJbeN3Do+hv7dAg88u1ADJSmKG3m1V78C9OY8Un4Y915dfmD32U171GbIcGtR5aiiDvpZdeml73ut/3s7n2c9NNN6Wr33d1iC31uroWaVUY+UcOUuvqbGDbg7KNdKrJ//Au4qugIHNtfxmNPMr2p9is5D+grvUVzKromLea/yKjwNr8j/yFLvHD17OHKOkEmiYpghP8L5yP5FZMUqBr1f/tM5P6P3yhB/vQxesACv4IzzKF/xOP+OF/UTaKj+8h5QRYbBz/oBHG0NLa5dI5zBAlAULYJJVEJI++jsCsx8BduUCo47hppLAoRRUmId000SVNbp4zsEVaA5bMIb2MINbOwPIyRICPWjEEJA5H3Cm+LlDUdNzPIS4SAdyIieMU/shJ07nwdwbDX15HluBLrMQrNW2Ff4WjTWydccLgDyP+ED70MzXbhPiKidyB6hr+5mhlkNUmUBz6a/2DtJLUhD/s0HTjDX95wEbesdhMHP+qEf3zXv/69Nhjj1mvjp4uLe6iqJPiMhu45fCaDxnVICNfsJseYiniYp2KpbO/7DP/lSLsDwnyX9Nfym/yrpL/CqcSIv/t/7mpXOEvWSyr5VE6523kf1yHVEgX6wYkKzStnH7tKLBXmGgV/7PfWk8cYIL/E+50NfhDRuSu5S8u5R4ZoQ/nKv8YUATPE/mrhtda+mxUVIC40tpgAIcDs1Nv85AQovBDnmFANyl4Qi6qhhTneEaQ4sQoKWlVsJikxYuSN0jZ+ETmCRkRtaciZ4OV5Zck34O/V0LBDNDDP0b34TUZfyRRTEkjXooQMilUF9Dnh5ZA1Pjc1uhPfOLop6L/Hvw1Wk0UyY5tq/qLTjawnyCvavaBITXjFe+E45+RbrjhhrTksMPgMOePnTt3pfPPPy99+6FvYy5N3XXKaPgIdqeSwYJhT+zBYZ+TjXgaucFv5BX54vwiorw2igXARV6R2YqZ/Q/IOEhRy0i36eQM5to1P6T05xaoLuAm8eR/gDsqEQBd/F9RfSgoWmqSgpV45jGJ/xPZrRDrsxf/DylQESFCfxTQEb6KLNgkjnH8pbNttQd/aWk7QYG0spNfj4WQjWU7+gHTIHHk4lhEY8BE93pGv7nEsGUlCSUNLQHCMaJLS0pQLJhZ0h/C6SnICMfoxCONS27d01gONTG+jIQiCvOAmU0hBZTJpqEn5q8ovI5ZHXXN/OEjirX8y7w4nFjAI8Ejhi6RR9rZPE6X+SOT9eeZ9KcZhVRWVKkh42XA0ol/5ie68ZyYYXL0ZxFEOIgW0gxqyk3xTjj+hHS9wH7YktYAO6bh2LlzZzr/ggu0cu9fbdOezkVCSlgIK1Ho2v4yIDbEXjgmPmZAylauSGz/cNxx/uf8VTrsPs38h1PwiPyv+p+d1vLW+l8MWOMb1fw3ewS3Gspj57/k0YGfW3yHRaE10f8n+h8gqHQ1RcP83Z0Zjz83481FPzX8jT8JRdBk+BPgT9Zj0AIIwylR39cW1HUt+hhMFlvUPGWtM5lTloNCI0xncuSdnmOJMKBE8L1B7rZ8xCsC0/RyrSiAQzdih4HJapQxhyn5R1zbwTkh+kqDWyGJS0ildSZn/iIosXkmK6C/eWT9SSXZRyUPkDV/3TP3O6n+KoFMW3Ghy8GLRBRWwT/zEjO93pIGNe1GPNfsN6pmbzGwoz+HQX/++emhhx9y/nd1adqOJpCUd82s0OJ/FADke8mL8AO6bbKtjG6vkP1sf8ChkIr/KU8rg1YV+0+e/7EizmwlRpX/VP6HVDyzhyk+bgVYqRwKf/wrfNaq6Zpch/b++n/2cdOFFunDp9Ei+EdlUfhX9Kf7iP/Bj3S6Hcc/66iFN8tLIecIDs8JKPGqNbGIILgiQLI0TUnk+qsomwmbnWtmZaGcHnkQLtLqV/cu7SxkpqG0Tq7HlNYj0sp+oVQID3BxkIn8uUdDK8tzG1hh8Pd1rrPlNHYUKMAfiqSDHwx0gc4Ys9JaMePMX7TMX2G1+it6GBtC5u9Evq7wV5D1F/ER6Taomh2nPu4Zx6tmv7HlanZMUntE8/71Wqf/sEzUroG8rtSFX4yzv0xGBpGTtnEAnwzBSRnQcjdrgv1JYrBV7A/AIFPyX5a3/UWXuPiT7vE/vzykMPjBAxLOfyVwbWlCOf+z/xGE3HgidPb0//H8XSwoIlRE3nTtf0pLX18nh8Mc/tyU1krBX0QK/1OMyfkrMf+sDAkK/lwsOVU06S04EWCmM45Ig5Vbmg4MqMWbWCEQzVEesjgC41hlNLfV6D3x4gKJo6YmBs0gFA7Krq91rbg2BFDQYbKUYChkAgqkhAua0EMHr88v/HXvUh065q8AZEaurDB041qEyTRnUdBFMtfweuJ4aJ75O9k4/tKglj+0LIeFCP4uRtQqcmKKFNXulWt46sWXAS2oke2OO+E30o3Xt06fHRPu7aCmP+989ekfftjRFnUvlmnIk/AM7IQ/YH8Ke5st299LW3P+08LC7qpbfXamFP8reevEyhfFCUJcV/2v+NX4/EeW4D+l/4nuOP931lfzH1/Em/GTci2iUFV4lT842Jv/qwEfusl/vJOQd3SiK4GNsv7yIRd2MBM1PdAp4y/rXyo/y0IhxeuxmYrjI6md1aUpDosROMwp35EZNndFDZQBtDHQIfV0Y9A7DOUklHKJUhS4W2GE0lUMjunMnYUnkUrzQkBx4I9cpCyuEFdOFfKIfrwdJEdQZOsBKWQVXZbIDvOaGV0HDD6Bv9kgJxeuzZHUnP3bpgGn9k4t/dE59EUXrpBEFEWvXfPy46ZJFA4V+EO6f/eg4y457JB01xe+1PI1uww37qCmf9Hpp6edux61P3T3LMr5L4fB2GW0XA4Ug51V+/uxI+EByktqYb33PzpKl4lckImVPuyvGJX85Rn+R7RI6zzr0Ms/+mtv02Ai+U0E/B9K4l95043CBI481r/x/qdHPvApPSG9aHmMxvGRaf/832TwEx0MPu6hf6bHc/ubfqPwkXziEf33zF/OGJUubif+9j/Jx1p6CLgkxDUpJQq5SmkRirgedikCOwhhAP4wJgaLo2IUPaQPTXbw3q77PIoX8KBfXHgpngT2QE0lDNBSymlKJQMZSshtEayspIapAwt/oIxsklYOMTw8nIZFW26wJ39nRFXqXKRaCesAf1EzfzuKZDc/orSlTgqALvZxU8FYo39kb6Frq1n/Aa2LHxvRKjoRuf76G9OaNWvMa7798Nrteee/wfnv1XhakVfxP3sH4AJwqq3k+GF/eYuAPTw6LJBjYYBUm//hVYT7GWfyTNkQ/lD8L7yT2LRkyUfy1FO77R2pk/xU67LKn/wXL6GHnMTVTJAwJZzof1APqoqgi/B/6nL8kgoC2cGPfMetkpBXwhJZxOPY0//gX1qOpIFWpIVWqcn1QLLzNPhDE47F/6MPLy2siNZvA0MQBX+raICyoJASWA0rFKX00KYULsUUXgxfSkQb0GzCUJQ0qAhQKYVsMTIDoaAPc4JNi2vCCArD2zgUGyqAMLD56YdzGAYl0R7F1T8eklPIMfQ4ZA2V9G740rRKIDvuuOPS8RoV35/3xB/WQNOjaopu27pFr4f+KG3W+UfbeWEEo8Izzu1y2k4tJ0W9CKGYQ1Zlsfgz/TZIU15hF+nll4u1Ln6mj3/+6WDa8tOh9M2fDqRf9o2mx/U32XFIb3t6gv5OPKo7rTmqKz3rKI2kz/DBUtyNG69zfnVpNV6b26a5j+4MVv7LmMBkCIDrBSL8JPJf/qca+EnHLEusRuSd/1U6H3744crX4/cqeXnvn9WAvO67Vfm5ffsj4T8V/5NvCfSLFumdf0lAfgLU8f5X/F9P8UOcgUJBNwyu4ctV/8PTI96+/L9UcuH/SgU9cY8uTfZ/icK77uariIEHYBOODv+AeRV/+KmeVpv0lhHBFcigSocc1Bv+KWIhoAtQKEZFCPW1xA3GqMhBSUl9Gn0LaPFcf5hM126CYIzCkESmSzwURAbFho7kwFDIFGcXEbrDmGpa64H5Q0MHgFLxr6cutpzulNNOS6edeqocY03TlqjiNPfoHfFtW7emu++7R7JVD804pY5FPTau1A7DSJeBAdXs+rdm1Zp0w403VhM0+QqQ3/mDvvStHw3qLTsEmP7RpZ1tnnn0ovTSJ/fOKPjPO++8tPX+rc7/nl6N3EtcF0nK93b5X79aZ+RnaMFvm/LyNIP8NOUrBXYzDvJzi4B/7z33Kl/vlQ+Kv/1Pfig/7RLwJ/c/FtSE3xY5SKcJZKWT39qfeW6PrvF/amrgl/NnnP9nbE3m/4oXsAn/N9A98hhuhgwV/Ik2XAv+BP249o43NrPK0iwENDx6qgRsWuE+r040SWLzAxHDKBBFKZ5IEhwc2R2uuJSKBr9+qe8CvoSTTr/uJ0XpR26bv4gYyOS+aFJDsnsI15Tu1k9xohAKOoND/aIXsoitSvxj0qte/dp01plnzvhUF85yxx2b0mf190PV/PDHInp7JPWoeUjhMzo8mAbV10Slz3/+i01zVDK4HAD9hoceS9t/LpA08Vh2ZGc6/4RDZwT42O7001+EyfSijbxDS3ABx4hmMIaV5zgsQ1BLjzkmnXHWmemMM86YEdvVmouXf3jn/+Zbb1HNvyP7n/yb/n73okn9jxYpOsSceuR/hrjzH3/f0//lJXmcwP5i/xcV+ch4/1eYCj9q0NK6BWgxg5BxBBeigUWdx+MvcFr4+205BpQoOSQ3rWI7pkhJhRDbzQrdAmriMJWg6I7nC7gEJ52j9DItaNqaim+A44xiYNoAmVsVCnpGqO9BBeEklGLRrAswW0Y9K1Miw2q6j4xAM/gve9LS9IcXXqRNIc5S2IE/Nm3alD7Kq6KPPJJtyDryTg0UMt/eni5cd2Fa1+S33rY/PpI+8K1d6d9+zGq9mTue/quL0iXPXJKWHcJAbvOOjWrab3DTXrZSl2hYYxwcuABdsIsuWqf8PNNhB/oH4H/0uo/61V+5on2xq0N9fG/uic/hn5yotHSh/64cqTgjQcSxNgwmFv+nHSM7Esf+z144pNXfRP8X0cCfOMBCcfB/mOVTpJN/ebNStQyojJnWi0oRwiqQGMzU3vV5pZ2SqxRhDpRmAuRixC9KEg8IULzov5sR1rJAlzhRAEAanXFu0jg0ZDPNGOSIvgRGimW4DHgpppR3UPxEyagws9VzXraALfwZxBno75eRKBvH0jHLjkkXXSjHOPPgAB2Va49NcpQPfOAaLTjZZfkQ/BjVUp++7dNNXTb75UcG0p9/facKFIw880enNrh44/LD0guP0e42TTqw0SvPfqU20vhh9r82vU+wJL39He9wC61JbBoic/um29N1G/8i7Xhkh/0UbPR094SvK4ezp1d5VPxfQfb/8FOP58iXSwt3cv9XGvm5u6WT+L+SG5vQpVbH/+FPgWFWSFHDnzKlVJoeePTCG4BDrQ3YdAA++v8MzlG6gDr6JH4BwAikKcC4H01tQFhlV8s8Y9c0bR0HUNpoCEIlW3QXAujR14A/WihMJEMe8dd/lPNGiSokB4cHrBSqrtPg16tf9eqmAikEbux3lwb6Nn50Y7rl5lusz/qr3q3NK5pXIL3vmzvTV/+9vzEh60z93F/vSX98YvOWAFOTXnbF5c7v17zmNarVL0yHzbL3CVhDsPG665Sft+KY9r+uRaqZ1dSP6WOFyXep/Fxp6hz+j0/Hswgo/h9Lxe3ruLzih78X/+c+40rJoeKWtfEX/PF/kA6QC48K/gr/HF/UTN9LayFWmhgMQtCH4AjgqxdFMeEDJbimH64DvpZPZZZqdOLROK8M5Ol56dtTZmEJdoaNXoXEFS1KO/5DUU8pW6KfpDP03DzJcZhiG9LoO0yfpB1grv3ghzzabtFm6Q9TUFe/733p05/5TNMkvGzbo+nrP1ShdxCP5U/qTu9eeXjTJHjF770iXfrHl876qcqHtGjoLW95S3pEI/z4IesymJ0JwApWqv3d5NYzoKJbt9zjRv4sEMfslq4FInzckKrxfwoMAgmvDO4ZI9yDkkAL/PXfcriVDf7E0Ju4VPgrDvQy/rSJpfa0E8rYJpkShn/8VxdAJ8fUMzUwJB09j6j1dQGj/DziOWWEmA7gDcGcTqSAd7xvXhU4CiCB3fwhGfxRqsJfhcnQgPrr6p/A/9TTTkvr333VvFu0gsVnA9iRg6PZoA+qs/+Xbshll1+e7rn3HgkrX5bLLtImnkACxASAcWV8mIFrBrt5Jo/OXd2o6GIgLsa3YlC36v8ZYtB0ZaoUFALewBE6gU09hqp/C39uuQZ/8HcBkfl74Q2gc/2qQGruHCWI5sQUBmARRsTxqLjIuTmvwYDycUGXJgDd0wowVDpKMYWJlIzBr3iICOBl3hKDUJzQrzd/FHRICD7E3m4j1PZtGvRaly7UwNx8PA5mM34qeze7eT8Vn9kYfp2a+Bv//KNyZLq2HZ63x8nxU+2DpH+MMgVWqHmp+ApOaZ6H/4O3WvxRCBT/B6qALs78QqDQjFshRouTysA7WGMBG/P2jAPoRsl1ZfyJmt+WE9BY+EDc2n23iU4CBCo1M8wQutTesWhGAYrlPodLMKUUsWi6YwzAHoK61AiJlQYOuXhRGIB3QSByxKdpM6hdYKjZ4b9+/XtmzcCcBD+gBwN0H9mi5aiz8HjTmsObOpA3C1WcUqRNt2/S+MMV8n35f3un3/l3lQjI9I/qjAIAjzYK1FLm1sDcw/8Df6zAA1Fu2mf8xSYtIIbE+q+TqYJdLozSwJOLjyn4a1pOTXoxiH6HyMHJoJV4JkqASKg2jv6Emh4oojgwdgmkRLxgY1CbO7N+PNZT01M8KWrlndpJRSMKAeQ17GGo574TnUFNZ7GckrCrrnx3OmOWjMJLoAN6bN89nP7H3/3igI3GT1c5Ru//928fkZYtZons/Ds2aRT/ssuvtOK8Z7FIG33g9gBdvWGd8X/8GpwpzIAGT/J/P8Pjc4Vp/88LcwCP4hIJ/IEDMGTMURoEE4grGpg04hTPVbT5A1OTzPxVw6/MKSPcCHV/3eWUaUKZsoPpMLO1wMzHIoyEE9ir36dGQ5jnx2JeBt6Qz4ekYGTROigiSvsQ3bgG7KyZjuWx66+6Kp15xsGZi82SHdTTJZt/OePz7I0qyDz9B9Y+oVEyczb9Ji28uvyyKyW/Br01iMeafMBqiDIvnpGEglSWdIWpIAGq3/IEWTX+zxhaVJEKF5ApJEbyS1veaMVLkpTeFa/aEupWj43GS0CAr4o/4gR/8CfAx/fhqWHdYKBU4Vr/3SSxHAhePSi5KGkgY+K6o4+OwMGIAqJM21FU6LnoQWN/vs89qsU7g1qKymjmhfO4z47FN2sF3Xv+8ZdczvrjT37zCWntAViHP1sNcZ0W6WzYuFHijalpr3l6HN4/AJYb/F9BGniLNfdgTdfCjVvYRlQGiupN8EWlSKxAka6cJOPPmNO10puPn1GIZOxS02f+MSCv2z2/D68EmbEH1JSY5Y2lNqa57wU0iCoUxyojBA4BEYg5/egCQEuHSjGaGVGS5XLLrQAKAiUUHQ8KElf0+/qHxHEsnXLqKelDH/wwofP2WPe1nzd9uexMGZNluBufc+RMkZ8TdN/85reme79yr/2/e3G3Z7vk1MIAlSJoCCxwBh21/o+C1NhR6+uGa2G24C8Wq2X8gTfIgmlFDfzBRshhVi0PhtFSCP7gT1csvInhe4UrNf1zGu7U4PQJonlOCUVKnkRZQ4sghFUUx4uUXjWvJkRREOH9QQmlREmP3kOJW9Oj9wJNDr1R1s8y1LZ09NKj0yc/9al5OfUWtoja/b1zpHYvMr9rntfyLNA5+5XnxKo84aKbNwF1Flr0F/7vatD+7zrc/s9T/kVLQIUBYNe/KCDAmq4FGmPOTwKP2N19d2GGfx4LEP5Iyx34hT/INt7i+/ACq+4RiHduKS0sD31zMYpdQXk1T8lcIwchLnlt1qWKUnhXnAxe5IMabKEcCpmnaXjk0sWTRBMhIM9rkMNaRYcqt2kZKq+wzufjci2weXD7wV1gM137n7ysO13VxAU50+U/G+I/rMU5r3zl2fZ/vrXHJhtgwFgAW3Lw8H9dUBjUYgWgEwdFhD+viVeNzaC3P7jCQ7WgYxAcxLrqFW064AxwB9ihYD4T8OdBO0oPmgFRmyui2gHuk1tIPTMPhIZ4KXNCAAYfEK58nxpgu1QRmOP71AqJ6lzxstKOkwsEnqGxFO3XV1dobbzm3HPTO/Qhhpk6tu8eSZt/NpgeUP/4B48Op5/vilmFifyOXNKRnnx4Z1qhfunaJy7SKDQDlQfuePkX/jMNHaB18s3Sqksj9n99+n9pFrn9ojMb8/Pqq69JN3/iFtfY3T090gOU4P/5kM/zzr0LAfu/fFAAL6P4jg1idfDrmp/CgRQK4PVwL1ZT0524jAE4Hr+iY6xSUOi5IGoixKv5PrwSAnzX4qWUUAwYGKpE150AyffZLaifwkZ/CqffQMHhFApCCAQlpbdmVulDVMANnRhtjHbAIN9TUw1/jJryt33yUzOyNp4BsNu+t7vuEW9Gos9+6uIDMjA1lwbrlKPjjgM1eDeb89MvBZ1ztjZLecRf3fGHOECe/H9f36c3QkE1h05V/NHaFv5UIeenASeDXXgS1qIrwHUVf5Dx9+GFvwnfhxc0FTMGB8TIiQLo0VzQtYkiSEC+NE0CthQYpOMHNoqja4DvW4UwmOfpPYE+YiB6W+rvHzC/K9df2fTFNTjGjQ83711xBqfOO/7QGQX+hoceT1/4t8dto7n2c/rTD0kXn3DIjIk9V/KT16Wv1Pw8XeQe1fJgwJ+3VmXHdDZ+H9ANdEQtXipTwRz8UUboTNeZo2CT66igSesqlpPwF5gDgg53V6CKv7ynHSDX8+jIO3kMtIkRgIWShAvSXEJUtbnOlCRe3muQIxRKlF/LoDi0KTQ2IPouheAQEilcfffBAW3dTO2+NH3urs87rBk/u4ZG00ZtCvG1/zczb5U957/2pEub+NZYrc4Xz6HR+Vq5uaZA3DBDo/VX6y3BuZSfp7/oRenHO37MatfUlTfsBOSAuWCKG+PPAKOWDvwQxRWpx7oC+cZWxl9pQbtCVSJqd1IGUM3AWIwPaIA/PVquTSwpcICmGTgeAQW8YmkG0USguRGjfgwTkAxGSqT/USQQyJELCBbmKCZxY76QZzDJJZiuBgY0UCel1q+/qmmr6QD7m772iyn750jRjIN+/keec0Ra0mVrNIOkabzqyz+dcg+6pjGZIULskXfrC49qKvW5mp93qJa//IorjcFu3qEXtAJp2f+Nz8BbdHMxG5Vm1OhAngKBGE43EX+OW7BLOlJzxK+7z6LBEwqVvE01RPVfPFjUH5FVG4tpZR7PNHiHXYMFSunSgoduniBQLTPaBKKpeLCK1/UgCyhixLGUYkNDqt2HR9PR2iDirru+AJeGj399dChdpumsAzXgxUDVuzUd9YzDuxqWvRA487M/KZdz8rzpZb/SNLnnen5Sy/9IuyB5xF4r8Nw6Fs6oJwN0gE//BQpq6ziEP10H/hSS47KgDVx5Kh0E80hpQZajOCRPdes5c/jeR8IPhcbq9+EVk5JEHQ63wBUBCDNHzpgfZYin60SEtB7WE9hprjMggLCeb9R90FbpwYWo8GJBFeyiGprq+ZgX2VAIXHLJ2xObHzR67NKo9nl3//SAgb3IC+hvfMFRqull/SYcC4API7ZCft58883p/e+/1vjo6e6V/1N7B0TjIy8CCuDNoI8WM3gK4PJqLQWB4RToMjaJz3cQRtSKdhdZ9+7jYzrPuhl9mXaubMvHJINfZkKzQYQL4GFctsC1oAhMaaQ4NNZjZF8CUYML3KIijvzFCdrcEsLHINjZFcHGtIR2QDvNQufv/+6r2nByCSnqPnCON6nvO9U0W92E9zNhNO+PbBj0TDNdfPfP9pPr7IzWrBr+vPt+dlDz88ZTntiwgXfteiw993nPE4BjB1y+Z2C8GcQBDN+70uS1Vq+tM9/cRhagAaxwYyD5V/GEKaXRD4AS/gwsIVJn/bmI4LLEUZiX1lIaUPlHIhIH4AOiuVwhoWLR4o8QBNBIo0DuGpwSK8dx04SIlohWAFteq6iAMYJAQ5d+z10fZzjl1Odr95rGl9Dyvvg/zNAAHdrvz/FbGshrxvZPc72G3/CCJza8bqGV8vPNb31L+sq9X9GWWHpvXrvzGpzCAFPTxp/nzgEt4BDgaRWDFcWpjsazrBbsgKPAH9Avq2AJpxoGvyyW45JChvQFf1p4w/fhTdq/8FMqNSEgHs1zfr381Q/1nEPxYEl97hqeRJJuX9/nhrwFk0J9XkY7lq5Yv15TcY29DcdUzZ/OkmWo72zC8tKz5ngf/vYG+/Ctlp+bNt2hKbrLBRptgNmj5bYCUDS/fSVgBqY4GX96HvPqSiKEgj+DH+DpALSxvAZw589SOQILeFQIECcTLavy4OQ+vIoA/psgPy4lFBmBvPsszQn1Ezy8L6DSdAfkEPXhtFHSRD9fYougSyuVMtF/p4HBogG1C1T6UFIx9661Nhqs+1xa2uBHBZjG2tHkPdmzdtM+LW3CtNR8B3yr5ecO9uB/8UtSp1DTpZdqvG9kxhg4AXXgFTwbfwAc6AhnvI9Ca9rfzQPppFM4aZyAhIYcmItQPXC/X9EcRjxz4fXYiE1JwiABRKKZXpoI7keIEdtYO5kYMGXPxvcIxwckKk0TFwMiaemhjCRR6oRcUZCMjA75++jHHN346Dy1wWx7yaTRl0jm87RcK+YnAHzRixmt/5G+VdCtzS/Bhf6Daleo1OgMjCvQuMoAFdCNP6LpmYfxeK5o4M+tb92QloIjig4i+3/Gn1FvZn4f3kCEsR77msvMvFoS8VjFARF0eLIfiZWOkOh7cIUwYsDhuBIBQU2fVgFCa1957VOnN2XSS854WbpKWzg3crx986N1L5dthO/e0rIM9/1r69/V9WKtIWj2V2T2Jm8zn8XCmyPqJtmK+YkxLrvssnTnZ+/U9ned3v8ObFW/T09FGJABzAKJMEYlrGsHQGFP/JEmmu8Z7BUwm3hgVjEK/tyHj3oawvyP5nZswAe3GNDjLTpIQy8G3yQcAug+mhwAOzOhVLIU0ctQFMWNgcBSQvX197mEevsllzQ0HRcj2j8Xh9l3bHjBkXUPXG300trds0+p/ZDo9KcvTuvqXFrbqvmJ2W7WNwquef81ah23qx/fLSwxGi/MCTauInUzDn88rMWfwFfBn56NqkWuAf/An5Af0+KeeTf+/F59UK7gL9bS5yYFtXVpXkRtDmo5eCBmvooam+LITX4/Upju402f6N9X5vNhRVzKIYRUsQWl/v7d2pxyLH3sYx9vaC/y2/+jL/2frz+GkLPueP3yQ9NZv9Zbl1xb3E2ZnZtW7kuhd/3m4foKbX1foG3V/MRmfKPgDRdcmDrUH+7WMlv6xUZVxh/4jspTF2zbrjn2wJ5OxHSTnStiUhFz5VSOF1DUwji1sGM0P1LTVQ/8KTbfhycij0jsa9FwA0GCUOL4E9H5urQYiEdNT7PDSJYwvjTw9Yw7S4BosfjffX4Jw2Dg7j69560NKu/U2vlGvgJ65QM7D/pHGbDAZAf7tl+5ov4vtLziCwd+AdFkekwnjAVInz69/mW1rZyffDzzJerHt+lDo909izXKLoAwAC4Dl8Vp4A48ufXM9JzGv7xtbAV/em4QkiYuo5KmoxyQM3Yz/uhO0zbn5Rvjj0E7lypugtPHpiYWKIVSIpOYmpxSwsnEhTfemOdzI10ApzRhqS0/blYoPmwQ3ZtV8kx3FBAwZ918f5+++KqOxde/8SAP6z7Ov+/gLbTZl9AsxLnhlPq3fLpi2845uQHG+pX1F3KtnJ/4y0knLXczvEeAZ6948MKe8karQOkXzRRGLewKGCwalcKf4kW/PvAX42n06/UItBt/Ok2CP5BMPK2l1yi9SwwCCsAZdVeJwC6Zbg5E3e82gIuREIJBhxH9QChL7IIhigIgHsE096nzPbcvicfGhtNuTcmNiseDD36TWHUfZ935n3WnPRAJb39p/ZtBeC76n+ZWs/6dzz68odeGWzk/8beTTzrZgO/uBfAKEDjH4Y9bAK5VqMx+BSJBF1UvOOQAf+xGBcYL/vzA+Ivv04uOnnvKTxeM53ugPb4PDyCjD66T5wgh5GgqBAx6CUbp4pFFPYkpO53jLZqQmwJDcRRTMViDzw535Qwdnui5gN6nGn5ESn3jwW+EpHX+trqDvPEf5s5oPaPzf/5b9Y/O4wKtnp8nqoanD08NL4AIoAFqak0ADkpdkbo6pmWtMOFFMNLzmH4jjqfCwaExF1WsR+KNv4xdoY1luoK6W9Zw8ttyfCbKpY3RCPjLEWWKBwtEmNIFOVyqcOeSg7hc609C0RdwYUALxE2LKExYLsj3sbljv/l+7Ux7zNFHp89/of435BjRfeM9s3OEHqtwNFLDk34u1fKN1u7zIT9PVA0fg3a5SS90+wUaMhtwADCfuS/486UqVSpNwB4R8iniC3x6rGt1pV1wQIt7/ekn3tDz9+HjQxQQArOFiEsQiJPOQvCQEknN+Mw4ioAQANpxKIILEGp5XfITkqhmVx8eWiMjWlY7kA45pDd99Wv/mNPVd/rdWd6k/9sGmvTFIpeyzuAnWrcwi4+n/8qidHUD6w6Kaq2enyeedFLi5RkG7dppjmvtHaCr4i9wxhBcLMQJ/GlracMI+Hhxjgzm+lUoi/Z0YNs4pNXgvr/ujL84MfZWGaWPtj7MFKi2QfQNgiSJaAGUz9CGgF7jo/jIG/EoAGJdEAxKAUIo15m5xOPrUbsHHqcwSg9+o7Emfas7CECg5nvr3//igL/yW0C4rzMj8x98Hp+aYhqpsaPV8/Okk04UlvQNOi2v7dTZUBQ2KvgDUFS+glQMygl8+q9QYVLn0gqnxUxDXWHeg55IilUBP2T0RwFROWilly/POKUY8VYNfQi4RGmS+xg5VWne83I+FCEa5yilgDeFBWGcOOKkX6WhO4KcfZqHH1bz/5sNDtq1uoPYgPq5+0cD6c+27iy3s+r8R6sPSy84urspMrV6flLDd2jBTU+vdrLV9tUUkdEAFvCAsPDkcTKDlYqScD8SsrjXn64cGjCr4I+CgkU9bvIH3ERbqQxAAY8WRXwfXrV1+T67iIFhmhQwMC8VK+4DiJl3plUEl0ghR44X6UhBWcARfXgGDtjpVjQpIBKfltaLM7t3xyj9N74Vkev8Pf8rP0+/mGKb6TpJNi3ZEUzLPb/+abmJglzzrV0H/fXfiTLxOvA7ntnYPga1NFs9P0+khtc8/GIBninwMYE++tdsYiFLUIOCL/3siT898gaSEY1YHBGvFn8gmMIhaFDHuhARPzfpGX2P1XBRcgREKSkCvCQ3bUoL/aNE8v50Cm5T06LN34dXmUNEyYCw/j62SpuY6tMoohJ5FFHFDdNxuwf60pi2tvqUvi5zwgn1f3CChRqz9WMNfJShkYU3mH3iMZv0bXX9Jtq+UX0feuih9IpXnK2PTeoLs4t71HtnYY0wJdzQQWbEnZq7vKfi1jtCCFMV+KtUMMyotpXW3WkNhjPwHmNtiq5wRuaj0hZ91/x5hiwW3igCIDYzamMGAlQqwEzk1QIXMQggWETMBZGFFH0despggc5MyXHvEox7R4C6lBIxBOjr09JalQAfv/76hpbWbtLS2r98cHYurf39kw9NZ9a5tBaLTnWsnwWFHM5/RQOrCKfSrZXzk6W1F5x/gQCvJj3bVqumB6TAE4gAePrpbg2DIiCjZyBqz+/DRxFAmlr8RSdfxQcg1z/38xWBihpUalqO78MDT8oDBRnJeegt2hhEU1NeEjlhjsfogQUinNIJcgQgACJyp3QRZLoUI67lqeGZhx8dTusuWpfWXXyxYtd37NCA1h/N0qm5PzvtyLS0CQNZk1nm/QexeU8z/u1NbMbX6tfK+blxw4a0QV+YZZSeeXi65+26BjkgLgbpwJMhblwVTBl/GcDGKTvaGGRV/EU3m0oXakBOWKSWdhTAL+xWN7FUKEx9iuofQYhPOMD1p559TVKVTrpmoT41e/k+ddTwcNCfShnieFmACwUKBt2rmh/W56D52swpp5yaPvyRj5hLvT9MW31nlk1bHdukaaq92eSeRwbSdQ/u0lvGZO/MH516h/uik5ek045pzgDdVBK3an6+6U1vSvfdd5+/Hd/TxaAdtXRuioNKYYVfEErFWMGfsDMOf3q4J/4Ecr1s48pWeHS9XfBH1xqsQpktrqjI/aE6Mw+I85Syh/6E0pk5SSyWa/poIgB22AfAoajI+k8pVAnXlV+pFaFhygE56MjIUOof6E9HawOML37xS2hZ98HilP81y5ag/s8Gl5jurzGYsvvQtx6b8QKPAuwtzzy0KVNv+9KtVfPz9N/5nbT9Jz9OgL2rS+AUotvyOFcFf8aSLCRIGX9Cei3+wBYJwZYXy4E/IuQKFoBWm/PgkmJDuDUmdbtiuRbe6I6yBlpwAsouaWhaKI0X55mxQhXmt+QU0/3+TMgDfwqrLPWjM0IaSKq4icIihKeGZy6eqblRDdx98UtfTEv11ZlGjj+aRUtQWWL6Zw0uMZ2uLQDJTd9+vOmbZqDL6447pKH18dPVhfitlp87duxIvyPAd2jzC6bk2ts1By+IgC3ABv4ACy1mv8cOAGvx54qXuGx1pRaAAM7UuBfkKOE4/Al37gLo7C60aQvj4Dy+Dy9C5iYCI6qFh7QEFmKEhTQqEwxd3UVc9zLcbiClJXUxQUlVCg93DFQCtRn4Ar3itwnsDNbxxhxnltm+/R2Xpte97nXiVf/B++OzpZandq/3ffD6LRApscNd/9Gf/kVdnHo/xMFCmt9Qjf7iX+s5qHq0Un7edNNN6epr3p+61GcX2j1SD5YAIXPt4BscuSWsO2pwN72FH1fIAb8K/grmSBjxTE2pqvjrWtShXoM+fCEehFLC+G05anGmzajnB5gu4xmHmHm6zlvexov1UQAEwKERL9dH2jye6CgQgQw0hW79wlQHgSpU2PxiVIN2I6rqjz32uPQ3f/M3PG3oOJgDWUXwmRzQKjz29wz4t/1sKH1Ln8b+xW4NlPY7B/ZIvrinPR2xuD09U5/EXvnEroMG8omCtVJ+vvy/vzx9+9++7RF6Ft60CfS0wqP+LNWoAqjVFcwj6v/yffh4F0X550q2Bn9ClVvVSkH/PRN0PGgs0uetAoUUEYqzYsUqXYmAFt5AtE/feQPk/7xlsyLOrYPvj731H355UD9c8PEmLrSZW9afGWnfoIVVB/PDInM1P9euXqv6eiz1LNKOS7kBTw5VR+lzp79fNTyT+XMR8CgE6N+gabp6m7PQqOegGfxxTcM1+6OS9cjSSmkW8rO+3Fy75llu6vcuoobXRJ1a6R10r5fnDTBoRqhA0G6y2olG582bt9THaRak4uODV/7zowcM9ID9ymcd3tSPSc4CM84aERbyc/pZsXbtWifqUZPeS2gyCTXpV6pXoP40iFejv5+95tTJ3zKHAY9uO1XTv01fopnp5iDbWF2rL80c1uTPRef8WThlCyzk5/RcYfWaNcZzt1b0eRMN9fX9th3fh/cTOv+iOcheczpv1jLAVjg+wIq07/fPiCq/9ZSedMkMrTibEYFbgOhCfu5fJq5d/SxH7OnlO3YMvjN0J6SXPe24oZrvY5ReN1u3bnWCVvjZqlHqm769W3PUQ01RZ9mRXZqbXpxWa1R74TjwFljIz33bfNXqNTTY02J9x67SpGd2YPnyVblJryF9NeX7dw/QwE9b779/31TnWAwc5dPf66t7VRqrzV7x1N4FoM+SfF/Iz6kzYuWqVZ5q95p9Idor+oRvL62ldvfyPGG+XzvR8IHHbfdvm5raHH/CclSc5UHNUf9g5/CU79PzPvuTD+tMJ2tumtq8GTu6zHHTzUrxF/Jzz2xZuVKA11y/N9pgwQ3rd/i3Yrn68BqyH1WPfkxvsfUNaLmrpuQf2Na6gN/TPAshCxZoLQtoYxvV8O2pt7dXq+205lXr4AV7aviVqtxZe6NBO/Xh+/v71ZUfSfdve6C1LLCgzYIF5pEFVq5YqRo+ttLSAlsvvqFPrz68AM/6d7XrWe7at1uDdlryuu2Br88j88xeVe/QBh9f/uFA2tGkAceZ0nSpBjJfqE9rnTEDG37MlMytTBfAt+n1297uXjXn4808vxS3nO/Dx7CdEM96azamGEsPPLDQpD+YDsFGEFdsfXTK8YWDKdveeDPusX714TO28cfeeC88q1pAb8G6D9/LF240J8egHYv386CdqneBfFR/u/mMsxHSuxIAAAuGSURBVPryDzyw0KSvmu/AXgH2S746e7el3pc1WHn4gecesQD6fRlqBp9rnwv14TvVh+/W5rj6BpTAzlv0sZY+N+fjI4+79Yqs+vALTfoZzI69k/6Dvzt4L4zsXbL9f8oKxI/9dvN27N1/zgsxsYC2rlPNLsDrO/Tt2jTTb94xLbd85cmq2sE+W+TQh+cjjyPqwy/U8AfDdeiz/+U3ZuemnNO1x++fdOhCn366RmtS/OjDs3der/bQY5Ud/fiaUXqhXa16Nen7okm/bWFarkmmnx6ZN2v9f7NWBE6Pc/NjsyLxw3rPYOE48BYo8/BMy6mq15bYqtfVj1cffrkqdmp4/dPoPC/PsDFFo9Nyv/e52fEZ50N629MTejvSU9TEPPbwTi+gmamdZJuRrbPFbs3QBRqfeUn9n8tulgxT0WGshAVY33l0OH1fHzP5Zd9IeryPTSQO/tGo3VaujEG7xd36Sq2qeKbkPA/v12O12JbltGxvFYN2Y2nbtsaW1s5mx6UQOFa1z3P1eaRTm/SJpGa4CO9+n/elnzWD1Kyh0ajjNluRe/XJrq/q7zua5pwt4J5Mx0bttmrFKk/H9eiDF+xm1a519GyF5YU3vC0zxtbR4tyveXim57Y2OC03mwFfa2BGlNcs7U5n//ritOyQxj+GWEt7utcLgJ+uxfYv/vbHR9Jt/747bdkxcMD2SNg/yaaO1SjgV2hpbaf67N2almPMzm/MeaWdNsBgWS3d+jEB3TvJalru/gbX0v/eXbOjST+1Sfd8wssxL//13rTmIL4FNxfttqclqyGfefHBa9JvUXP9r/+9/pelqloc+KtG7eY+vL5w08v78AzW8VlqfRLO03KAnQX0rLQb8Bdh5ifgS7aepBr/Am3NfDBellkAfMmF+s+8THO9tuz+hmr0uXo0CvhVq7TSjqW1AF7A52BL7Fh4A97ZLVN9+H4BflTz8Fsb7MO/Yg7W8LXOQVP/1Kf0pj8Q8A/kMdftNtFWnz7ANfzHBPR7v983Z5ruE+1V7hu12yrelnMN3+sanpF6PmWlGp6ltWKjG+bfH9cGGEkfh5jvgC+GZwHJFasO3FLRBcAXy0/vzIj7+vsfnfEtzaYnVf2xGwX8ylWr9ZZcuz5LrWk5puNYXqueu78Pz1foR/VFC78tl+fhG90Ao5Ucl9r+D05cckBG9FvJbrh7o467P5Bh5P1j39w152v1Wl0btdvqlav18oz68FpaG/PwjNO5Sb+SF2NV3etLMGrSD2gt/bBq+vu3NvbyTKs5Lpnx345dnP5whpv4rWa3Rh23FgSTXf+FmvD/9zu7J3s0p8Matdtq+vD6rFWvVtppTs61vb8mS5Pen4AS6AH8bpr09OG3NjYP32qOW7yHAb3Llh9Wbpt+bjW7Neq4ezPwu7++c04PzO1Nt0bttkpbXPk7dlpLH1+5Uf/d8/Ar9TFJjc6PaB5e/2PQbmw4bWmwhn/lHB+021tmnDiDoG81u31qhgbtAPs35/Ao/N78i2eN2m31ara4YlpOg3Z8llpflWLTCw3a8akpNeo1cMfimz734bUv/dbGtqluNcedmEEzBfpWs1ujjjvR7ty3OtjRsVG7rdautbHFlb48I+CrVR/vw7MvPV+G1QecNUrfphpee9oJ+Fu3NNakbzXHJRMmHvTpmz1t12p2a9RxJ9qcabdW7LNP1LNRu61ZpW2qhfLexYvVlKcPz+Ib/eP78P7crN4ZYOOL3XyzXX35rfcv1PATM2Gy+3UrD2vq6P0C4CezcoQxGr9x286pI7TQk2YAnvfguzUtxzp6mvPU8l54w7ejYxPLkXhbTktsG23St9rg01S+xJTdNc85ommr8lrNbo0OPhW7s3ruHV+bu7sAFT3299yo3fgQRYf67uxLz5ntrbwJBm/LqQtPAeC97Pr72ZdegF9o0u9v3iQW51z3vObs7rJQw09u9ov+fu7vAjS5ZpOHNlzDr9bCG83DA3jeljPeOXvQTjvdjLUNqynf5k0s2eJqy9bGvg9/dguP0k+WRS9sUn++1ex2WxNG6em3f7kF59on86MS1qjd1vCpKb0Hz/vwbWrau/9ORX+y+vC8De/VtQJ6fIhirOGPSbaa45aMmOrcmZv2jW6u0Wp2a9RxWTJLU354CA+dP0ejdlu7Wp+LVlN+MU16rakd7WCTK21zdTJr6enDq5Zn51pej40mfWODdq3muPvjakzV/UmDi3JazW6NOu57Wny+fSq/atRua9as1Xvw+vKM5uHHvNIu+vGVDTDYz25Unfk+3pZzH36hST9VZuwt/B1rD0+rj6r/q7ILgK9ad+tPB9M1mx+tBsyjq8YBr3l4AZ5R+k5tV63aPI2xAOdkfWqK8TsW3fABigEW3mhabvOWxgD/6i//dN41w/DHp2kTjT/V23X1Hmd//j/rTTor0932ovo3wHin3n777k8GZ6VeMykU3cNbXnhUQyzWqob3p6YWs7TWb8Kbnr8PP+Y97dSPZy098/Cq4TdvbqxJ/655mllY9drnH1n3RxjOaTHAf7JOwNN3f9tXft6Q08/VxFQa722g0kDvtWsBfPThadIzUs/7sRq0q34f3h+i2B0fk9ywcWNiAX69x50/7Es3f7M19lefrg2e/ZSe9JbfWDLdZI6/APgw24f+ZVf6p+/312XDuZ7oNSceml76JL3lVudx//33p3Xr1rlJ709N0YTX4hu/PMPSWujymSm/D+95+JQuu+xP0ste9rI6WUay18zTZj1NspvrbJItAH7Bd+r1nQLWz372s+k9V73HgO9ZrI9JUrN7Ll59eJbWJm1+McLe9JqW6x/UxyS1XfI557wyve2SSwqNus7Mn9793dZ7V3l/jHGRltye8qvafGCaxwLgU7rvxwPpunmyhHaie7zgaY2/n3HtB65Nn7jtk/6mXHwfXhU6zXo2wPDnopmFZ5RefffhoeE0ODSQnvq0p6VP3PqJifJM+/68+36mr9nMjs39py18Awk8RXfy9N+bXxi0S+k9D7b2q69TudVifS/hI889Mi3ppA1e/3Huua9K3/vud1NX96LU1dXl+XfV54K7WvbL1Yfn+/Aated9uTSi/ez6/QLNaLrjjjvSMUuX1s9ZKR/eOZyu0MKJ+XaQeTec8sRpq71Qw6d0/jytJNbrnYzjD2MKrf7jkR070hlnnOFltd36CIXH5zVKz352asqztFZ9eK+1E+L10syI5uJ3ay6e5v1b3vrW9KpXv7p+7jnlfB3Aq2e0fr4Dfr6Ozjc6UFdAeustt6ZrP3htpTnfrm2u2tn4AsQzUK/vSPPujKp34V7N+mE164cGB9Lw4FB66tOPTZ/8ROPNesjPR9DXk4nzHfALfgJa6j/OPefc9J3vfsdN+UVdquG12IaNMNjPznX8ci288RbVgr0uNFKvra6GR/wSDX36W269JR1//PH1S1CTcr5l5m9qeu7N05yem++A/7Cm4/5xHk3H1VMp1EBq3OXDDz+cXnXuawTylBidb2/r0ki9+u4asKt+H9770lMCCPAC+JjemBsR6Ps0PceKu5e89CVp/fr14wg3ckOf/n3bHp0XA3lLj+hK1z57ep9Lnu+Af9s//TLt+MVQIy42J9IyxvPHKw9vuM9eq+zlV1yR7rrzLu9h16u35Nr5aqxqd16H95CdgO+19J6Ip4b3+zNsV61m/fBgGuwfUiEwnDZ99s60bNmyWtoNXT+mgcFPfq8vfeUH2hK7hd+CIlOvn+bA3bktttLuE9NcaXdBiw/YsUbj+U/uTec8tTcdKkA269i+ncG6l3rufVF3d1rUSe2uITtV8aNqzneqHz+qsTr34ceYg1cAzXmP1rOuXs36/n7NySvsJS99WVNr+aLkLgH/thYH/nQdfr4DvtX0L75egH62gL6kiUAv9K+4/Ip0552fU3O+PfXohRn67mxP3alxer80o4hscvP/AQAA///7ndTSAABAAElEQVTtvQu0ZldV57vOq15JEIYtBr1j3NskJN7bQ1KVAErIE68NtLe777AFIaANBIwCAiK2oNK8VKBFFBqQaAJik6BiO8ZtuyXQCqm8tHmYSHffa0Jid487QKTbC5JKPc/j/n7/ufd5fKcqVd93TlV9X+XsqvPtvddjzrXWnv8553rsvaZ279mz1JamWptaam1xqS0sLXlqbf5IO7Sw0I4cOtgWCPj1X7++PelJTybi5Bx7//pQu+dvDrf/9o2F9ldfO3JymJwGqh991rcMxfV5H//vQ6Uf98SP5Po/7jFz7X9+1Ezb/c3b2pXfuv2kParPfe6z7Ud+5Lo2PT3ddmyba9Oz29vczDSYnm5TM1ONq+bvIhif2r37EuAOwqcW2wLBS4uLbWphqc1zt7Cw2A4dONgWAf4TLnhC++hv//ZJK/SxCH8eJeCxb34JhXCkfeGrh9r+A4vHSj524Y9kgfdhnMn137Vzuj3xsdsB9Fw7exajyXEJ4D7Vx3Of+9x2/xe/2KamZtr2nTvaLGCfmpltswB8aWq2zXBeoFCEtqk9F+9eWlyaEepY+EaCRUBPAoC/uDDP32I7gJX3fN1117XrfvS6U12fdfxUAjd9cf9EeAJnssCvezBHCRim/l/ev9B+cu//dxQq4xWk5X7+E3adFnAPtsT1H7i+XX/99Vj3mbZj5842M40tB+zTWncsPrccWHYwvjQ9XxZed35qCaBPEQvYl3Dr5/lbwrLPA/z5I4fakcOAnzS/8Ru/gWv/pEG+p+X+1q8cajf+xwfbPNZ/XI9hBN46bLn049ulmcWKX/ud57Srzj157vkwcvy5z32uvfSlLwXYU21udq7NbdvWZrDuM1NzAB9KQTtWHVyLkOlFLfzuPUsCfSmgrwjMe1vQ0uPaL2jl53Ht7csD+LN2nRXX/tu//duHKdtJS3vvN+bbL3zm6+3IkfEE/Rbgz4wxjLm5qfazT3l0u/BRsydNloch/KUvfak997k/2Pbv3w/AceV3bAfks7jy020Wyx6wa+0zPtdR5nrKQTuwzqFKAODcTOPaa83tz2cQD0u/wN/Bg7j2hF9wwQXthhtubGeffXZH6fSexhn0W4CffMCPG9gf3Lev/chLrm333Uu/nUG57dt34sZj2QH6LK79kgN1uPTT4HqKc5lCQE3A1EV7Ll6aXmIEb5ohO2MqFqBzvbgAwHHvF4/E2s8D+iMHDxfoL7yg/QagP2dMQG+//p2f+dvTq3mOwn0L8JMP+Nc+5ZvGor+ueD344L72UsB+73330W+fatu21yCdffjZGcbi0m/P8Fy66NOA2iFuwY8px6UH8AngFmxnJA+YO54XF94BvCWBj1uvS39kfr7NHz6c6wt7S3/OeFj6X/zzb7T/+OVDR4Hd6QvaAvxkA/47v217+5mLHnX6BGgV5wL7S9p9990by22ffW6G/vqMM3AM1GHl7a9PAf4ZMLzowJ3D8QB7mnBxzrQc8/AGM14n4Bf1+wU5/6YIUBvM87O4xEQdfXtH6xcA/eEjWH3CL7jgwnbDjTeMhaV/kMG7l9/6N2PVn98C/OQCXlf+fVd9czunm3Jbhb1Tfqkb/5JrceOx7CC0zW3fFouuZZ8B8em2C3pH5QF62XPceyfkHKMTz0btufji9OGBMmnUCCal/85VIgQ7CkAf3wU4i7j3i87TL84zcg/oCTsHC//rN9zQLrjwQnKf3uNtY2blbx5y4c01Z9jCm0muv9b99WNg3e+791767C9t38Cd1zBvczR+1j47QGfALpbdATviXHwzVYNycekZe9eeY7zty+O5u/CmOu8F1Bqnp0+PdRf8nrXkUwzguf7NuXmn6/iPAgD0TNktMdzPXfvJ1/5Ue/7zX1CETtPvfYzav+mur50m7uvZ3vzM4SzcNbeM77TU+todP2SS6/+mSx/TLjjNo/I33XRTe+c7fyld7SXAvG1urhbWOPWGCw/mATiLa2bshhfoRbgzb3ro4rlce208MbvpwxvhsrvqwXP2GhBr7w2PhTeNfXmtPArAUXtH8b0/dAjQS440l1xySXvzm9/Svu00Ttu9ZO/fjM1qvEkW+OPD+fgpJrX+rqK74cpvPn4FT1KKLzPt9sY3vrF97vOfB4WC2gG6bTX6nsE54K0rj4V3Ht7ReC18EgNFVIFQN2NKKKQT3Vv4KefrOLLSTtc+KYAxgHYuz+k68A6R+bj3LsjR8i8wmLe0tNAO06/X8hMM5aX2o9f9WHv+C55/Wqbu3vaF8Rm8m1SBjzBsws+k1j/u/BNP/WCdA3Na9es/8IHgyEE3gT2DZXfpLJeZd58yjOk3zbKj9Vp0B+a4oGfu1DrXnIGvgIwxFtOM0u/RYS9FoAsQ4EvAlPblawBAJBti/ALI98+FOYuELwD4Gs3H2uPim1CL75TdNbj4LzjFwP+d/7q//V9/8ZA1Pe3HpAr8ZjXcpNb/H3/HWe0H/5ddm9UMx6XjoNxNH/lIu/mmm9s+QC9G/Zub247bXmDO1Bs+fCx6pt+4Nh0QtY9eI/GgOXPv5c6zqo5wbX0lzMIbcE6gINWJx0pzbTQz+Jm/W5zStNOvVwEEzILd/j3m3P68oNeyM5KvhZ+nn78wTwKDSH/O2We1f/SP/1F73jXXnBJX3zn5d312PObkbxqyD//8M6wPP6n1f82TT83cu677zTff3P7g3/wb5tgfAqyYSsAXqz7D4JyI1qrTP+cmA3UYevAq2LmPYcZ9B+TT3Ssy6V6DYI0z8BOF3BlK2O49DNoZysIb5uQAOxpBS88/ciRKaz9NnHoi2YhfQCuwyj7Aty8/jwawP++cvYN4uvmO5Dt/X1TCNyP5//Af/h951fbCkzSqvwV4H/J4HFuAX/8c7mXU3Vda/+AP/i2r5e6rBAyng7y85TaHuy6YddVdSKNFn2Vgriy7ICec+yUG6qbz4ptDbkEmFDTK5Oe82Ln22GoxL6JZaccovVBekjhAFtTxEUyRA/BHU5SOSF8BgMegA/AswQ3YSezUnR6CHQf+vDahr9ceAfzpLhCVcQLY/0+Pe1w7/8LvaN/BXP7FDPZ906PO2ZSpvS3Ad49uDE6PdMDf9xf3tr998Bvtz/7s8+1ewO0U25e//CUwoGEt28sl02yMtGdKDVA6AAceszw2ZwAc4INc18rnuQr6zm6TXxPtWFuPrYy7sUY+L8wITa5nQDpLa11441EFKKuuLiBE3MJQt3xG8MpA6x1lYGlLPWjhA2zOy/154wzn7Hr8ECHfwhEsv/dRGRa0VyidV5GQ1u6++56UYZSffXgV1/3R34ySddPzTKrAb1ZDTGr9hy33YHtdvGd3FyReRFcdniPpgCsr4ma1xgVe4NhZca4AvQrAFTUCm2n3gB5E68+HXgy32oLDEFfUBbSmqeAY2Xz4IqkI3tPNwweDJhKbENElsKAWoghBnkRFSyBn8V60FDYdRWA0V2RK314vwD8J93FFnHQG8L/zEJzuW8MfvnfffXdXxNFO49IXHlZwxqXco7X6+lyTWv9hyz1Y84v37AlWDI9ni8BPg9p+Gk1cicq47rnkWnD7j7PvtQvsGYAfGi6yIU73XIxnIY1dbQAZQHPWukszGBW88PSk24+Nt8euS888fLQEoJWHeSCtQ25mr5dX7phdtwBGqgNjE8SdQJdfAA6gy7jr8vsevek6i0+GpDGvgPecw8Ix6cfqPfl+HhdoI8fzb/kfG8m+aXlveubfGYrWuJR7qEI/TOJJrf+w5R5sgkv2XIIY8576HGDTRe8SBGq5waMmNINtWmzCAnTCtPyZQjNf5tmDQtKKuYor/EU9iCj+ykMXah7GeJQSCKcY1andfPGmoE8iUqstTO7fNAgOWLvMIjraQvBawM4sC1RzFNjVAfbjxTgDEZBzLX7AzXVv3VNE8qewssyf03r1SSsXHGzkeMGYAP4jQwJ+XMq9kbZfnXdS6z9suVfX2esnXeJHYpbadqbVYnENDICDLBEcwE/RkQ+IAX1g6Rn0C/Rp4owtgyzg7IdrrcXpKvxFESS4+xFdMABf0jRtoZ27i3Y/SWfAEEsSgFrA3EIIiMOkFIGpEkHCjAZSsOlFevdM28VtMb1ATzrddAosN1x95wN1+Y2sgT4vu3jPKAXvjxxifT7/PvPZz4bKqD/jYimHtRTjUu5R230w36TWf9hyD9b7yU9+UoC6bdt2YQWwdOcD38JZB34m4OymJyyj8nrQ3oOwzJ8DfCGudS9cGWdy7sQr+HPavPBHuoCXBLrqSSL+vJAoBtiltRKQnP2CKTKjR6BFhoRGRySOH/Kaxrjq5ZsnxHEFdE/szFefRT5SRQn0HLgX7GGdQEAedaOiIBHxflnHy8985jMWa+RjXIAzrOCMS7lHbviBjJNa/2HLPVDt9l1PeUoAv307n8PqwF2WGrh0fr1wiV3Hqnt4PQ1Ql3TjxSNhsdHgLTjLvSgvxaGJFGtx9cVahz8RKzWx56UYq2455z304QWsc3cCzmV5uvjRIKaGuEex16XnWnqBrf180uqyczY8+bjIvCDITd+E87yFDClScG+OUBXdKJkF5/kZvDt4+KA6o/3pn/5pUoz6My7AGVZwxqXco7b7YL5Jrf+w5R6s93d/93cF8Dv8Go2gc7VcMAPoRElcd1Cj+Md1F+Sk49oPTvb4C6YCZmN7/Bmr2axxtnpJZj3+xLNKxvgFkjvAx9tyF3PbATVFyQ2kJV5EXIjjGzcCdPng0hDt9VK+lmOtTF9ue1SGQeTNF3VIKePlMQJQ3bsf5eKjbOgPHDrIizjE3fkndy2zGuViXIAzrOCMS7lHafOj5ZnU+g9b7sG6X/rUSwHyNJ+f2sFIOwAWcCQSwFrBQhMoESMVFIOoMjBS613z6gJVA7kK0NLp8Cfw62tVZIp2EH8dfYgHf+bln2oiC2/kZDlSGPrcvctuqNe68WqTGt7nntI7+mcoNIivQk5hrWtKzwjpEZkwUxZLFgflA5lGyXORvLH31MD5+oN8B3+JRTp33LUxwI/L4Newgz/jUm6f32Yck1r/Ycs92FaXXfq0fG9uB4B31F03XmzMIO8aPRGh9Q22tOr8K7z0+BOkplmLPwFMIGkxoEEQ9+LP/8RlpSz5zFv0QoSfCsta+j5DWXJyQgCSxbB0Td3DKIWNUiiwOnin9TevXYNFlINATmZO1W/RgS+KoSzIKXASVclIriZYaPux8K7Nv+POO4gf/RgX4AwrOONS7tFbfm3OSa3/sOVeW+vWLrv0Mvrj023nzl0ZbXchjb59+twC1EE1QSoMhL9KoAPsCv5ECwPexIspFUZ53oQToLEUVf1yeGmU6Q45rmXRMZEn8fXyTLGMpTa80vSEvDfQY2VATuCHnTgnxr5HBgdCOLUwkLylidJVtziQsgLqhxl+zJfUJHChzn6+jGtf/vbbNwj4T4zHPPxHnjHcPPwLxqTcedyb8DOp9R+23INNdfnlAB5Xfic7wfiWW9AiqEmY7nHkn2txQ1gwxMUK/kxHuJEngr8O7DVabyaJhRs41Sx7gEX78AI3ATDwSiY48PAxo70JBxHsG+jKW4gkBLQQgGbcEsBr+n4UX3eiX8QfXlUlaNkV0F2RY80pWjb78f4dPLCfWbzFdtsdW4Cvdpvs32GBMy4Kb9hyDz6lAJ7PTu3ke/F+gkpZDz4Qdu21MM8Vsg+aggYvjNHSF/6kqktv3uqbB3oilrSZ8eIcNaIFFa8Z8GOmTaJ62+VCdLgEoxft2Q02KVDAXYlk49tzU67FywEhixLi0VXcW+A4DJXEglEK86R/T+JKr/bq+iG4NM7LC3cBXy/sAHwS6qo4en9wvy49Fv6O2zu6o50mVXDGpdyjtfr6XMMCZ1zqP2y5B2t+xWWXZ1OIHTt2Zh18jKbyj6yLKiEtXgT0sfGXGfhl0j2eDICSOaM8pOafJrQG2jGq4CzwJWo1/vKZapNTEqhYgDoC505DLBBeb90IauLNwLnW8XrPDQqjoswpE4uUZPoG6Le+gNBIXNl5U2S+vluHf+DAgbj2t91+G7lGP35oTFzjfzWkSz8u5R695dfmnNT6D1vutbVu7YrLr+j68DsBg2+4If+OdWnYIv9+awKIgi1xgrXjulRBMBFFUJYd0xsgaxYzEEcGafSp4yl0llxipokpDgDNJf70oAl155m45KKVQDWE/e7g34KRWYJ5uR53oe9X2Pcop6DOpQg6Z6XTXCkW9CRpQUzvAEO0GrRVFLocDvTF5jM6f2i/C28W2t7bN2bhxwU4wwrOuJRbadiMY1LrP2y5B9vqissvD+B3beerObw0o9T7W/IvKoU1ocGamDOFK+ZIJea6eL3ldfgDwYssfxVPmXbjrDWPR16wkpMsMNSomOAvjn8BXuCZu1+1Ewb2qdE46h8z1jlF5E5iaii0lsDnXxLJgHz2P/BeKEwpjH5hQP9Cfq3mW6Ft5SRg333/wQO49Evt9ttuM3DkY1yAM6zgjEu5R274gYyTWv9hyz1Q7XYlFt7puB27GLQDzA7gaTwz/iV+AvAIPqK/gr/0vcWPHu8g/mIg4QTGCn+oiA74UMjhIjhXypYJXcGf6iaWf2V/eF2OAq5r5/1opVonBXSBPAjurbvqJ1MBglTrjBZSiegyiP1eOei+GOM53QIVALEpjNcqC4hGG1FQPo9JH/4AwN+y8PX4Jv93WOCMi8IbttyDT+ryK67AsLPvG9Nyjtnlrbggo5f/wo1GVlRocGv0HiivwR+Zgz/NbOVdgz/Md/AH7rKmhXPwlbQ9/hwx0BjDy7flan/48KwfGBJHGcp6x603ccIgrDKAoPGcKrH3uVZ7WUPjElDp7MVPCek4NtFQppliPtJltWSIhT+AhXd3m60+PE1yBhzDAudMAXz68HyqaucOp+XAht+pYX925V9ZzzknQKkbT0jBisD6T1iPvxU4mWYFf2bqyEEDRJOw8IcNLgwTHVVBd3xgf3gAR2YJei63Xq0jbonTEnfx1Q/pi06apDaP/CXgYIOhHP5Q4eprYOuhVRaeSjLVkDX80seqm0ML73TD3tu2+vA236Qfj1TAX3kFo/S69ALeb0tz6GiX/AOLgM2pNuKQf41n4Q+sBH961w+DP3DVmcnQJEuOnDMOUPgruxtU1sC7L8+IyVq0b3K5wTyDcp02IoEx6a9HAxCgKw9E5erAAAHJmwoZLYjJlIUAXZwBmRckr+t/l9+tJz7/6LsfYGmtu9vs3eAo/Q+PySj9bw05Sj8u5eZhbsoxqfUfttyDjWUfXqDvZFpOC+9IfS2KqWm4/htzwZqQC+hFmTfir7AjLog6Nv4kbeIOY6uNb+HPkkkgTPpBOwmW5y+e9QzkIqO452Ywj1kJ1NEwtQCWaJ1LS7mUNi6H4DaPfDjXDXkpXA1coC5SKen4xzwA8+8O2rnE9tYtwNNok38MC5xxUXjDlnvwSV1xxZX5PNWunUzLOfimAUXeS/4La2VUC2egDkSVRS/8CRlCzBSsFQfxR8wa/K0eHLdzsBBj3eGPe3Po1gvs7A+fxTIzTAkQJjH/F1nvuSbC6YJoITWCRMI40R1JGJjW2OJAGsMcOPClAePMpw5aKXAcBn4W6d+7scVBlta6ln7v3r1FfMTfSe0Ljku5R2z2ddkeqS79VQDe3WF27uR9eFx7PjJN24gh18YPyL/YykI303BwMk3GyLhdZJyr3jilOxwrKSY7kCV5UBcOCeVHSjWwXvhTidiZzgcwTBT9woUaYlGAc1XQlHvYpxCiWWL2yb2oVUL2xTXXiaAwjszbJ5dapXVqQn3Sl9PuwUzQ7uwj4YDctfSHALzfs9+7d6sPT7NM/PHIBTx9+BmX1rrwBoMHJmIAxQ2HuM1iNgCxjDa8Yu35Cv64KZgFN+YX6LH5sf6kDyG/GwnWAFvIc7EyrUcexsTyZh5o5PXY2h/eboaJl/eH516tIIoD1LwJVwrBQujK8588EPEiqVJcrqkcTIR9+vkWlH+lVKpgMquio1a6SmnZ9/PFmyV2rdl7216JjnyMi6WcVIEfueEHMk5q/Yct90C125VMy80A+B2spc/XaMFAcNLhJQYTRIibWHwwJJZKEejKD+APIxwcClpxajy5a/BP7oA6RtdUPf5c34o57fAnCmPhyUvyLkNg7DpfyEk5aFSTmMos6qOuNEQX8imgbgnpjVNFVBTXVUpIFejVUo4+mjLaKswpltMJpD3I0lq3od4apadtz4BjWOBMqqIefFRXXsmgHa58Bu3c9LEbjQ+4SVz44A75D4BFhCgHF/q8MYZGJGXhT+wE2AJaYBEt2iQQ/EmjS0NC70I7JEObEHeecdotjDpTKxEGzCUbeJsrb/BkpLGu67t3aiIZY8uZY1xadH9qLbZgTjmgBA2Uh+c6zCMNqRO2fCYdFv7gwf2cl9qn997apR/tNKmDP+NS7tFafX2uYQe/xqX+w5Z7sOZXXXkVnrzvw+8ASEzIBdldKjBS8o/4A5Rj4094c/T463CUwTwm+YS0FjUDgYwBsN4298GUugE8izuNd86SOtb+8M67M5se10Goxn0IQM0VGFclBHfnBRgdlWI5OnVhWgum9vLKb2tNLVQlBb4p1S56GCoZX491Y4pb995G3OjHpArOuJR79JZfm3NY4IxL/Yct99pat3b1FVfhyk+1nbt2AQH78Mq/I+j8Rv4Baif/nuy3izKRJST0dtfhT5x5QIvcwaR5+j66WUOT8+ru9DL+JL16f/giV6SCU8kmcwEfauRQO9V9+v0UTCCv7lMsOaqYzghADtGqQdE0tYFl4cuNgQhB9uEPYOEXGK3fu1EL/8nx+ADGb/394T6A8cNjUm4e0KYck1r/Ycs92FhXa+FZU7udaTnX0cdKK/qBaYFbDzfyD+I9ByodlI+LPylhPFUMkkWHhLIYdbovXXDoyim4lZd/tT982W9RV3Pk5cyXBqq4TBFQigKoRbV4qUG0iuH+y1gALkQqIztcdl0We/6m9+WaVCxZzeGwAjdolkXfljtwiIU3uvSftqgjH+MCnGEFZ1zKPXLDD2Sc1PoPW+6BarcrAfwMffcdO1hLzzmT8Npd5F8QlhuvRff+YfAHflQWNUVXGBOnwV8XB/QMgsoq/IEnedhlOPr+8IGeBVsBZF7VC2bpH7gWV7dD6miQzMvDpZ+882pwf2pH+QvopK8iWlPLDxnodOrJPrtVdo/5gwcfYlqOUfpbbxtsw6HuxwU4wwrOuJR7qMZ+mMSTWv9hyz3YBFddycIb5uEFvP13xT0/QmxA/nsvWpScKP76sS/fc68xswH8dQYYVhw9/ijHbnaeMcBvw0vEAba8mB/mfXIxbolLs9SVi/FdrKNe0aWPzgG4knNAgYLg2ucd3V6BhQI/HtTShkglAbwLEsB5fdOOlXYbtfD/dExc4w8P6dKPS7nrIW38d1LrP2y5B1tKl36K9+B9H34K1z62GaAUojr5D1oKTWvx16WKZiAPSY6Hv7zdGi4aZXr/ehKsdtO1D3RhKacapbcYsbieY9IJKaZJRFJCk8F5+hkByr2H57gOxFqo5ZV0RNS6eik4WMe4PgpFbWTlHDmUTr7dpXIgjW/JHcDCl0t/q9lGPsYFOMMKzriUe+SGH8g4qfUfttwD1W5Pv/JqRt2m2i5demRd8LlplNa8l/9p5F93XrN3fPyJIw0j+IOIZMhkSP0SHnCDM0PEYhbwcPaf28Gt2h8eYlDQEOtv1Ew7yQhz7M1C6jp4FGBzARnuVRRhAXNLEa1EmMG5lXHseO4pD/cQ1aMgUV/0bDVFAzgt5+Ddpz99a9KP+jMuwBlWcMal3KO2+2C+Sa3/sOUerPfVV12NS8+0HCvt/Hajo/SCWvlfQP7zUVjuS/6JOw7+7DoLqXLfvRCv5A7+IM298Dsm/hJJdP8BjEpcBJOv68vHaodU+eWm06Lbhy8LLoDlQ+H1DnqkF/vKGRcflx0SNf9I4bX0pPUXCoDcqvO2HK/HCvhbb/10Ykb9GRfgDCs441LuUdt9MN+k1n/Ycg/W++qrr8oKux2M0s9O8S48Mp7tpgCBg+ECtMdKD3vBEINqDAn8dyz82f2WTlly6a3gLxiVfCiIObvYhT9c+lX7wxPsQFvpjrLAXls6gWkBZGRhynEwSkbEENU5Jx2IC8o1CFExpukrwlUqXXpL2vQ5APohP2LJKP2ntgDvg5j4Y1jgjIvCG7bcgw/q6Vh4V9rt2MXSWqblsvCGRBpkZT1oARDxpmOlq1u7gj/TeBwdf91avKPiz1y9KS0jDP7gJbRZeMP+8IBYlGqgfaklNwToRhTblDIJSltQUApZUwVUwLxyWT4sPDRhItT1BIobYVyUkjCPvEgba0/M/GJ76JALb7DwWy79cmtO8sWwwDlTAH/V1bj0YGQXn7iqjSMFSS//nZXPg8WwrsFf/7TFX6mGhASWroHRWnf4wysWeMfFX0/ArkSW1oYEQAwwO/SGloQdtZdoaQiZySXDeFRo7f7wxHbgTWclNCyRF1a2XPle60ir36xCkFu9g3y1doEP+H1qg4B/4ZiM0v/mkKP041LuyMgm/Exq/Yct92BT6dLPsDJmh9+0AwIM1Qdfy663IFf+s57Os/gzSPwFcMHYsfEnDk3ql6SZLetQv4y/dK+Jj+HFbPf4c+cZGQSTApmEGTlMgOFoBcLyJo7lIY2ugAxW+u6SIK0l5qxVl5WV8NJCRJkYxnRBpuMsrxXr0rkJRTaiyDx8Y9DuU8SNfowLcIYVnHEp9+gtvzbnpNZ/2HKvrXVrT7/q6bj0rqXfmb68y2v98/NtWn7hJZoCkIINSDCNr5XXtBq3HXY2CX/icI+vxwK8YgLoNOeZW+/ASJy4rNFAXQqLSYEFN7kssGC3sIbF8qMkyo0n3DDi+/2pU8HQMyvKISTYH548fqb6AC79wjwr7TYI+El1Dcel3DydTTkeqS791U+/GsPGPHz31VrX0PtNO+VfsHcGGTxxEyMryHv8cd1hqx/g6/G2UfxlbzlYWow84LgGUNXBzjUx1ZdY3e9Q8zhVJ+QFt4tjVUdUyOk2ahOHRU3Gv/7NuLqzglEP0V4yNY0v4Lg/vNtFuxHFH3/q0ynPqD/jApxJFfhR230w36TWf9hyD9b7e+jD+8Ubt5pyf3jhAeYj62vlv1BR+NM4QgnwrODPW/E4Iv7AlWvwxJg80oePi+5tZ7Tzockk6gI6IDtgoEtuf8B+uLE5OnWlhspndSi0QWonShqAm866uD98PobJTbk4JISW6Xwn3q2m3B/+U5+61SwjH1uAH7npNjXjsMCZ1Oc22GhPB/DTrLTbsV2X3lF68YCVpx/sIjQttWYvKAInMYHBC1fiIfiTKtej4I+c5a1zAV/RFy67uy/exL3uAJv3a2FUxfBsr5wMZMwdaJZG7U9Nnx8F4Koha2EeD8vO/1QkgI5S6CrGtctu+3RqB/s2rq094DftmJb74w269OPSFx62Lzgu5c7D2YSfSa3/sOUebKrvubrvw6/aHx5oBNjKv6D2PjBIRNx7DaZjXmWTTdLjDzwFfzV+pgIZCX/ZW47SClDJwyvHamsddAe9xcwEtXrOwsUDIR9gJ7P/ulqoYkxJiBN8ycWVIf5i7VUwURIGcs2fX611f/g//tSnkmbUn3EBzrCCMy7lHrXdB/NNav2HLfdgvb/n6QCeBTd+xHLd/vBHkf/1+BNjsaHgqXBWg+cF0IyRibUTxp8AxuBm4Q0ZvRX1XulupFceemgYXPnp9M115U3WW3iga5oAm0yWmrQuG7SwAr7ck0pTi26Eu/pLzeVARcrBHf+w8v3+8H+0QQv/+s/+bfurrx2xVqf1GFZwtgB/+r9j8LjHzLW3PfmbNiQ3ATz7w/tNO9+Ld8iuX3RW/nLJv8ALVOQmtjSHhOUdE7ElToI/dq0BTz3+TFsfviDfAP7Mbbplg5u0YlHAL+8Prw02Ruur+y5jgWlo92t0d21YbHdFEaFrjy1PocgL4l1Ka3Lte5QC2iH7w8M4FSG99t7S5R5X/oDvw2Phr//169v5559P/GjHhx/Y3z7N3+k+tgA/3AdAxkHhXX3ervZP+Rv1uP/++9t1P3JdgL5uf3hw4fvpq+U/U96xfHAM/oREbdRiSlHiIYiFm8cy/nJFmgH8uWdjB+U1+MsofSjah3YwLiSLnIN0apx8TYPc6U/IHa4yLk3ltRa/KwpuerSQRA1Kv0NbThWJmEaRmD5jh6Y1Hb9L7pZJEbK3HBdvevOb2uWXXU7caMcXvzHffuFPvz5a5k3MtQX4yQP8z373o9sTHuX699GO2++4vb3pjW9C1mseHp+ekXplHd/2aPIfCBwLf0xZd4ZUz1lsQSi46exp6NqNNipx8ErXOpAEtdz3+GNp7ar94QEdkASkoZhMtcLOUC3xDMzJrPVmuF3X3uk0XRCtee1PLeBlJ7BRCkSUpbe69ksslrRMw7UNYBroLrHF1CGm5Vxp94If+uH2whe+kLSjH6/5k6+3rz3oBn6n7/jQkCvtXjQmKwQ3q8Umrf6POWe2veupj95Q9X/zwx9uH/mtD2fhzdH3hx+Qf01xgFzjXRkDAzyiTk/bTjDI6/AnpkCQ77oL01X4E2jVbQBZUSymBYkCj7SeAvioDQAnzqFFKJoIK7uIZtJVWAawVr4rWLQV6Wt/6kDXnEnvIp7yFVAIoUvCFN5CFuBj2WXIoXMhcxfeHDpypB3m76Lv/M72rl/91cSP+nPLlw623/nP+0bNvin5Jk3gN6XSq4hMWv1/8O+d3Z757XxpdgPHT7z6J9p/+sIX2uzctja3fS5Ay/7wIO5o8r+CP80khxZ9GX8aUAPBikZyGX9gbBl/ZDEJx+r94WPzB/C3/HqsUK/3dC0UdwIQMjNyE/T0vy0MioVwCxH9E+ucOXmTkdbkPdj1CtRO3qOfUtnq5xdtQV6Le7jHqrPAjpm5hXaYuXg/c/XpW28l18aOnznNg3eTJvAba+31uSep/g7W/eIGB+tsgauvuor++ywfv+BNOc6upV/CeNarrOAmXVnQrxsuiMGHqCr8leVewR/pwMbR8Jd8mO9j4g/cZspcbOsvyCv7w/M9azWHU3FRFQG1lxYkEQFz0oD6/o26lfTWiD/KFuWAhzDl2ngyEMphxehFLO+PjQLJ+AD08U8W/Z62SkWtxtnFNwsA/61veUu77PLR+/Fy/qsDC+2f05efV5uchuND3ztcH/ZF//70j1JvZjNNSv1nZ6faW+i7P26n60dHP+64/fb2hn/+xrw4s5Nlte4ce7T94fOOivjCui7GFRd/8PWn/h8Vf0AJHCVhl5483h4Tf4lcxl8sfHICtrzG1zELWL0W71p7+gKiV+2k1gCx4FuVoBZJVFopSkIwd32I6BCAr02v/rz5HMCze1D9EuNcdEMJUGaM1DMXP095nvG939te9/rXh+5Gfu746qF2458/uBESI+edFIEfuYLHyTgp9b/2onPaZY9l48cNHm9/+9vaJz/x79ssq+y2u1W0xo9pOQ8/MZVVpsp5J/8xfIJcA0kyscx/cEc+wLMefyTV8pIo9pULvQFCVg4I6V2HDqGuaK2+PjT7lXbRGlInaxjBOUP7EgPR8gjhlMBSdY46EU7FEctfsekLUkmlSfoUkmsUgXldf1/f+LJgFEgFAdhdfLNAH/7gkYP5Hti//Xf/jvwbPz7+5YPtd09Df35SBH7jLXx0CpNQ/+fQb3/Wt22s397X/vu+7/uyXdq27dvbzJzufC2rdaQ+3dd18g+ozRykD+JPd138FXwcMM8YAOfCnxFmFYuiKOP4y4rAODVGzG3wR3I3kyw2lUlrHY9BAtCtgbsUKXWyAJbQBTcSM3P13U1fVn/t/tRJbuIQdkTeQksnvAznv4R8J559MBkJZIltvnyz0P7Z617XnvmsZ4X3Rn+09L8F6E+le//BIV36F59hLv041183/ocB+2ZYdmXz4x//ePuld7wjFt1v2c24hl6ga62R91rbvlb+BaOQwmxy1WFCPHThR8cfqaXX4a9wWPgT3vEiNNKS8ZCe6flb2R/evanCmGT8x9AuZ8hOMlplEjjMr7UO8ItSgJ7UPYcubwboyJXJBsJgR7Ky6FbP/6bRg1iUvxYepSHwXVO/OD/fHv/4x7cbPvjBlHszfr5Cn/49//nB9pWvnZrpunEW+M1oz+PRGNf6n/uY2fbKv3dOO3eDffbV9X/ptS9uDzzwl7jzrLDbviNvy+nN5wvNyL7mMF+s5brkH7kPJLgbCX/FPWNpwVZXmlX4g0NwV10FsOYHMGQa/UJCdFEP0QI1WqS0kCD3imKTPq+zQj/uPIWtPrlaR6b2IVxea17yEJh+BDFqMw+1UCkPrrnPjhxekNb94f0Yxv5Y+cX2K+/+lcYOOWbbtOMWXPxP/reD7ev7Ti7wx1XgN60hj0No3Or/6LNn2/eft3PTrHpf/bvvvrv9xKtfDTb8jt3ONidIYuFrENCPvsQAFkA6+VcBYOAgMir+XKU3tRp/EsOj6PEHaAuzwTVR2R9eUKuJAGMG7hxASCGsjgrAk5rCO/5xUUrCPKooIhhdN44L/tVZtqlOpyhkbd+jootDN2GXIK27H+ebwqWfd05ewGPt/+55j2833ngjtDf/uJ+FOXd99XD7C9bdf+UkrL0fN4Hf/BZ8eIrjUP9zmW77Dv4ufey2dj4La07Gce21L25/+cB/AeO1vZSu/CxTclmBivwr4IPyH4sfdIEc4sXf6n0fQArHMPgzR/zwnHv8aaglbllq99hEA2u1hTjs3O6gUJByoTVOxprR66y/MaVBOh2Ve/N7CPyiBw2BnsLozlScyiBfxDEGhRFthLJZXJrPZ6sXGLl3v3hB/7rXvb49a5P68rAb2+OR3ocf2wfzMAWz7/72t709a+d3Zi85jTszVVp4MKDA1yfiyhgWEsRAecukAAkd/sKnA23Ac2L4K+URxHX4ldB6/NUHMAJqo01T4Cw2q6y11tcBCGHMtdMJSatyAMzTU77No/vS5ZQYl1EHapjlw0CKx+Cdo/6lCMzDoYojU0bqsfC+RHPw0CHG8ObbWXwb7Lc/9rF29tlnJ+mZ+nPtGTZod+OQg5aT9lz37dvXfvA5z2E/hX1sPLGNqbhtYGE2H78QLXr2TmOvgQCYWS//ZTo3hr/6/n0MZ1nVwl9nYrnRpb8YuGprBVtUEWeBqCXWqhcOC7IFzPTlscj51jYJohbiNpjNvFKSKgNx9hW4ypQEgNZlqWk+cukJ6FUQL//exfG1v0U+WW0/3hV3B/OO/GK79NLL2i+87RcnTSaGKu8W4IdqrtOe+Gdf/zPtzjvviEV3oM6v3Pi12hk3n2Ccym/Sx5UOkBiXBg41dgVIwIpd4kKQ2No8/JUfDb6iaVbwN7X7okvAWQXIUujJ2EJUgerOPnvQr3aikKYKxk3Gdd+nN41ATheA8kszYeQQ+qbO9ABA18Kn8j1/PQfS+VZdQM/g3cI8bwvxd+hIbSP98le+oj3n2c8JpTPxZwvwk/NUf/djv9ve9573ZiXdHPPu2xidn+Yd+Cmm+7KPm2tqc5RJLfnnGnzo4q+Tf9JuOv4CQNFc+MvCmxpNlxvA7/4JvbLA5brX0L9wtdhm77QGdSqrXh5B+iJdmqy2o2Ir+1OTRusNhVIWpd1W+NsQgh2Fwvph35pzFxr78kcOHWQgjyE9rP6NH/rght6Vh/3YHluAH9tHs6ZgvvP+4he+OPPsM3Mzbfvc9gzSKfoBvecYSeQfg+aQdtCzRv41rOBBlx88nSz8ZQ1Ax595eD5TDS9hrA5YfufW6tEnp6y44Sy957rfjVLLrysu0Jf3pzavS2VDCZKAtlSDGkFFogIhGqQnewqA2kijrOUf915r70Ah1n2eQTyBf+AQn7/ifNbZu9p73v2edv4TnmApz6hja9Bu/B/n/V/8Ynvlq17V9j30UMODb9v5UKUvyzBOhzuPhQ/SdeuV+uHlP5iwGUbBH7gUYMfCX62lB78NUDv4Zv88H6S0oGaUL5e+Need/wrIuiSoCPKI2dqfWh2mMqDfoibjnXkHJ/oKFNCJJn01hTn56/irRNSE8SYAvCP3/mnhl3j5ZQEX/yCWntG8tuusc9q73/PuMw70WxYekRjj4wHA/qpXvhKw78/wlF+lnRHpgHwG0NN9Bx81HefKuix7Vcw5jif/pwJ/GaUPSMvHplQ43AI/KOyBKRDrUCGs7E9dWM1vFAWUePut1y792l8rWp/mVVVQezwBVx8dbX/s6t/o0lOC/EEPq+7LNI7aez7iKjzizjrrrPYv3/Oedt4ZZOm3AN8J2hieBPsrXvXKdmDfQziqU1h2VtM5QEdfXQs/6wCdE1VAvhbaCPjyaE9U/k82/sqlp4gBaSytQBOUFJt7+9cJdsQ91rjuBbmKK3PzgK/rhXDf9e2JqzQqi0priOBP1yGgDwWD1/M3kP66SmORKTqG7bHwWPtM17EoB0tvf/7sc86Oe3+mgH4L8D748TsE+ysB+74H9wXk27dvy2i8QHeRjevms6ZEj1o0gJsNyb8GFFxtOv6W94cHiBh2y8iBVsLSB+iAv7sitLP7AXX14UspmI8K6h0kVf9b5LL8Fip49yTJD8C3QfyrtNRtLX/TqyggqUsPtrH0AN6BPO+x+ocO6977f7H9+I+/sj2b+dBJP7YAP35P8GO/+zt4ku/tAK1lr7n2KSz7rEBnwbxLaqcAgy/KKNYl2RuQ/5OFvydmf3gbOUiPBa7i9uBVW2m1AVYHdO8XtOrWCuDWKL25+mpWeKJ18XVxSB8O5K0rUgtWNFlpQ/lBg0RqSL+AY3rzgnTua7QerCeuRuwX2+HDh1EG8EAj+LGM1zMveg5Wf1KPa//ozPoAxo3/+3AfABmn5/Yg1vxtrPu4447b46IjqG37NubaEXxBLtj95nwwbhdVWUXoCwf1my6uMcPKf+dRx3cO7jYHf+v2h8+rrRRZJ1xnXMsaQHK2fz3DgFz61tRN66rnEuPOLXWyvvwUyA3Q1Re6CbdBvCaDht5GCOp1LWwo6PX8DciUhXxtrJxZzccndLX4uvd+DkuwH+H9ea2+ac5hJd4rfvwVLMP9B5Zk4o4twI/HI/v4H368vfe972kPspJO+RfYc77fzih8PmrhAhtBjjvvqLxhkeFOkMtQbVz+lekQzslB8o3hrxu0E4YAUfPar6DhUtj7QXzHIYw3KstqickwntaZz1Pl1VZAnPm+DPiRTvTmIDylFvICX4+AuK7/UE3S8yeJ2UovLPNPX0b+seQAHbC7O41ehh/Cm898PXP180c6xdDaEy44v73iFa/gLbuLU4pJ+XnJGWbhb5gwC3/33X/W3vsv39ucetOYKYzb5vgQJRbdAToBXn12JJnReYbqkP+S4hg/0ovRzZJ/x7sKDiAwEApSCQMoo+DP12PXuOSddS6QSlzNxWRZ+t5WpbvXSgfA9uVdMFNwFrGqAzLxZ/ouPG5JbHbmJ+M5VNMsVyT5HMxDxTitV2pAfvjx8gfg6cujhvoFObry9uuXYu0b1v5w3HtJW3rn6n/gB57dnvUPNucjGqnQSfz5uc//7Ul5a+8kFvmYpH1L7ecv2dgOLsckvskRH//DP2y/93u/B9DvQ970S5F8wO2XZzlhwXXfAZ9nVtJ55gdJN5K0yptW/iTIf5RH8Ad5UU83OV4yZbQEw+CPpbUXU06HvaiAFjPIrQpLTth4yCeNwK1QhCt/nZYBnMW40pi4XozhXi0E3Wxm0eUTpL6GKz2Nfc8/3sMq/kWtSlE84UNeQZ+/RVx5rgV7AV/Lzx/8DvfAh6d8dp1zTrucPr6bW2z0w5ipxkn6+Vd/ub/t5e9MOK58/K72Q/yN63E7H5z0o5N33nFbe/BB2xxhipxj1bfNIbu9u17W3L67bryW3jfhMrbFfbqmAX7J2kmRf3EE3lQsG8FfPoABjVRWeGf0HNDVAF1CAhgh3f0vFUAmIa8HkP3h1Qi68yzgMQHNESWhDqnFB2olgG4yCl+DGNJP8vxaJfEun1rVJ4dqxPDPHTSg4xt1egHO2C2wEk/Aa/UJQQFAxDQUZJ7+fRRMlRoK2v2ptmf3Rbj7l+ABnNfOPfdxnM8P9dP9cz875rz9M6d/x5zNaIfXPeXR7fwN7OCyGWXoadz/xfvbV77yV1jw+5sfq7jnnruJKvlLGi7th8/NAnTFThkVzIDbFXON6Tf76gV483kdE4jMK9uEdfKvDMdkGrQs/yWvo8s/hYKwnIWIP8Phr/jX67FxyVcAqiax1s7HZ3rO/jZutS8EZADNOPLIMIe18L8goxECWiL6roKNZwktrvvDOzCnphLgpUgsjOn546fvn9R6ADJ0/KM44CEdgW1rBvwBuoSdtiMM8Oflm/T5TY8Coc/vyL4eRXVFUnJJWHB/uoCBe3Onfj5U6h1qqWyl97fLLpkXvfjF7YUvetFK3AhXr/0PX29fP8075oxQ7DVZHs2HJt75XRvcweVDH2of5L2JejbKiABb1dg9x1VBeVR5lpWykvhsK1HJmRLkPw5keYYBOAfllFP/gfHunjhFP1NuLQtrkoY8CrCgroOz/xGmNfLfm+NNk38H7BBg+GeVa8e95PPE+AN4P2Ip2AWhjVRaS+upJRZaVi0DZ2i4pCAHl4CIeBCUj93rWzsFF3BSEtuXQwpCzCt55N4HJ/K6KMMG+fuSzWr+acyev1nJq3WPlZcRNw4xGlZv2nEf4FuUcvlTJOsIf5fpqgT6clqWeCAplAT7owRl5a6rAwF9TM7dz0UMEr773e/uk490/iSf3/rY/316d8wZqeCrMj37fzu7/f0Nfgn21a96dbvn7s9DVUGpIzLE8/NY0/4GIF8xUl5zVLxpveLwGXPy5Ra/TBPwJlgXnXBiddejBJR9rnNrv12B46ZfLqv8hxc8N0f+IR/8WVrx9jDyvxH8rd4fPmC3HWyETluppAwoa+tLNKXXhFdQx4kmCmCThsJkkEEigh+wC2hwaEDSxqpz5y42jnCGhT+mOyp/FALxoSt9rhdQGNJV4UlXB35BpRPAO11HWAAP2A323sRce28O6XjmJCXCVTxeS5J7rxPJRc7mSSzlLODrYVT9GTA87PbUU+3W2/ZKYUPHGz7H4N3XT/9216NU4txHz7W3Pmnjg3VXXnlF2n+OgbMctnnX/gI/T4qTT8R7n6syUQ8tgbmOnISAz8pnbA68TcN8eNxnWs3cWUTjPekA+CznKAHjtOqRaWnIDDqcVsu/vOJGSntZ/vVZSchfjwijR5Z/8maMTF6pMwGpf9UrOJHBUfhj4Rm0I6PFqYayUuImRSfcotojxxpSXNu7XuCXF6nkCeGiIJWqUhqEOcNQ6tNYqJ6ygEqTd8Ah5VH5A+z6WL/WGNrQ8gManosWv4arES1rRvNZhptrStUt2mEsj8O0Ki3DTe+52Foa62Y9fJar62+dSmURaxp/Qo20aWj5L2WGQAo///NvbU/b4I45fl33zbj2p/KT2qnUBn/89PMbceU3+jXYOxlM+7mf+zmbk5FytmziieTmKO1fgq3sefhseLaeern0Os+wnnFMVhcmsLPOhLP9deU5fXOtOmY8zxc5dddXUoSVL4TJJvInHeWPu/rzeoX/0eQf+93Jn/hYLf/ckrfwV5jSE14t/9braPgrOpbh4flnf/gU2ApJjcKX9vLezB4SEgrdtY2EgNtfsXCCxdi6Jz+FDqi6dlC/BZTpB0DJRuobhdSD/MlMGVb4F+f6lZcEij+X9WShYdeCex5GQI18uA5fKz/lPD2R1ksvPmVVEVAKy9pJh4Xqrj31/E3lYaHDncviL+vUU0rwP8w6AAvxjGc8o/3061+XXBv5uZPv6P/mF07PjjmjlvuFTzynPW0TdnB5Bzu4fOKWT9DUUyx4YSDN9ud/nsZA+1eoMuNz8ekWiPLIqEhCCM9rq5zjniMLXEQWs9IEWRVi9YUaGNE9NRySHZkOFzZMx39Z/k0T+RMPpkN2lLdV8p+uLvx85Vslslr+MzZEWILNZD0ZMxvEn6wjgav4J88J8O/xl1F6CVkAqxywp4kU+LLsNRBhc5AG4ra6Ra4NJbwOx0Rp6ULJljIRB3Wk6RxQc2SzHofNaT+lCCYVPxvgn1JAO/xtPBqX6zQt54CeG+sQz18BgD9RdXhNbOXwXICvMQrT8hdqZqiraGKrSZzt58o/F//4Ft9HP/rbvLe/8SW+n2QH3I/9P5PRn3/2/0q/fYM7r/owHmJ12/Oe91zO+wE7MsgCF61iWj0gWtv+CC2PJFJo9jxDn1YdpOUSyeIfVERIUCxN8th5597r6rD7dA2TnmmQW4AqkE9U/lMc+Ue2yAUt5V/Q9fvDr5f/Tq66Ylva6j5ryHr5W48/sWXt7EbkUvnnwtIO8l+wDv3+8NVmaJWuspSPdrCKsOY8IzhRABlhh+JiNCCNCYNe8FVp5QLZ3FhQGWtx85BsyCqDSqUARADX9R6wl6v4+1z4J/AcFLHBwp/09fksK3h0/qQMrTQhZXUNgBaYrOmY9H35NAgNlQ9t9GmgmYTL/Kv+pZyoi9H89FMxUQww1F+wiQ7zQo/jBT/1U69tz3jm5iz2uQtL/xEG8Y6wqnAcjznc+BcwSHfpJlh26/eJW9jB5V/8Ulzsbbyo4pw349PEIAW0fwyNU2EDzz8WUXkyxudKjpKVPNyAIP130ijn5rdfHlOstSeHiiUCTbD9+pJ/5c8uJb/yVxSPwn+N/K/i38u/MAgsiRMc/hOoKwPdxhZ4LXyVSACv51+r+yCDrCnXYm01f+l6WP+ev0mWXXqBakaTZacMOr35Sm1n+YQ+2fnzsBkoBOlr7bthkOPeJlJ7hT/3yWKhjKEQFiBW0+rA0CR9QQf5L+9PH2rFH91D+uLvs+rX3htcjUS54WVJYUtd+KEu8negT/7CMw0fOiYkjHTL/M1vXDGDrE0v/3AxA3/UUdIRGMHuH+v6Dx8CmIvtWx/7Le0jH/0o6TbnsE//PkB/Mr6dv5ESupru5YB9o3321WV4/jXXtP/+13/NirY5XlaZo6m1jKbQoHiu9l95/oZxEKylHpQ/u38lfxqnTu4gVLR8qtAVZ8T5lL3RwCn//ch58ezyRG6w/tA9mvy5iK3K0ctVlTeGLvKveQjD1ET5K/zJn7TwX7M/vGVKSul5aSqU4Cr+fRLx566N8rfWEdJV9e/W0htFQmtNZI0eykLLTqZO+MWKcXGVO42YQTKAZOOtjHIXINNoFh7aAixuNiULGLnv+8lq1mX+XIe/9I7FnxjBmEqhvkJnFf++soK2wO8Zvt0DlV+VlVL5ALhXia2vv/W1TQQ/KeCZj3/QRo7ghg75nfaz3ZwS9MWeQ3xl14VB7/zlX267d+/Os9isH6fs/uj/Pdi+dprn6R/DPPv/+Xd3bppV79vn7nvuaf/sNT+JG8+baXyafI6vvwYMtLdtXu1Pcw/KHwSUl4DK54t0lNIu+Svf0Wel3HhID9WgV0qowNCS+hztyOqGjyp/oScf5CZTdspW7pXyTm45K7fL/Hv5o2Ql/8fnL5/V+PPjr5CVcsq+mn+Pv7wtt2hfnQrCPxlsDiFgH1dtY3YrD60oDK2a1s3DsPx2zASOYJRWzqFEYng0vl3fh2VkXxo0+hr+pQ06jklAHvN3nLyMVe2BejT+PEQtruVYxX/Jb+enxMT5oHm4xd+HziG78OqTVa1lbdJ+mXA/JVJtIC3ira8PjW/oHzh4KMt9v+Vbv7XddPNNUt704wFW5P3J/zjc7j1JO+YcrcBa8wv5e+rf2dbOO0kr6GLdv/pVxG667dyxoz4s4Zy5AM7zVPHWU6znRRQPyH/1aEv+luOIznMW5r6TIagTKbi97eWPawd3luWP+54ID1oDYSkMOqb8Ja/818uf42HKX+LESOQPeifAf1D+C3+W7xOKMwAAD7dJREFURvn04FchPQr/SmOhC3/dSjsy4o4KkA5LNKrXijAVVbJtZQjGjeHCxihmasYCRrVPEdeqc5U/CFBB3SlCYVBuknStuAV5eP79TpkyTJk6TVylUIumysXMskJzkD+Mwj9jEFxXiavhpZsBPAXKQnMfTWz9jSOwRldNZ1MQyFGygWUH7Zk1oA19k2/Bj3Mc3I+1X2w/9mMva//kB34g6bd+Hr4F/jUvr3zg/e/Pm2nbd+5iDpwWZsDOT8aBspomO0r7K2n1LPLokrb68PWcVuRPy+1z655/J38l34RFvkuMYpmVE5+/6esCGeqeP3GlAnr5t4z8DSN/a/hTi2AOMvAs/CmHkAzNFCTyryda3RTCSHEi8t/jL5+ptuhxhVIpqqHgpvKpakpgHyrfqIN6uU02mxoTxdC71TRl1ztJk4YcP6EiSGiQXnlk0E+wRzH0NK3Aev4Z4Ov5SzQtu4o/T6pU01r+kErZ1/NX8eDsH5M/1KKYkpPGpUyr+ecBrPDPIJ7uG0Lgxhm+zHOIvvw8u9/u2nVWu/mjN2fkntJsHcdogYf4Auw1z7um7d/PyDzr1ufYwWW2+wJs1rTzAHqZLFCttL+GpIPwGvk73vPPtx06+QuSI1vKH9Twq53iDd3IbSf/phl4/qPyH1X+qq4r9a/pu5ioNfWvog7gb83+8Fq0TssJKuulplPsc3Aqd0ZYckBRrZgziXutE4tPXFwpHhRkyWD3gKRksC8t8WimaEqjqMDx+IeVhQipE+AvX3meBP42gPX3TNWAO16Afj0LcAC93+FzM0zr9NSnPrW9+a1vJeHWcawWeOMb3tDuuutPstJtJx+HnGHFmzu4TPnNOLUtD9JT795mek3jg/zVeMwq+UNZ19hMxy3PH5h0QFWBn7D8WYYIUNHq+fdWN88/cnBs/iV/Ci1lOM3yzyg9K+1ouPr2vNrAxo0Mc5WWoqFqcEEgZ5qj2j/CHUR16fpGqKYhmgtp1GCX995VPypuPQky+HJc/mWNj88fhjLtDvk5TLKGv4qH0OH4H6P+YaYU2jWwUeCFdRDsmZOnP38YS69r/3Jc++/fcu37R7PmrCv/a7+GK49x2bZte74sk6k4wcafo1gOnmogMsuiERG83VGAJNJH0AXnaZDO568c6IpH/lY9f9PW1mcYm+4tz8g/me3OS8Mjg3tYwhX5I2YVfx4+qchJcK784agxJE2Bg73r+ZvtxOT/GPLX8e24hn8KUOxT30H5z8KbNCSZLaf2vIpII1gpBFmYZoTdhuafRt1m9MjiAAZDKFI1gkaOB+e8pRW1ISqPdL2rv7jMMubYbP4OzGR/7JPGH1Cn5FaZFmMwxtkAH7x9+KzbB+x+UvvwocNx7Y37pV9+F6/kbu6ofVeMiT3dffc97bU/+RqsOaDAmm8H8Pk4JNfOxfXu/KD8KVORV008YHVRiwbHwdPl5x8ErpU/ZddjnfxJD4InJP+Irc/YI8+/4x9xI1yEKP/V1xaOhpw6+X9Y/F20ezflsbEsmODrpp64TuMA+OASUMdidgrAdNEHVKQsu7lLOZhOasJOaPT3la5v8moG58Qnir9186Faf2qW0dY0RFl51+5rHbTwzs07au/mGSqCs87a1d71K+9u5513Hu2zdTzwwAPtNT/x6qyo04X3O+/s18RUHPLIvYN2dvUia4xm9xJmc8dI0IT9YJpINy0xy/K2LH8RbqQwz4k0Ec9e/mKh1BEBvBbX/RLkVZJaQLVLOsi/yCj/FkRNU7DuTeIx+ZOSDPyTw6mV/9ofHgGu6lDg1KprNCvSVTOuvC3lGl8Kqpuv9e+iI/hmFgZWQkBEAYQePw4OkKd/LCpIPYhMtUwyf5uIQ+D3dn/JrbEEu9aeRTiu7T90gM0wEYqdu3a1X+X12Uc66AX7q9mu6cCB/eXK5zvvbtfEDIui4oAdY7qRIj02EF4y1cufAlRtn/YPeDr568C5Rv70BCLlglJFLT38UhW34hl5Po78R6YH+VvCHrwWSAVQaFrDf538r+Z/6vBX03Jdy1n0MtsK77JdToXs87ryyMpV/9enYQWtHA/EOe6Meldjpv3RCWpVQR7apM5TEug8APtEWveE8TuR/H241MH6L/FBT5WdL+qo2uzL+7HN7JrjyD173busdxeW/lcewZY+lv3VWPb9D9FubMTIzqt+JNLNHPqzZrMfrFMwevkTrPbZ++ncWN6u/Xv5A8klVp38lSTzaHIgc5spf6uef1uq/dnjdZR+Oab82xWoLvOplX8AzwcwxJ0/ojRnrhHa6EKCHGkuyJpGeNrspR3TuNwVXDmL2qR39TPuSpCvSjAcOOAyZQQ1fFQW3BN+pvBXUaa9aL98ZIO2qI0zVADsdc939HX1zz77rPamt7yZlXh7bJlHzOGnpd70hjexN9uDWPHarimfjWJxzfTMXPryfpzCPvsMykB7QBNGrCJAtJSWXsUZhSC4FazOUpcwm16JsxvKGQHLzBCE8iIMz6bkvIxVUYBGlzZ8oBv5J+k6/lA/uvxDIsJc/CP/9hUsheT5O93yn49Y2poCusq00ghaZ7smVlyPRHCrUXWv0marGsP7jISahv6WoLb9FH4v0kBcySkPqA8Lzcngr+bWXTtm/amd7ZXujl0z0tbWWDx6vrDjzjm6+u6YYzq9gJe/zIU5z07LnOk///r3Ptbe/75fS3/Zt9S2bXO7phWr7memxIevqKILIj8KZeTP+17+ONN8YnwZjJ24cU8g7b4if7ZqB1AvvQ4oy8IiquGTQUEuldPiCONh5d/8J8LfSp0m+c/CmwyKUASlsPRagbKvvA2kS2VjGS9g/WcjEdA1IDE+CBo7gdLzGk3hG0nlFTggiJjbllEGpWbOLP7l1dhfT3dH4NOH92s8/i0xiKcSOHwE99572vXSyy5rP/3TP43V3/jrtDb7uB37eN31X7zjHe3OO+9EejhAqm58pt605vTX3ZDRpctadUfmy+NT5lyS2sufknUy5S/+ZqRciS35H4V/lVHjMG7yn7flXDZKe6Pb1KUOuHUi4xJVBNJVcbXhBBXoNVj6IOipCLYKgryuVe6VAGcfriqk5klpQPWDf1zYtCoYF/KcafwjLF39A/JM1Ql6LTx15s/weT6lHctPs7o91o++7OXtmc98Ztf4Z8bplltuaR943/vbvn18yENAOwqfL8OyZNbuHX13AT7r+JAWXutLOuUkS6S5rTUivhp7FPnTIkeeTpb8dfyz4cpR+K+Tf+qhZ9A9/7GT/4t2X1LKlLnEGmnWUqtZg8zoOcpOWMHXGK9MW8tjVRIZqqoHRQ42hieMwSvAnGWHeXgkMo6Y/pfHyrUKgeAzin+1VRQlL1DbSdKapy8fsAt62pswrb1bZcWa0A7nnX9+e9nLXzbxfXv76u9///vaA198oOQCGRDo04zCu5jGVXTZcRWQ+0mpKZeysouLb8Qpf8pGgKPUcJk+uO3Iv8gfv3ndGjlUvHz1WdmKdG2q/Mm/5FjzFVG1TBMq/1NuJqkD0vnYVA6dlBCrZhN65tdW57/u9yxaLZqLGB+Av0YWuG2UPC7S2lBcE72yP7ZJzc8Dh069vkqC8vHPOP6RQwTYpTlZ0Sjgu2k70M4IPq0H+I+w7j6baNAySvh555/Xvv/7/wkf0Zgsi/8JLPrv//7vtwfuv99q8JSRC57tzDbcdt11AM2JM9s0IUtLuvMC3nBEA4Gh/gVpb5UtfUUlzGNQ/krajO3kz/l6ZS5pt+RvEH9TT9yzO82jUY8WBZ02cf7b9j4UIv00TwJJXY2fVIknQR6sNHTRM2CSp2eadBKI9yjwqywEvX6bls00p5Y/pbH7ccL8aRvTW+5h6096ZuWj9DKACeADckGvwuNeoDuY5+BGdsyxhauR85msy572tPY0+vmXch7H4y765nfdcUe7nb+HHvJzXJ38cHZgznaubZoAvoq9m2sP+HXrDSOtfmFZdc/KCtLB2cOVk6aJ4UlIL3/c0Faqi2X5o83rOJb8kZrnGdk+IfnbwPOnXHAakP/TyN+95QI7Bcyh0TIwFLBstw2ZZYR5AGpYnwUNqUsDaDNiLX5s5E4pSCpzpV27x/IzcJV1w0lnfiKTkLRcKO9r+MPDMIXg2PxpSMqbNQ3H5Q+wlsv58PwjbNQlSmiAv2woPP9pIc/H4w8R34W20+PbhuqN2hST+lFBrbv3y0tyCbO+C3wbz3Cy5EmQM+11ETvm+FGN83H9H3vuue38886D9qk77r//gfbVv/5K86zb/oV7/lwdSOn8qQfqdNvcLHPSygx/M/1HLLLjqju48Fwx89nKiXjFzpz9hXXVwKx9/kgi7bJO/mCesOM8fxp6lZz4TDqmKXvJWi9/m/r8rZaCNy78sz+8jZ2H1Z9sjN4C+ygjbuoCDlUADcQf1eDwLo+rI0HeHBEBhEFN6sPyoRadDBrQ4IYtj9BzIxU9OmmOxp+y+AB7GiFFSTtldTz+Sd7nXa5/1bfqbIqHq7/MSdLRyKWKg8BcQ9MyOIeMUafyWHu1ioIc4HPtYh1Ors7LGal3ea43IWsROJbrYuAyz0TlpziSLo3hnXy7tKFU7R+atI8UPfq2W+FGHIHLKXxu3BcpQ81UP7Ox3AKZIJ65rrwzNBmNF+Ug2767guOCm9BMOjOs5U8LhHDnOyatrZf2J61KUUXhA+/LWkbHMP7IUdHkUqkQ1qc7lvwlV5d3Rf424fmPEf988cYBCBvHhnKgLQdhvZatAB/Kyv7wpVVJ2wlLiZTNzKGQq9UgKGVdmoRHRXDNQ9IqZ3BwOS3ZhuFP/nyhJNJVNC35qPxTDWTsaPUv0aE2q+u/mn/qp+Adn399QJP6K9AqAIAN1snLP8DuxzQUZgf0FPq4+rZkAE96Pq6xQN9/mZdxPV/OdUitWtxf4+uou5VnZcyq3FyqMPvDNomSWA7gefJcpe5zT98ckMuqXxWndY8HGAuudfdBV1qBn1v8toBeukGijcn/5faX8YqVP277IzjK1HJNlmXqxOXvVD1/2/to8n+q+E898aJL8LR5hD5DGz9Irgftg6vBNeJ5BupcC+yRx+5DB7n9LjDR/Gl4H3qlNqPiXU2vkPtkSyC5QrhRCdynAAFRF2++nj+55WrReglc4c97SYzw24jF3xhYrOHf85OP9PvyaClUbMQTNVh/wx1U1CGXQq/kpL/Cn/o7bXlC/Kv+Kg77omXpqbTtYz/eM4CucLmoAKgXceFPSCkJympIqlJdK/nbrgaaM23hWSQFtZyJqd+k4L5CDPOqIrnr6EhJDyyYrESVTqre8+dHHDLQC5INsycegAfnpqtFNILd9oSajVdn7l0im/aXnHx7+Qv5Tv7CdTPaH/rVaNRMUwTNU/r8Tz///x8MTQyKpSwmfAAAAABJRU5ErkJggg==;" vertex="1" parent="1">
          <mxGeometry x="739.0899999999999" y="160" width="74.75" height="70" as="geometry" />
        </mxCell>
        <mxCell id="0GgaDCThM9D1acnP9XUS-99" value="" style="shape=image;imageAspect=0;aspect=fixed;verticalLabelPosition=bottom;verticalAlign=top;fontSize=18;fontColor=#FF8000;strokeColor=#FFFFFF;strokeWidth=2;fillColor=#003366;image=data:image/png,iVBORw0KGgoAAAANSUhEUgAAANgAAADUCAYAAAD+4u2WAAAMYWlDQ1BJQ0MgUHJvZmlsZQAASImVlwdYk1cXgO83MiGssGWEvUTZBJARwgogIFMQlZAEEkaICUHFTSkqWAcqouBCqyKKVisgdSKualHc1lEUUanUohUXKv8NCWjtP57/PM/97ptzzz33nJP7jQuAZhdXIslDtQDIFxdK48ODGZNT0xikHkAAJsAAmAMilyeTsOLiogGUkf7v8voGQBT9VWeFr3+O/1fR4QtkPACQdMiZfBkvH/IJAPASnkRaCAAxBOqtZhZKFCyErCuFAUKeq+BsJa9UcKaStw/bJMazIbcAQFbncqXZAGi0Qz2jiJcN/Wg8guwi5ovEAGjqQg7gCbl8yImQx+bnFyh4IWR7aC+BvAsyM/MLn9l/85856p/LzR5lZV7DQg4RySR53Nn/Z2n+t+TnyUfWsIVNXSiNiFfkD2t4K7cgSsHqkPvEmTGxilpDfiviK+sOAEoVyiOSlPaoCU/GhvUD+pBd+NyQKMgmkMPEeTHRKn1mliiMAxnuFnSWqJCTqJq7RCALTVD5rJUWxMeOcJaUzVLNbeRKh9dV2LfLc5NYKv+3hALOiP9XxcLEFMhUADBqkSg5BrIGZF1ZbkKU0gazLBayY0ZspPJ4RfzWkJkCcXiw0j+WniUNi1fZS/JlI/liZUIRJ0bF1YXCxAhlfbDdPO5w/IaQmwRiVtKIH4FscvRILnxBSKgyd6xDIE5S5YvdlxQGx6vm9kvy4lT2OFmQF67QW0I2lhUlqObiEwrh5lT6x6MlhXGJyjjxjBxuZJwyHrwIRAM2CAEMIIctExSAHCDq6Gvug7+UI2GAC6QgGwiAs0ozMiNleEQMrwmgGPwBSQBko/OCh0cFoAjqP45qlVdnkDU8WjQ8Ixc8hpwPokAe/C0fniUeXS0ZPIIa0T9W58FY82BTjP1Tx4KaaJVGPuKXoTliSQwlhhAjiGFEB9wYD8D98Gh4DYLNDWfiPiPRfrYnPCZ0Eh4SrhO6CLeni0qkX8UyEXRB/2GqjDO/zBi3hT498WDcH3qHnnF93Bg44x5wHRYeCFf2hFq2Km5F7ox/k+doBl/UXGVHcaGgFANKEMX+65kajhqeo14UFf2yPspYM0eryh4d+Xp99hd15sM+6mtLbAl2EDuLncTOY0ewZsDAjmMt2EXsqIJH99Cj4T00slr8cDy50I/oH+txVWsqKilzaXDpdfmgGgOFglmFihuMXSCZLRVlCwsZLPgWEDA4Yt64sQw3FzdXABTvFOVjqv/S8LsCMdL+rFt4C4AJyUNDQ4c/62LMADhUCm/z7s86u9/g4wA+586t5MmlRUodrrgQ4NNAE95RRsAMWAF7mJEb8AJ+IAiEgkgQCxJBKpgG6yyE+1kKZoK5YBEoAxVgJVgLNoDNYBvYBfaCA6AZHAEnwRlwAVwG18EduH96wDPQD16DQQRBSAgNoSNGiDligzghbggTCUBCkWgkHklFMpBsRIzIkbnIN0gFUolsQLYi9cgPyGHkJHIe6URuIw+QXuQl8h7FUHVUFzVFbdHxKBNloVFoIjoVzUZnoMVoKbocrUbr0D1oE3oSvYBeR7vQZ+gABjA1TB+zwJwxJsbGYrE0LAuTYvOxcqwKq8MasVb4T1/FurA+7B1OxOk4A3eGezgCT8J5+Ax8Pr4M34Dvwpvwdvwq/gDvxz8RaAQTghPBl8AhTCZkE2YSyghVhB2EQ4TT8G7qIbwmEon6RDuiN7wbU4k5xDnEZcSNxH3EE8ROYjdxgEQiGZGcSP6kWBKXVEgqI60n7SEdJ10h9ZDektXI5mQ3chg5jSwml5CryLvJx8hXyE/IgxQtig3FlxJL4VNmU1ZQtlNaKZcoPZRBqjbVjupPTaTmUBdRq6mN1NPUu9S/1NTULNV81CapidQWqlWr7Vc7p/ZA7Z26jrqjOls9XV2uvlx9p/oJ9dvqf9FoNFtaEC2NVkhbTqunnaLdp73VoGuM0+Bo8DUWaNRoNGlc0XiuSdG00WRpTtMs1qzSPKh5SbNPi6Jlq8XW4mrN16rROqx1U2tAm67tqh2rna+9THu39nntpzokHVudUB2+TqnONp1TOt10jG5FZ9N59G/o2+mn6T26RF07XY5ujm6F7l7dDt1+PR09D71kvVl6NXpH9br0MX1bfY5+nv4K/QP6N/TfG5gasAwEBksNGg2uGLwxHGMYZCgwLDfcZ3jd8L0RwyjUKNdolVGz0T1j3NjReJLxTONNxqeN+8bojvEbwxtTPubAmF9NUBNHk3iTOSbbTC6aDJiamYabSkzXm54y7TPTNwsyyzFbY3bMrNecbh5gLjJfY37c/HeGHoPFyGNUM9oZ/RYmFhEWcoutFh0Wg5Z2lkmWJZb7LO9ZUa2YVllWa6zarPqtza0nWs+1brD+1YZiw7QR2qyzOWvzxtbONsV2sW2z7VM7QzuOXbFdg91de5p9oP0M+zr7aw5EB6ZDrsNGh8uOqKOno9CxxvGSE+rk5SRy2ujUOZYw1meseGzd2JvO6s4s5yLnBucH4/THRY8rGdc87vl46/Fp41eNPzv+k4unS57Ldpc7rjquka4lrq2uL90c3XhuNW7X3GnuYe4L3FvcX3g4eQg8Nnnc8qR7TvRc7Nnm+dHL20vq1ejV623tneFd632TqcuMYy5jnvMh+AT7LPA54vPO18u30PeA759+zn65frv9nk6wmyCYsH1Ct7+lP9d/q39XACMgI2BLQFegRSA3sC7wYZBVED9oR9ATlgMrh7WH9TzYJVgafCj4DduXPY99IgQLCQ8pD+kI1QlNCt0Qej/MMiw7rCGsP9wzfE74iQhCRFTEqoibHFMOj1PP6Y/0jpwX2R6lHpUQtSHqYbRjtDS6dSI6MXLi6ol3Y2xixDHNsSCWE7s69l6cXdyMuJ8mESfFTaqZ9DjeNX5u/NkEesL0hN0JrxODE1ck3kmyT5IntSVrJqcn1ye/SQlJqUzpmjx+8rzJF1KNU0WpLWmktOS0HWkDU0KnrJ3Sk+6ZXpZ+Y6rd1FlTz08znpY37eh0zenc6QczCBkpGbszPnBjuXXcgUxOZm1mP4/NW8d7xg/ir+H3CvwFlYInWf5ZlVlPs/2zV2f3CgOFVcI+EVu0QfQiJyJnc86b3NjcnblDeSl5+/LJ+Rn5h8U64lxxe4FZwayCTomTpEzSNcN3xtoZ/dIo6Q4ZIpsqaynUhR/vF+X28m/lD4oCimqK3s5MnnlwlvYs8ayLsx1nL539pDis+Ps5+BzenLa5FnMXzX0wjzVv63xkfub8tgVWC0oX9CwMX7hrEXVR7qJfSlxKKktefZPyTWupaenC0u5vw79tKNMok5bdXOy3ePMSfIloScdS96Xrl34q55f/XOFSUVXxYRlv2c/fuX5X/d3Q8qzlHSu8VmxaSVwpXnljVeCqXZXalcWV3asnrm5aw1hTvubV2ulrz1d5VG1eR10nX9dVHV3dst56/cr1HzYIN1yvCa7ZV2tSu7T2zUb+xiubgjY1bjbdXLH5/RbRlltbw7c21dnWVW0jbiva9nh78vaz3zO/r99hvKNix8ed4p1du+J3tdd719fvNtm9ogFtkDf07knfc3lvyN6WRufGrfv091XsB/vl+3//IeOHGweiDrQdZB5s/NHmx9pD9EPlTUjT7Kb+ZmFzV0tqS+fhyMNtrX6th34a99POIxZHao7qHV1xjHqs9NjQ8eLjAyckJ/pOZp/sbpvedufU5FPX2ie1d5yOOn3uTNiZU2dZZ4+f8z935Lzv+cM/M39uvuB1oemi58VDv3j+cqjDq6Ppkvellss+l1s7J3QeuxJ45eTVkKtnrnGuXbgec73zRtKNWzfTb3bd4t96ejvv9otfi34dvLPwLuFu+T2te1X3Te7X/ebw274ur66jD0IeXHyY8PBON6/72SPZow89pY9pj6uemD+pf+r29EhvWO/l36f83vNM8mywr+wP7T9qn9s///HPoD8v9k/u73khfTH0ctlfRn/tfOXxqm0gbuD+6/zXg2/K3xq93fWO+e7s+5T3TwZnfiB9qP7o8LH1U9Snu0P5Q0MSrpQ7/CmAwYZmZQHwcicAtFQA6Jfh98MU5ZlvWBDlOXWYwH9i5blwWLwAaISd4nOdfQKA/bDZLoS+gwCIhS0xCKDu7qNNJbIsdzelL40GAEgWQ0MvCwCgwPYhfGhoMG5o6GMtDPYaAMeeKs+aCiHCs8EWFwVdMT8IvhblOfSLHL/ugSICD/B1/y89GogtOHGrZwAAAIplWElmTU0AKgAAAAgABAEaAAUAAAABAAAAPgEbAAUAAAABAAAARgEoAAMAAAABAAIAAIdpAAQAAAABAAAATgAAAAAAAACQAAAAAQAAAJAAAAABAAOShgAHAAAAEgAAAHigAgAEAAAAAQAAANigAwAEAAAAAQAAANQAAAAAQVNDSUkAAABTY3JlZW5zaG90oXgOhQAAAAlwSFlzAAAWJQAAFiUBSVIk8AAAAdZpVFh0WE1MOmNvbS5hZG9iZS54bXAAAAAAADx4OnhtcG1ldGEgeG1sbnM6eD0iYWRvYmU6bnM6bWV0YS8iIHg6eG1wdGs9IlhNUCBDb3JlIDUuNC4wIj4KICAgPHJkZjpSREYgeG1sbnM6cmRmPSJodHRwOi8vd3d3LnczLm9yZy8xOTk5LzAyLzIyLXJkZi1zeW50YXgtbnMjIj4KICAgICAgPHJkZjpEZXNjcmlwdGlvbiByZGY6YWJvdXQ9IiIKICAgICAgICAgICAgeG1sbnM6ZXhpZj0iaHR0cDovL25zLmFkb2JlLmNvbS9leGlmLzEuMC8iPgogICAgICAgICA8ZXhpZjpQaXhlbFhEaW1lbnNpb24+MjE2PC9leGlmOlBpeGVsWERpbWVuc2lvbj4KICAgICAgICAgPGV4aWY6VXNlckNvbW1lbnQ+U2NyZWVuc2hvdDwvZXhpZjpVc2VyQ29tbWVudD4KICAgICAgICAgPGV4aWY6UGl4ZWxZRGltZW5zaW9uPjIxMjwvZXhpZjpQaXhlbFlEaW1lbnNpb24+CiAgICAgIDwvcmRmOkRlc2NyaXB0aW9uPgogICA8L3JkZjpSREY+CjwveDp4bXBtZXRhPgogDBjhAAAAHGlET1QAAAACAAAAAAAAAGoAAAAoAAAAagAAAGoAADKEZ65I3AAAMlBJREFUeAHsfQmAHUW19rkzk4VkyM4WAgEChi2ZJQsICAgBFTdQnk9xA3nylCe7j01BEAETRBGQTXZQHgiIvwsq+74YIAlIAkiQJWxJyD7JTGbu/N936tak70nfW7fn9p07Ialkbnf1Wau6Tp+q09VVmcamSZ2SwX/8E+nEH1NGOnFag7OsZjulBvmOGmLxvFOynbV63pkhRo3UZDqkM4tryHd21gj+C0HEz2YcHVkxkaYG9J2Qq4g5udSAuvAauKh85BQKbOnIUCMnv1NqHSQnr6amHcrWqdDOTnCCTBbCya/RIwhyNOThZDhF88tPbbMQjOLqkTrllR/lQglyvCLl1zqx5c+i/FH5UEvLjzpigfWHermUiS0/Sgt9OmqKlD+D8kM+flBsMPbqMZ+rNy+DN6Ymi/J7+ZCp9583nddYWyw/zli6tcpf6P5Hyu+JWZ6s405OSNTH1X+x+w/xYOFonXzcf5Sf9zODmxO9/8TU9heR39X+UFbeK9L5lF//uYoC0BU9J1nbDrXFVdU3Jx/Xtf2j/ZFnXvuPk9/UPBHlpBGQsSfCOWq2ForhPqCywRRQFsslNs6s1OoNYjXwumZycKqlJoG8o+Qv0dRIcWdZ8aw+0pGSBkVcbWA8x39Um7Y/yndYxAEIxkNaVhvpCXcGxayjzQCqXGlowK7JNeQOXK7pwDXiaZnBuav87kYoqpYfhgZ8sic3W34aYAZ30paf+RpTftUUfJKWn0awpv4hj3pEyw9lVb4+UACMlF/rN1p+yMczUDIov9b/WuWngaLgFIKD1j+eLGuXH/UCqenc/1ydg5/Wsr8vKLhCWH4WC396phnKx/1H2daqf60g0/7Akw9IMsqrfxgfG5grLmj8g4g6BOTrPVZZuP++/ammTk/f/jNN3oPpjQIQQumB9L7wPFfRWWrI1gZPpU9/MK+BIp05YwGaa4TkA9watgwc6QkchM8xZlxTZZVRyQzwiadHQHmNzVNxyR8kNHuy45OZHpK45KSNhNdwruJIzzoLydeKpfE6PYkfJ9/xp8ZOPm+GPv1xZHm1TUORPPnEqYGOVAj/qSdPOqEYDVLPcZXNh41UDR96+DLF17+X7+ufeXBIof4pX5/21Bv6ROuf5ef9s/VPGi0/1GF9k9LXP+uoq/5JzyIrBsvM2uD951X3YNJ6Z/mJAzDvib//Resf6KxPlY+j44h8VH6h9gcZqieObKdx95/a4aZo+4u9/yXWf6a5eQJvvTIjN/ekZ+Pj7c9VCATxKc+Kcs3Z3Qa9M6oIQNSHjQYGyCMxWEE0ygwanKtePBMhTVmxnlEZrHTXhWSeRsji8AayysjF6eblE+qkgzdbBnOUA15aEaTjk4hCcoakNwp0qiFkkLM+QPSaaoorTCynK6O70eBh5DtD9DLj5fNJ6Ljil3pBP5aMvNT3Qzf3sMxp7J+cuM4rLFeh+l9TfqoLXJadrHkA3Zr6ZxlRUq1/rw2eqyw/cbWKTP1Hy88SaP3Bq+kDiHXh6oZ16+rclb9LPrTvxP1nOVVi1/1njioG7j8wXP2THu2E9KBhGdfcfydTW5SWn9Wwhm5N+XFN5UNn6I9cCfL58GYN59qYL39EPmEsiSuR02XNbYjWv5OfaYKBsS3S3VIJPgtIwJRhn5KVCQPhjfL9TTZcdc0QzP6oU54N3FUugK5hgR8blqscXCNf/LESVRZuNm8evaA+jeLkozVka2C00CWrcjNS17dWNtt0cxk5cgvZEn/Dhw2XAQMHysABG8nAgfWyEY8DmB8A3D5SV1srteaPRuCMDPr4E6qHc83nrmmDp8656x7mKzp6XWFRHgXOPQ3Ammp0bOVz6R15Y/XmgqU/90cvxefdkVcdDfOaK8hDwXn4URpHTG5MjmdHR4e04y+Lv46OLP7aZXV7u7S0tEjLCvzxiL8VLSv0uGTxUnnn7Xdk3rvz5N2335eW1hZtO87g2R5d+8PdwTkfXogD0CBVqn/g+vbHds0bif+59sfWSR58CLrOMe82eABHmyLanGv6+e2P8v3DnQ9MymR79u1fHwxgoqba1DyZEtDQYRwwIg7IaTSaIJyJAp1nAyryanQcY2jDVzYQo34BYnCEYmqo+uRjifCnrEhP7Zmoljc0APPkO14QJNtuu61MmNAs48eNly23HKlGtckmm0ilGqXTred+2ShpcL5x+nNvrD2nSXUkJSn/okWL5G0Y3DvvvC0vvviSTH92urw0+2XJZmG0bGB8CGr7q9MjhzXabtdqf9oYu9pflxPRngMMQ10826lr7zSYWsBc3rVgBlm0/bOHAFTKd0Zm2j+jiOpKVQkqSQRa5BpToMWrJ4Igdudq+VTT++EahtKjSPpkIL2qDqHAp7HTQjvwKKCSaru5LqOLRjozUy3Bdfvtt5MJzRNkwsQJMnHCBBkyZIhK6q0/SRpIby1DOXpVu/wtLStl1qyZMn36M/LsM8/Ji3NehFfUQU+u/dHo1rQ/ltV1v107RkQB/9Ce2aNhu871klz7hjmoHbj2r7ToatXCALvaP+Fo52pcaOeON3m69p9pRBeRbJjUGHLIvMarHLzSKNBBwyUalKLqD4Wr21UODlEHjBw4Ikt6LZyKd3R8onCUlmFYH0f2tcdsN0Y++5nPyKcP+pTQO21IG2qguzWwfPlyuffe++RPf/qzzITh8aHfwQe9tkbXxl3Mge0ZbVtboWvX6u1gBOwyEgYybd9s8uz+sS1rEIUNGxedYTLj2rn2QhyR0uv1pmZ4MIohF+B2MVfRZEKmVAY2qQKdWbDXym4hlaIr5piMEUZClbHikh+9GLuMcONEyY3lasFvyv77yze+8TXZZZddlKYSP0mfsJXGr0QZi/GsdHmS8i+ma9qwt956S27+7S3yx//3Z2ld1aLDJvf6hO2V0vig5y8e88zT7ag14BQIeont250pniNz7d2NAQEH7premzJUW+EPPBjeg6lRgA1gasVkRaPSRKsAImVHBBFKfXLqkZV6QCpAXP/LLiefGLT2LIytFgP6Q75wsBxx+OGyxRZboICUBWqWNCZ5GI9MaePHiKzopUqXJyn/ihY2hnlS/dLAX7Jkidx6621y4003w9BWoZ2zteIfjQfNzrU9b1BUmm2RLZymBxejBpTr8sGRMO/DKc6wPC3xXXI2BQ5NE5oBzZkKoBToUTS87CkoFMai3giNXRVjo1fDcApTjDKGJ8uSJ+D0gFSGadyu4+SHPzhVxo4d60Rs+N1QAz1YA++9955Mu+BCeejBh9HkGeVj+4UhdbV/1xtzKtEp5F5psI2zCfv2jwxjEXR7CqJpRMsBPL5LJlGmsWmyC3LQWHjNWQ5gMBUg0vtwmg4vU4b/9f1PTrnpAJ4zLJgY3SATrikB8oMH1csxxx4rXzjkYPDMU8XhlvGb9AlnRSWlT4pv5aWdL1efpPRJ8dMur+XXHX0efewxmTbtZ4hIzkMTRSieTTLX/nWCQG4cRn+k7Z9g/vN42trRvtGW3esjhvEBxP+u9s/4PhLeg02k21H+RGLwAfE+XHIIzkWCgQ6giAcrBLG6VwjVsReZMbKi4zQOBmmpLn3u85+V4487DtHAwf5S3rE7FZTHoJdlkpYnKX4vK+5a6iQtT1L8tQR280JbW5tcc+21cuONNyPquJoWpO3Wt396Lya2fzoLbedE6so7C6FjcZFH4Ko7c702Gp+WrbkJBsawuQYiaCRggnNPTpa0ZLVC2jOMUC1Zjci9WM7oeI3XaeJQDAj9B24k084/X/bccw/1WhTGZMdQSSs4hB+CqxKRn2rjpy0/bX6RqtLTtPlXm9/LL78iJ5x4vLz33kKUD22UvqGr/WvGlVsdFEwFKOyv0Sq0rasXo3W49q92AyeUVacDLM5FVPMhPoh54A8jJxpBRFYDFJSsOM5QvC50oW6mBYkopEM232xzufSSX+Kd1vbk1qtS0hvaq5RPQZkN5Ycx5LwLq5PnCxYskONPOFHmzH4JTRz/0NR9+2ejR6t2RoUmriZAQm+LbP9o88TSsRzO6WDUNGl80c9V1DOpkdE96hAQCvgBG72Xs2h6Ko3E5LwSGZI2k83KzrvuKr+86OcybNgwqtFVmFLHXkkbQFJ8VarIT4hfufAiohUU4m/pk+JbepsP8SsXbuXZfIh/ufiW3udbW1vlB2ecKfff/6CG6N18UhiItn+8ZoLhuIkSNBAaFV1LLmnjx2XYg07CxmW6IbURzkV0lkf35xDo8PwcQ30hDMNSy4VhKWN4Kpxi2EW7ZSAER4zBDvzEFPnxOT+Wfn37etHBo61QS+CfNoUM1NJb/BDcyrP5cuktP5u3/C3clsfCLb3FD8EtP5svl97ys3nL38JteSzc0lv8EDzKj7iXXHqp3HDDzc546IFoYMhp1xDREO3tod0zMJJVO0D7h8Hp9MIcrvKkhSFpkEMNUE1OvRuu0hq1x6eMaUaKDwY62FND5BVch2HRkr/y1a/I9086kTzzUjkFzmOUy4QqLAS3PJPih+gtfEP50UbQXlgPTP6cRyZbP3qxyE+IPgS3rOPwb7/jDvnp+VMx9OF0KhqD090HO5hz30/iDMVw3UEXp3DRRBcgoeOCgWEmB5D0EnnhjNbKr4cdW1owgx6ub0l5GuiAEL5uY5oy5QCZNvX8rkrUi938iSuwv9ZNlkXJPG8emewNt3DLzOJbeNK8lZc2f6tPSJ6FW/q09bPy0uZv9S8k77LLr5Drrr0eDYKGw1C+C97p+zO+s8J/HZnxqD08tB8NENLcYDNqdbChxuZmGBhytCq2MYXwwA8rOcXJNTxypCif47db7Bo2YMx19dVXSd9ct9AqDAaJkq1Qy69cuFWmXH4heisvlA/xKxdu5ZfLL0Rv5YXyIX7lwq38YvxOP/2Hcs8996oD016cGhUsgV1H7cVxKAULob3RHnCdcYquCcO83gwP5ozGBTacQcGY2B3UNTbw7Q4J8R5M52SAiFbGaU+jRo6Um26+UYYOHWr1Ti0fMjArKCm+pbf5tPlZ/qF8UvlJ8dOWH+KXFJ60PEnxi+nT1rZavvOd78iM559HNzD36oqDr5yX8a+sGLOg96JpwJ05g2MOeLkPLuHBFJobY+mIDpdgWHSDOsjTLmKtTntiiH/A4IFy8w03yDbbjM7T0RYwD4hMsSeGxWXe4lscK8/iW7ilD+FbuKW3+XLlWX4h+VaexbfwEH+Lb/lZepu39BZu+SXFt/wsfbn8LT/OY/z6N4/AB59vQXQdvBS+LIHL4nsuuhziq7nQfuC99NMV2A2HWuzvqYGpyQGL00TIgMO2mk7M6NBxmO8W4gjGNDn2Ma+88iqZhG+2bAoV0MItvS1gpfGtfCvP6mPxbT5Eb+GW3sqrNL6Vb+VZfSy+zYfoLdzSW3mVxrfyrTzq8/obb8hXv/o1WdXapg982gCdjlvpK+e5nIeC3XDoBPuBHWmUnS+a1Wjg4jSw4S2SZgkiffeFL0b57ovGV4N3XYd84RA544wfWt00byvIIsUVwF8jrj/nkSltfso08mP5W/kR1JJOLT9LZPlb/BC8XH6WPiTf4ofylp/FD5UvBC+Xn6W3+lr5Hv8mzMT/xcWXoKPoUie+CtFXWYxZcDiF5koHhP85JwTbgalhNj0WvaFrAx2DIO5Hu484pXWSCB1FwvA3DF8Y3/WHO2XQoEEqqVQFFZksyBPa8BiXPIzH7qQQf8vTygvRh/At3MpLyt/Sh/Ih/pbe6huiD+FbuJWXlL+lD+VD/C291bcQfRaO5SuHfU3m/muurohBu1CbAUO1ElqWRg7RNUTbdUFHHNcs2wa3Bxw/Kxi2pwbGa2TB6YZ0jOfhRfJBnz5IjcQqq5jGgEIFCMHjZESvhegtPEqbhr5p8yt0g60cn7fls/QW7un8MYQfgns+/hjCTwr3fAsdbflC/C2fEH4UPmvWLDnyyG/r0Im25BaKot04R+R4w3Eg+s6wPl1IhpN9aUSKpNbEDIg4JmPIEW6O/9mNbJo0Qa6+8spEHiiqIBXoyQpJQx55RJMtTxTG86Tls/wsveUfwi8XbuXZvOVv4VZ/i58UbvmXyy9Eb+XZ/DnnnIse3F24z1hFmoaBwZauAapGFl3XCuZFh8WpUuqk0LvkV8z8KoWDN7U+GJrOuMJ1Lnt2++23yujRo63MvHyoAvOQYzIh+hDcskyKb+mT5suVF6IPwa2+SfEtfdJ8ufJC9CG41TcpvqW3+aXLlskhh3xRliK6qJ1EDdvDEalDcp7MLdLLMRgMTJcMoKfSJdicqZEpUdkv5FCJs4W/+dWvy0kxU6HsE8EqZAto4Unpy8W3+lh+Fm71tXlLb+Ehfknpy8W3+lh+Fm7LY/OW3sJD/JLSl4tv9bH8LNyWh/nbfne7/HTqNO2tEJ+9O7orhg1cpN1R6VisGR9cujfQ7DM6q3NzNODuaF34X1dbI3ff/WcZMWKEo4z8hhSyBYiQxp5afiH6SuPHKhm5aOVHQHoa0t/iW34h+krjW/1s3sq38JD+Ft/yC9FXGt/qx/zq1avloIM+I4sWL4aXwgtoOCf9SJlRQsYq8HqLb4w5QSP3ohmGhYx6K/g1Rui1YLjAa5/FV8lnn3VmnKzgtVAFhOBWgMW3cHtDLL6FW/qk+Jbe5kP8QvAQPwu35SuXv+Vn5YXyIfkhuOVv8S3c6mvxLdzSl4p/zbXXyWWXXQ6vRQMjF++eYDDs/SGPQD6CHBPwRbMaHhB8kEPna+TeReMd2J2YXbz9mDHk4gxPjZGMwCp3ziNTqACKFPkplz7CqlunIfnlwkNKhfiH6MuFh+SXCw/pF+Ifoi8XHpJfCL506VI58MBPSvvq9pyBIYYBE2CH0U0pZMdRPRj2B4skXmY/knMNOQbbaeed5Le/uSmCkX9aSAEaGlMIns9t7ZyltxjWoC1+UrjlH8pXWp7lb/VJWj7Lz9Jb/qF8iF8InpS/xbf6h+SF4JZ/sfypp54u99x3L1Cw9wGXfu/Ekt3oJuoLZ3g1vgtDF5H7gzGQQYPgC2eOxfCPQLxdPuW0U+TLX/5P9UwUlqaC5GdT2vyT8gvhh+C2PEnzafNPyi+EH4InLa/FT5t/Un4h/Cicq1Mde8zx8GDwVDqtEKXRjhx9FzwaeoJrXjTjkjotGph2FWFwMMEH779f14fnk6I7KapQHL19AsXhFLtm+fcGfgvbsjKvpUM+wHFJeyemiGIGTL9aGda3RrarrxMculJP6ru4bYX8e9l8WbRymXzQugwb6NXIsP6DZHj/jWW7wZvJRrV9U3+A2vvTVfDcSU+W38qOy1t9i+lH2P5TDkTIfimi8DApDpNgOwzZ+/3x3P5gan10bblxGD0aJvuO3XGs/N8tv43To+taEoW6iIqclMuvXPoiqsWCvLyFqzvlgXdXyXMLW+WdFe5D1DiCOtyIHQbXyaQR/WSvTfpJnRu6dqF6fjwyFbvBXUSRE0v/waplct9bs2T6u3PkzcXzIpj5pzUYrO8wfBuZtPlY2W+r8dKvpk8+QoGclZdUX8u2XH7l0lt9QvmTTz5V7oUTqoENYf6GzrJnLJ69QF0RmHMR2R1kFNGtsYHwIsEwtm/ou68TQjISwdOugKT8LL5VPmkDWQ4PdeebLfLIO63utYZlWCQ/tH+tHLz1RrL3pv21vougFgTZ8nj9V7a3yh2vPiH3zH1CVndg3b8EqR4e7ZAd9pYDt27SQUMC0iBqIX2pd3dSUn4W38r09VeqPrfddptMnXoBDAjjMB10+Y+UaWYa5MjfH0wXoOLseYy/Lr7kItl774/l6ZC2gnnMYzJWXtIKiGFZ1qWoPs8vaZfL5yyTlasLe6xShG0Hj3b8joOk3rozEEflkVcp5X9lyTty4T9ulWXoBpaTthw8Uk6Z+CXtQno+Vh9/3R9L0c/jlnK08tLmX4oOURyrz6tz58p/fBExCtgVx2Gc2MHVfvlCTGd3NOKLZnVo7JLAqHRZe3g0DtYeeeRhqcfOkWkmq2DSCgvRh+BpleVv6A7e9ip27MC/NNIQjNFO2Hlj2WoAb07hFCrfw2+/KFfP/IN0ZNsLM0kAGdivXk6a+J8ydsjIBFSFUUP6F6Z0kBB9CB7i3x34fvtPkcUYh7GLiB8k571015VGdBHVmvgLw+JSAVkY2k477Si3/PY33XqCdkfJnqJJegPi8O95r1Vu+dfy1FUe0KdGzmocLCOiUZAEUh57Z45c9uzvElCUhtoHwY8f73WkjN54k5I8aGlcq4MVdz/9tTiNPIxHpjiH8L8nnyIP3PcADAhdQnoyuCw6KFLomhwgAyGNC0cYGb99+Sb27TrxxPLHX6UoqJoX+CmXvgDbbl9+Ed3Cn/9zqXtP2G0uhQk3gwc7q2EIggwOp9Tyz136vvz48WsTj7cKa5IPGbLREPnpx/5LNu6zUT4gkCtV/0JsyqUvxDfN67fe9juZ+tMLnHGhm6iGRgGwp7z9wXQ2Yof7uPK8834in8Z3X3EWG1VuXaiAqL6h82LlWYmHz8nTF8mK1exDVy7tvll/OWr70rvmHXgqHvfgZbKoZVHllALnXTfbUU6b+B95MorVVx7iOpJJWh7iz5gxUw4/4lv62iODL515jf/ow/SLZp3jwQpA17CdgzN4sBuxoE1jw/heXy1JK6ScAt3yeovc89bKcliURMtbc3bTEBkVGI+RGcv/h7lPya0v/q0k3uUi/WCPw2XnoVuVyyY1+p68/4WUXrBwoRxwwCekhssI8JUXN1NxgzGuTe/2B3M7WqKLiIBYB37uu/ce7Je89uz5QkJ66/W0bsBieK1Tpi+W1XgI9UTaeVhf+f5OGwdFrepok2Puv0Ra2lqCuGkgbD1kKzl/z8PTYNUjPNK6/yFld9ttD2nn6xBO/qUH44x5JJ0qRW/GsDwDYp2d7Qjp95Vnpj8V4rlewf/89iq547UVPVZmerGLdhsmG8eE7qNKPDjvBfn1jN9HL1X8fOo+R8uo+uEVl7MuCTj44EPk9TfnwYvRdzHSwTuIg98fjAvfsGuYRX9+q1Fby5/+eNe6VL6K63rO80vktaXphL5LVfZr29fLfpv1K4o+7ZnbZea7s4vipA08ZMf95dAxe6TNdp3md/TR35Mnn3oKBsYQfS1mdHBWlHowrOyrb9EZQeRfVnb/6O5yxRWXrdMFTlN5TCuUY55cmNIbr9I12wXdxJOKdBPZ0//WX6chcthWOtMUMEdjDHYexmIb0poaOOcn58qdd/4BPUT3HRjHYuwZdu0PxtbDL5mziCJ+8Quflx+deeYa6siZjSraPm4EtVunSfknxe+OUq8t75BzZi7uDmlZNJsgyDEVwQ5fRstsIeYZHnvfRfZyxfMD+g6Uq6a4Vzjrw/2PVqi/Fzwy+fJfd/31cunFl8LAuKIUI4kYbtHG3P5g+hUYLAzzEEF4xBFHYF/lY6N81+vzZxa1ya9eLG/aUXcqsH9djVy2W+F1/19e/Lac/dg13WFdJk1GbjzodA1Ll8noQ0N+++13yLnnnYvgRp12E9lRZHJLBvAMhsUZHDSwY/7nu3LUt7/Nq4lTIQunpTOF4CGB5dJb/qXwuw8zN35TgZkbVpe4/FV7DM+bcR/V98l3X5ZLn70tjqzi1y7e//i8OYpeYFQ/XvNP+HX5/vuyFTv+5e675fQfnIGHjltCgOXVCVPcH0y7hzAsLtKW7eiQU085WQ477CvKL1RhxYR+GGAs/xML2+Tql9KfGlVK/Vz20eHS3z0M10J/BPMOr3jujrWu98SFCz/+Pdl8QGHv2hM69ISMUtv/Qw89LMcffwK8Fz0YbAnBDn50mWmc0Ay74nRfN4MevUQ555yz5POf/1xF9C9VYS88Kb6nK3TsDr8XET38GaKI1Ui/2n0YPoTkx7D5fX4+IddFA0ta/0nxQ/cobX5e3vTp0+XIo45CbwPf0WmoHjZFI9P9wei98HKZr8KysLALL7xQDpiyv9JWSiGvWNrHtPUlv/dbs3LaMz0f5GDdbPBgyVpIJe6/7+ZSE3/OYzTNnj0bvb6vYQzGmRzoHDLQwX8McnALTIZ8O/GJQyeiiJdf8SvZc4903nOEChyCRwsRd14ufRzPuGvH/WORLMMSAD2d1nUDC92fEDxU3+XSh/iXCucWR5//3BewAjYMDx9f1uhLMB/kgOfi+Au9RGmHJ7vh+uukuakplrctkEUqZOEWr1De8i+Xn5Vj+Vt4IXnXvLpCHsM3YD2daGD9OCvbPDGpRzW7iD/b939ix2CF6q/UerP3p1x+Vq7lb+EheYXo58+fLwd+4pMIctDA6rDKFCPz9GDYH4xvwDgXkfMUGOS45eabZNy4cVZ2t/JWIVuAENwKDeGH4JZfqXl+vfyLF3p+HGY9WLR8NLArZ9xZahFSxSs1yBHVlwqsq/c/VHmLFi2SfT8+Be/BaoTrrqCfiEA9TKwJQY4sd3xgF7GDU6U6sNDNLfrBZVyFWEGhCrT4PZ1Pql8x/LNmLZE3lvXsdClrYNH6q6YH8wZWrL6iulbrPKl+3cVfjGW09913f/cOjC+b4b1oZOrBtHuIKVJc7AbfmmNx+1tl7NixWifdFUg6prSfWMo08pM2/2L8XoJxTXt+aUR65U9tFDEqsTd6sFB7CcGj5eO5xbfwYveLuBZu6S1/ix+Ce34rVqyQPfbcC8MvfrLSB11EOCzXRcT+YDh1QQ4cYWh33Xm7jMktle0Z+GOpAj1+6Jg2v0rLuwovnJ/Ei+eeSr3Vg/kxmG2QSetlXbv/hfRtbW2V3XffE+Mv30XkWAxjsEbuD6ZhekQSEaJnkOOPd/1ettlmG60rW4GFBBAvLoXw04ZbHaz+Fm7lW7ilb8e7jHNfWCqv91BX0XqwqD7V7CKWamC2fqP6s67Thofun4Vb+RZeqr7t7e0yceJkRBGxzCw+MeIITAOJ3B+Mu5tnMy5Ez9n0f/nLn2TUqFFWVkl5q7BV0DJJim/pQ/lK8F+KtRDPxYvn+ZxmX+HUWz2YH4PZ4iet76T4Vl4oX2n+Xj7lNDVNyHUR3UeX6J/yPRj2BwNWhhN93Ztmufuvf5GRI90yXVZBz9AfyzUgy9/ys3Av1x9D+Bbu6fzR8rf4Fu7puD7HpS8tkzmLki3q6elLPVoPFqWr5hisWh4sWn6eh+6XhVt6e38tvoVbeo/P641NzegVwrgQ5KiD+8oyyMEuIl+BMYpIA2uHuT1wz99k00035cVgsgp4gTzGpWrjW/lWx5D+UXyGce56q0X+9tYqacML+koka2BR/arZRfQezNZnVL+4+qg2vpVvdQzpb/E9P8Yu4Kw0isj5iGz+amxN2B+Mu6jQsPjBZRZRxIcffhAbPgxWXlagZ8gjUwiuSEV+QvQhuGUdwrdwS5+0fOS3DOt13PnmSnni/dbUDY1dxOiL5qh+vdGDRfWzdRuXt/fD0ofglmcI38ItfVL5UX7jG5sRPeRWRuCKYId2ERv1RTPiiAx0oJtIS3z88UdlYIkr+kYFWGVLydsCWZoQf0tv8UNwK8/iW7jNR+XRib2wZLU8g9n376xslyVtnTq9ql17CJaytPwlmOwbNbAoVTU9WKldxKi+ceeh+o7Wbyn0Ft/yt3DL0+JbuM1H+TU0wMAwVSqTgQfjETut6BiMs3y55UMWwQ7OR3zqySdkwIABlldsPqlClklUQQtjPsTf0lv8ENzKtPgWbvNWnoWH8iF5xfhX04MV6iKGymvh5ZSfvCy9ra8QPKk+Fj8qrxEeTN+DwXvVwMi4VPaaF814+tJ7cU3z6f94Wvr1c4utRBlY5syHCmDhcTyi16w8S18uPCqL50n5Wfqk+ll6m0+iTzUNrJAHC+lvy2vzIfpy4eXKs/TR+99AA2OQA2H6Wkygxyk/V5mAN18YkWEMxnmInE0/Y+azajhkFmXAfNICkiZJCskL8SqX3vIP8QvBLb9QPgm/dcHAQuW18CTlt7TMl0tveYb4ReGNDRN084daBDloUjoM4+cqXCqAMT9GEbPwYM/PmtklJ6lBRQV2MSlykjZ/y8+KrrZ+Vh+rr9WvGLyaY7BCXUSrvy2vzRcrH3FD8BA/C6+kfo34AoXG5beU1W/CmponYyI9J0ph0WyMwdpx/s9Zz2nBrHLMhxS0FRLHI8k1Ky/Ev6fxbVlC+ln8UL5YearpwbyBWf17svxWNvPF6qsS+FGe49BF5Ex6zkXk7pa6/iijiNz4nIGuTnQROQabNXOmKkripBUWKqCFRxUsRZ6lt/pZeNr8LT+bt/IrqV81PZgfg1Wz/JRdyfqN42/LG803oYvI8VeGoXq8ZM5twMcvmp2iWFIK/2lgM7oMLMogTmCoQVn6EH4InpRfUnwr39KHbqiFW3rL3+KH4FF+1fRg3sCS6EvdQ/gheLT8pfBLim/lW/pi96uhAVvu6mx6BDo40ZdTpZrhwTiVg+Mw+rEOvLR5Hl3EQskqYAVauqT4Seg5FXA+1stY0NouizFjiRNxQ/pY/knzSctD/IGIJg3rVydD+2ZkcywRxf2wqWcpqZi8ahqY7yKG6ruY/r787Xj/+vaKD2Rh63Lhpu1Mw7FP9PD+g2TL+qFu4izqjMnKK4W/Eqb0U0xeA8ZguqoUjYxRDf7Xyb7qwdyio9giQmbOWuPBbIGsnsUEErdcuJXHXU4em98mz33QJv9eyi/YSmuolk+18gOxi+UuQ/vIpOF9pHlo32D9FNOzmgZWqgcrdP/bsBPJo2/Pln+8/7LMnv9qweW/+9b1k51HjJFJm42VPbfYEWMcPK0iqRB//wCz8Aipntr2bfEt3NJH8dWDQb+ubYzowZqwhSxn+5IRQ/Tt6CK+gChiIQVDAq0CNh9ViLAQP4+/CiPFP7zZIg9gl5Oe2kLI6p52fgu4ti+NHiANMDRf31aGLz+PTNH66g0GZvUN5lGMe9+YKXe88pAsW5Xs49XB2GXz0B32kf22Gt9VX8XqJ6gLEEL0IXhUBt+D1fJrZk6V4vswHrg/mK7Jgeih/kMXcVaRLmKUYdx5EoVKpZ8NT3U5Zq5XemfJOH164tq44f3k6B0GCrdmTlJ/vdHAium/YOVSueDZ22XekrfLqtathoyS/20+VIb1rw/yKaZPkDghAmfT69LZnEWPTSAoW6dKsZvFMRg9WLZztUYRPe+0FUzKjxuO3za3BXqtW11BX3+lHrk384k7b7zWBujF6qs3Glih8s5ZNE9+8czvZEVbOiskb9xvYzlp4pdk+8FbFBIZe71YfcYRJMFvaOT3YBl8qsIgB90YHpjcH6wzw/A8wor8JgzzOp6fMSNOVuw1q4BFinZpLCyU/xuWSaNxrS9pMHY+/9H4QTIY47RSUm8wsFLu/6tL38UG7dfrK6BSylUqTh9sFHnWnt+S0fUj1FuQrpz2VqrcKF60/NpF1PdgtdKpk31hYFy2jV1DaKafqvCl80x0EUnIVK7CUQWS8OMyab/857J1LoihlVbGz9Yb18kPdh3Er85jU7Q+aWDVWpveBzlilYxcXNy2Qk575GpZ1lqZ3Wk4Ljt/ryNlUJ+NIlLXnEbri1dD7Tkp/hpJIg0N+B4Ms6Q4g4PvwXDCMRjC9Jj1SxvjbvVZRBGjYfpyBEaFFzqP478C4feTsVT1qnK+8ygkcB24vu/I/vL1bcJfM/QGDxaqzjOfvFnmfvDvEFpZ8LEjtpczJn+5LB6FiOPap79maZoasVgv1uSoQ/dQcTimdktn870MLYyL3iDIgRfNpSYvjEcm+4QIwePk3PTvFnkQ0cL1NfE92bnNg2VTdBltitZnb/BgUX2oa/T+P/XeK3LJM7faIlQkf9Lkr0rTiG2DvIvpGySOQYjya2hsdEEOGJh7D6ZBDkz2JSFfNONrZnqx52cWftEcIyPVSwtXd8pp0xdDjw93UCNUaY0j+smxY+vzGqyl6c0ejIGzEx++UuYvX2DVrkh+i0GbywV7/VdFeJfK1I3BsH0RP1NhBJHbF/n9wTpyYfrODjdVqlSmaeP97o0W+SvWuFjfE73YRZOH6iyQQnXRmw3shQ/ekJ8+eWMh1Sty/cw9j5SPIKrovUpFhBRh2oguYk1NH/cejEEO3R+sGfuD4SUuu4gMcKCXiPdgzxZhU1nQD2cukXc4CNuQ5HC8G/vYJu7D17jq6M0Gdu3se+X+156MU7ti1w4cs5d8Y+y+FeMfYjweU6W4Pxg/tOTi2bo/GD0Y+80M0bNX1o7Z9NGZHCGmacIXYnugk9E93JBcDYzHC+jjxg4sWB292cCOefBXsqhlUUHdKwHYtH4T+fne/52Itfd2PDJFx5CJGAFZl21jgINjML5s5j/3wSX3gUAEEcbFl83lzORIqlQUfxZm7P6yCpuNR3XoTed8+Xxeo1vdK06v3mpgHMd/8+7z4lSu6DU26hs/dXpFZRRj3oDPVWox0ZfrIq69Pxi7iDoXEWH6BFHEYgKTwh7Esmc3/WtFUrIPLf5GdTVy6eQhBcvXWw2MU6KOf+DignpXEvCrKSfK4L7hVxyV0IFBDt26CC/D3P5gMLa8/cE4KxGDsGpFEe+at1L++PrKSpR9neV51UeH4aVlvPqcjX7FjOpsgv6zfbkJerzxz1k8T37y+HXxSlf46jl7HSXbDipt0dy0VeG6iDXwXlwXMYOBWC03TuRsel2ujeOw3P5gs6oUpv8z3n3diXdgG5KrAUYSf/3RoQWrY8aC1+RnT/+mILySgCsO/L7U1/WPFfH8wtdl6lM3xcIqfXHqPt+VLQcO7xJjx1R2zNWFmMJJI+cicvYGu4gYf2Ew5jwYx18YgOm7Jy4bwO/BKpWKFfjxBW1yzcvpTAatlP49yXcQptf/fMLgvLBztIG8uXyhnPbw5T2pksriwi43fPLUgnKraWBXf+Jk6Y85itVIDQjT6xgstz8YbhwNzO8P5sZgnFU/C8u2VSPNWdouF2BroA3J1cCo+jo5G5N/C6UV7a3y33+/oBC4YteHDhgql2CP5kKpWgbGyb/XwcCqlejB+BLMjcNgXGpg3PxBw/RY+gah+tWcyTFjzbqIVtliHsjiJs0jSi/HPL1IP/1PSvthxC9lTuIJD1/RY7MlfB1PHDlOjmv4nGajHtXDq2VgY/Hl8xmTv9IVavf6FDsmbc/F8NWDcbZvbn8wTnRzSwZE9gfjdKlywvTFFIgrqMW/cM5ymV3hLYHi9OiN107CrPqdB+GGFUk3vvSg/P3VR4tgpA/6btOh+vl+HGfeT87iqMYY7LBdPikHjZ4Yp1aPXOtaOhsBDl13heOxZuwPxnkTfn8wBjqiK/tazaxBxD3BLE2xvOX3ENbb2BCqFxmAb8IunjSEQ+W8ZOvrX/jW6uzHrsnDqWSmDlOBrjjgROnHJzVS3P2vhgdDU5aL9jsWiwvVd+lUSD9VPPdj6zOuPKXiM0zP9Ti4bFsd92jWIIeu7IuKwqtmvz/YC+giVith80g55dnFshirRa3P6WB8rvJZfLZSSjr76d/KKwvmloJaNs6BY/bEdKSPF+VTDQPbfVSjfG/8Z4rqRWBSgwoyjCDoZF++aOYXzXgy1vLI/cF0dxWdi+hm1LOLSEWYrEWHFAzBI/rEnpL+UUQTr39l/X3hzC+bpzYN1o8ubf3bSmN9vbbsfTnz0V9bUOr5/vio8SIEN+r79C/aPnq6i8io5oX7HK1LvYXqK1QpofZbDO4MDLPp4b00RE8P1oi5iKgtrTAGOfiX5HuwkMIheCGFz8OUqbn4qnl9TN/B/MNJmIeYJF35wl/lkTemJyFJjPvNcZ+RA7ZqDNL1tAc7eOx+cuiYPWL1KtS+aIhpJzUwdhHpuXQ2PcP0ugl6/v5gM2esWTIgpIQtgMW3TxSLb+Gefjn6ij+auRRdxfVrZv2ntuovh25VeKpPofrj7gJnP/UbfD38uq/CVI97j54kR+3yibV4Wn2IQAOb9vTNa+FW4kLTFrvIiY0Ha0+L/K0+hdqX1yUpvqfzxyh9Y9cm6FyfHmPUtfYH0w8u2yVqYFEGZBpS2AtO4/gmlu6dhnU5WrDY6PqQJuDTFC7f1t20bPVKOfOJG1IP2++86UfklAmH6uyEUu5/T3mw0UO3lh/tdhiWu3MBl+7UW6h9h+BRmYwiMsBB76VzOThlyu8Ppt+DYRZHNjCbPiQwKTyqIM/tDZwPD/aL2cvlPa6T/SFO9FxfHLXRWuVPWp8rO9rk58/9XubM/1cqtfXxbXeTI3aa4qb+gGMp+vTEGGzyluPl6HGf1sVlfJthgf05j0xWX70Y+bH4EVDsqeUXpef+YOgdYgzGTdDRPcRYzM1FhFFRHbc/WP66iMUYxmqQ8kXKb8MHoTfMXSFPY7a9C72kLKSK7BjQOGzbATJxWPz0nqT1T3zezP975VH5+9zHsSQ1Fu3vRhrYt16+vOP+su+Wu3Y1WrKJNqhCbCvpwRhoOWSHveXT20yKFZ+0vmKZRC4m4deINTnc2vS0JreyFMZguf3BMtgfDE6CGyi8gKlSeqOAVkqFRvRJ/MRIUoC34MVufWOlzMa69Ou6ofE914Fb9pdPbt5P+uCFZFr1Hb1fH6xaDkN7SJ6aNwsPz9J6AP0wgXcKvNbB+Otfy32unG48lpJYjkp4ME6D2gcvkQ/dfo+8ScZJ2g/1D+GH4MXqgLPpuQl6jQT2B5uJhUd9hVqBxQQQlvSGWH5WXhy/ZQiA/GNhm8zAjI/3V3XIsrbOXr3EG9/q1/fJCCfvjsG6hxOH95WdMEMjrsmWUv5onZWCvwrdxunvvSrTsdHCWwjpL8UuJi1tLXqv6vFidjD+thk0UiZv/hFpGLFN11iLciz/qOy4c96vWQv+XVaQgy+NB0KnQf0GyuhBW2Djh49I8ybb4eUt+l8mWf3i2kuUxOJHYTy39CH8KH1T40TdH4z7NLuZHODXiBfN7FXojwY5ygvThxQKFSAEjxYoWiHcZ5ovqa18y8/Sp5238skfOxZ1JauPxQ/BuxjlTkL4Fu7p+dUxGwH/pZlYHvTopbW9LZat1Seu/H0whtGFO8HBwi3TUvh5HpY27XxDA2ZycAN0LnbDaVKsX7eqFJcL0EUDuvYHo1JxKe0C+cJ7eZZ/nA5Jrln+ltbKKxff8rPybN7KS0pv+dm85W/hVl65+JaflWfzVl5SesvP5i1/C7fyysFvwOYP3F3FrcmBpwwNLH9/MITDsZruDHxwScFMVqBVyCocwk8Kt/xt3uoT4m/pQ/gheNr8rDzL3+Y3lD9/jGjrz9aPrb8Qfgge5dcID5bBVCl630zu7/8DAAD//7CLb/AAADLaSURBVO19CYBcRbX26Vkyk31PCGETBWRJMpMAEokKgoi+J9tDf/xZBEFRUERlecpTCBDwiQLK4o5IEBQQAQUDCDGEkEBCiGEXWUKELJNlsiez9fu+U12TO2dud/Wd7p6eJF5I1606a9WtM6fqVN26qfoJ49PptpSk02lJt7ZJS7pVnv/7Asl2ES+VcvhxOB7GlJfFTwq3MgrlF6K38mze0lt40vpZfpbe8g/hFwq38mze8rdwq7/FTwq3/AvlF6K38mze0kfhdfUTpLKiQioqWVolAhNI1dUfnBZpk3RbG37xX0ub/P3v86N0Oe9tg1lkq5DFLzbcyrfyLNzKt/BQPil/i2/lFwq3+lp+Fm7lW3gon5S/xbfyC4VbfS0/C7fyLTyUj/IfV1cvFRVVkqKRVYCSBlY//kD6LmmDgcF5SVu6Wf6+YIF6qRBzwkMKRhWI45eU3uIn5W/xk/KzdbD0Fm7lWXhSeouflL/FT8qvUP0LpU+qbwg/BLf62nyUfpx6sJRUpirVyGhhqfH1MLBUKwysAv9apRVWtvC559oNLMrAMmfePjCLY+ktflK45R/ilxS/UH5WXtL6FSrfyrP6hPiH4CF+Fm71CfEPwS3/YuMXwm9c3XiprIT3goGl4cFSGBum6usPSnNoiDGitLXCl8GTLcAQkYJ4JW2gpA1QSIXgbqVpRaM0LV8tzQ2N0ral2YrPL1+RkiEfO0hxQ/qE4MoEY4KmFWtUrxakqV7VUjNyiPQaMVgq+tW2/1Eibl78lKn7sfgRkN6GnlfrllVop1XSuqkBz3qLJe8R+YqqPlJRM9T96zWwg06F1t+2TwfmyFj+Fj8XfFzdgYIRolRIJeZiHB9WcA52ELoDDSwN7+XmYM8vfE4Ni8JzMcwHTpxcV1L+rRs2S+P0+bJm+rOycf7zkt5ShE5SVS1jnvilqpmkQUng9ZemFlk1Y4Gs/Rv0enqBtG3aFFvt6p1HSb9J42XgkQdKv/3f005PPrySyo8VEi1Mt8iWhmdk89LZSOdLumlDFNrj7yt6D5Ka4ROk906TpNew8Z3ap9AK+OfX1faP0teNq5dUJY0LhsVAIL1Y/fgJLopII2ttRRSxTRYiisgHnc8VFUD8UAexPC2+hXv+ggjnst89Jitvu1/a1q+3aIXlcxhYiDHNouG+mdLwi3ultXF1CL0DvPeY/WTU+f9P+u67R9b29vVnGnfZ9ovib1oyXda9OlXaNq6MI93myqoGjJb++5wBg3OjDVYgV/3zgdtGsPws3Oaj7T2urg5Oq6rdwGBezsBgWohuuCEivdjCBcUbIlqFQvmowsRlhTe9ulgWXXyDtDQsD5F3DQ4DO2DGL5Q2Tr4vI4K/Z7r57WXy1oU/lubF/+qa3AzVwE9+VHa5+GRJVWFyzL98qDNTXv6eab5X25YV0jh/ijQ3vpkvyTaFVzNinAwcdxHaq29Q76TtGcLPBdcgB+ZfFZUwLDy/FIeInIPhKWJ4iIEijCvd1oIoYv5BjlANrUIWP9SBVv91nrw75ecY2jRZ0uLlExiYF7pm9ovyznduwlBwoy8qKK3dbx/Z4wdflaqB/Trwse1n28vCm1a/LKthXOkt6zrw2d4ylX2Hy+AJl0pVv13b/wixjqH2sXDbLrY9Q/hR+rr68QjPV8OD4Y8h52CYi6Xqxo+HZeGvJoaIDHBglIh1sGejdDnvC1EojnGU38qHZsu7V/40Dq24ZREDy4fxmlnPy+L/vk69fj74+eJwfrbXrZdKRV8XCCFdkgfc3PiKrHr6f6BXS74it2m8VHVvGfrBa6Wyz6j2ekT7DwuTtF87kwQ3UXljsA5WpetgNC1MwGBkmIMhyAHvlUaInmkL0uhOjqQKRgXGVTAE93Vb/+KbsuicqyTd0sXIoGeUTxqZg1l0W//Nby2V18+aLOksQQxLnzTfu36MvPeGb3Asmhepb89000ppePL87d5z2Uap6jcSRnY9hot9FGSfl8X37cU0nyvEL8rDeTCugWEtLLPSrEGONvVg8GH4y5dGqD7XTo6QgkkUiioXvW/buEVePfFiaV3TGC0u3X2eHizd0iqvnnSJtCxZWjpdwHnIqcfLzl86VmXY9s7Wvqtmf327nXOFGrtmpwNlUD08dzdc9nlERY4bi3WwKnou+C9dBMsEOTD1ckNEGBf3Iv79ufkYSwIRV7YHGmWc5D6Xgl7ekpv/KCt/e38StoXhRgzM6het/7I7/yoNN95emKw8qFO9esled31feg0f1Ak7Tr/NS/8ma567vhPujlQw+JAp0mvw/hpc8M+M9ff3TPO54trXl4Xo6cHc+hfnYcRuD3Jg/oU5WAsDHZiE0cDIlJdn7vNJFVYmCX6aV66Vf5x4QWmDGlafiIFZkK8/veorx1+AJYLuCR70P+rDsvuln7fqdM5jnavhibO3m1B85wrmV1I9+L0y5JAfBpH988y3PyfBH1c3Ac4Ly8wMcMBBYT8H5mDYTd+KbVIwdd1N3wYP9tz8ee0eLKhxACGJgmS15Fd/lpW33BPgWmRwDgPzklb88QlZ+oNbfLb0aWWV7DftJqlEwMP/UaNQf+//Im9Z/pQ0Pvv90uuzDUgYcugPpXrAe8umaV09dnLAtlJ4dvBdmSCH38nBCCLD9FjQfRYGVlWFPR+47AO12ic1oBD9P06bLFv++YZFK20+YmDZ6vP6edfJxnnZX+MphYKjvnuODP34wTlZr1n4Q9n8zsycODsKsO/7TpB+e53WobrZnqf/A9UBGZlC8MdioblS518wMIbquRZWz82+OkCkcWE9DIY2f94z7QZmFShlnsPDV485r5Qi4nlHDCwOgXscXz7qnO6JaEYU6HfYRNljytmRks63yx87eZvb/tS5FsUpqRqwiww99MZ2IykO1/y51GOIyMlXFRaY1ZUhwTrYBF1o5lpYK0L0DHI8+8zT0gsT7e6+1sx5SRZ/swzDnYCBbXztX/LG6d0TpYq2efVuu8o+d14RLepw39a0WhoeO6ND2Q6dQcceefS9HZogqUfqQJwww930VdiLmMZODuyp12EiDOxARDZS+J8herddau7cOSUzsFwVXvnnp2TJ1T9PWK0ioAcMTBeWLwpPoIugSQcWFf37Yx52Q4eyaKZ57WuyataF0aId/n74kbdJRfWAsrSDXwergKFXYHiY5qZfvnDJGKLuRcTrHzSyp5+ZLTU1NV1SMpcBhRgu/fWDsuKXd4fQig8PGNgKbOZdes2vii83xBEP6YAZkOtivp2wtyyfgwDH9zqV78gFQyddK1X99yxLE4zjVikaF4IclSlYFV+85BCR62DcLMX5F0P1c2fPktra2m5XctnUh6Xhp3d2u9yQp1iOXfzLb5ja7XpR4H6P/kwq+sT/sduyYp40zr2yLHr1VKHDPvRjqey3W1nUY5i+kht9EehADNG92Vw/gUNEbvbFVikYWhs82Jw5s6R3797druSqh5+Rdy+/udvlVu+Ouc4d2ec6PdXAWta/KStnfr3b26snCxzxsTvat011t57OwLCLAxFE7qTnWpi+cAmz0nA8z+XgsQGzn5olffq4vV3dqeS6+f+QRV+9qjtFqqw+48fKntz/l+XqqQbW1rxOGv56ahatd8DiymoZeVQZphiZpq7ThWYEODA0hPvCkQG6VYoeDGtgMDIkuul31pMzpV+/jq9N5Pu47LqZnZPl4sO3lV/+xLn64mcuvGLDhpxynIzKsvePsnqqgVG3hhln7vC7ONgOvKqH7C1DPpAsCl1If3VSt/4yisidHJyHcT2MjkvfB4OF8V7nYG3YejPrySdhYOGX2bayLt7d6+f+QDYteKF4DPPgtOctV0iffXbNitmTDWzdyz+VjW9Ny6r7jgTov+9p0mePE8pWZY0ipnBsG/ZoVKZhYFwH45EBsDN9F0xfWcFi88wnZ0h/hIjLcTXcPV2WXf+bbhNdNWyY7HPfNbo4mU1oOQ1s30d+2r5divrZEUHTqoWy+unvZlN9hyofdtjPpLL3yJx1LqbHsoJ0oRl7pSqwFsbnxB31mSgiboDdimBHW1uzzHziCRkwwK0llFIhqyDzbZub5NXjL5TWtWviwEUvG3n+52T4pw/Pypf1b/j94z0yiuiV3pFfVfFt4F9ZKXZ/TcKvrr4OcQ1uk0Jwg+F6WJV74ZLrX1hoRnwDL1ym5ckZj8vAgR2Py/IVSZqGFIyDL78bHfr625KKSoxftdNO8v67EFTJss7kGZbTg+UK03v9mlY/L6vnfMdnd7wUnXnYh2/Em807l7XuYzMHj1ZgjMhNv+lKejBs9sU+Dk7BsMiMg0fx0uXfpk+XwYMH56VsnIH4srwYxCHByF/jpt8334qDFqcMLnyX731DBh56QAd+dghGYE83MOrYuOB7smXJHN7ucFffPT8l/fY5M696+77JNO6Ke/5xeL4syq9ez0V062BcCeNLKm6ICFkqEGtgXA9zBtb5ZT/PtJhpVEHy9RXkQaKvf+6ykg0Vh37+RBl15n/mVZWeZGDZ2iuFI89Xzv6mtKxdnFedthekmuH7y8AJV+iQrNx1qmuPIsK84MLwN9xFERlCbOP8C/+14uMPM/72mAwa5AzMd3imcVfWB54FP45HtrL1z78hi772v8U5XDQipN/hh8oeV34hUrL1Nq4+3fUm81Yttt7lM0T02K2bG2TVnAtx0lWjL9qu06r+o/QlS38eR1xl456nLys2Pg6Q0jkYjYt7EWlhGCJiHQxXGp6L74NhEiaPT39MhgwZovK9Mkx5FWpwSfltwE72xRdcLy0rVqj8Qn+GnHys7HzO8Xmzob7lDHKEooi2Ijwae838K7b78zlqho+VQfXfwvy5446jpP3Ltp/NJ+FXN47rYNzJkQly0MDqcWwbvv6gQ0Ru9OXrKtMf+6sMHTrUytJ8EoGxDExhPvxa1qyXxZNvkQ1PzzfU+WcrBwyUkd84RQbjyGr/R4LU/j6bhyZOTxoiUp/ghUjwWqyPbVo8HX85Obveji4s4Pbd85jMi5Xxo6pctc2nv3WV3n38gQYGDtzoy4RBDjwFXQfjEJHfB3v00WkyYsSIWDlJFUyKb4VG6bmVavmNd8vmf/zTomXNp2pqZchJn5SRpx0tFbWd33GL8ieTOIMrp4GFPFgu/Vs3LJb1r94im5c9l7V9th1ASmpHf1D67X06PgoxTJ8Tdc9V/3zqlpQ+F77bTc/5F3fUoy9pmF4/X8T1L77RjNkYJsuPPvIoDGx4Pvp1wsmlQCdkFCTFJ4/Nby7BByCelfUzF0jTkmXurHo/hMWLopWIgPYeu7cMOAwfWThkfzUsyuEVZ0AKyPFTTgNLMgeLqwLrzaO0tyx7CoY2R1o3vIM8zvbv6Z6N60i1A3DGxh74Ms1EnEd/iFSYL63E1deWdaV/WR755sciyMEDb7hNSo/N1iEi52D4PhgPvuFODkYRH5k2TXYa6VbErYJWWKjDWnqLnxQeKx/nFTavXofheE37qbjky8vKs/T5yO9JczCrv61fqD6OHkbX1IgjEDYH/8BZfiH5Fm7p89FXKmulssYtE1l6yz8ffp6HpWXew5jyCvFTpMhPFN9/gE83+3KY6D2YvnCJv2j++2DTHn5IdsIibD5XSMF8eOTCSco/hG/hVna0wTysnB4sNET0OvrU1s/Wx8I9nU8tvi/Pllp+Semz8fXlSfmH8C3cy/FpUv2j/OrqDsI+xDQiiPiEETwwV5t1DsYAPUxZo4h8H+yRaQ/JyIwHswKjDKlUCO4V96nF9+U+DfH3eD5Niu/psqVx/Modpk/17qXtHKdznL6+LA4/VOZpmfKyzysp3Mqz/Cw8xL9QfEtv8yH5ueB1OJtevw/GAIcGOtB++DI6WpJRRBgZdnLw+2DT/pLdg4UayCocyluFLX5InqW3+CG4lWfxCacH644Tfa0uzHMOVoiB2frY9rEyLb6Fh+gtfihfqDxLb/ULwa1+Ft/CLf8ovK4eBqZ7ERneYKhew/TcTQ8b40Izj21D7i8P/klGjx4dpc16H1IoK2EGkEvhOForz9InhVsZlh/h5Rwi2iBH0vrZ+lj6fOpvcaL5EL8obty91S8OJ1pm5Vn6pPAob95bfhZu81F5bg7mPh/LxWa+rwIPdmCa59RHvw/24J//LLvs4gwsysAyZz6pQnE8omVWnuVfKDwqi/f58CtnkMN6sHz09W3G+vl7pnFXUn6WR4i/xQ/lk+pj5YforfwQvoVb+qh8DhH5fTA9dJTzL8G7YXHfB3vooT/JzvhWFa8oA+atwBCcNEmuEL9C4VaXfPiVcw4WCnIU+jzyqb+Xwbbz90x5hegVKcFPiF+hcKtKofyi9GMxRKxKVeuLllhudscGuJN90XAI0bPNePjogxgi7pIZIiZt0KhAW5m4fLH5h/jF6ZCrjPzK6cFyGRhD7S3r3uqgfpL6p6r7ISI+FOtL2d+cCPELwTsoF5MJ0YfglmVSfEtv8yF+UXg9XlfRrxJl1sLw5yfzRrP5PpjzYPHv1oQMKCrQKtuVvJUX4l8K/J4U5IjWf/PSGbJ2wfVdadaONAh5VQ/cHQu6H5CaER/EZ1l3U0/VEcnlbPtanKh+FtaVvJUX4t/d+L5O1KsOr6tU4t1C7uRI6clSMDA9OptReoTq9Wx6LDT/6U8PyG67ujMqQhXyAnwaqqCFezqfWnmlxvdyfWrlUZ9yejA7B/N6MqWBrXnuumhRUe57YSNt//efCUPbvdOQMCQgrv18GWn9PdO4qyc+f69znL6+jHrjEF98QhYReUQSK7V+9GD6EXTGEbnRF8FEhOoffOB+2RXnosddoQawcMvDK+sb2OKH4En5JcW38klfziiiHSJG61M0DxZl2n6fwgEyR8HQvgirwMa6zFXq52Xb38rzevi02PiWn5fjU6uPxyecUcT274NxsRlWFft9sD89cJ/smvFgnrFPPUOmvKxAj+fTQvE9H59aeUn5ez5J0nIPEaMn+0brX1oDcy1UhaPQ+HnWimp3CFLS9i4U3z6naP0JS8rf8kuazyavFY5pwoSDMQeD18JeRAwSt+7k4AuXPBTRfx/s3vvulT3f8x6VbStkFcomkHS8CoVbeTaflL+lt/WL41fOISI9WNTAovp3h4FRXlW/ETIYX49MVXU+KzOuvXwZaf09U175tLenUYLAj8fNl79lV6g+Xn5LS4tMOOhgnYP5MzlQeQ4RcTY9pPJVFc7B+GbzvX+4S/bcc0/VxTPIVgGrcAg/BC81v67wL2eY3s7Boh2iuwyMbdZr2H4y+KArYSDoNOg41CPu8jCmvKL6Mh+CEyd6hfBD8CivuPsQfQjueW7evFkmHjJJQ/NVfCGM9ac341YpNBfC9DikAyH6ZuzkuOf3d8ree+/taROl+SqUjWmh9JZvMfiVc4hYvjmYbUnBi46fkr57f74zIFJSaHsXSh9RRW+Lzc/y9/n1GzbIpEkfwqsqPHUU9oVBIoeJiCLy6OyO3we7447bZb/99o1V0DP0qf0L5cuzpUkrXGz8rvD7twfLPE3MLYZ9+OYOh3vuCM/f1zGuT3vYmjVr5CMfOVxD9JUM09ODYflDPyHLGCJfwHMvXabltqm3ypgxY+L4dSqzHdYieAWYluKy8kshr9werNxzsOhzq9l5ogwce1F7kW3/dkDmphTPIyrDyi+1vKhs3nv5jY2NctjhR2BUCKPCuRyV2H+Y5j3O04ZOcGUwMv99sNtu+aXUY9sHr0IV9gowjeMXgitR5Kcc+D0pyBGtP+dgpVgHizR37O2wj/4auz/yO9Yvqi+Z2f4UglsFehq+12/58gY56uNHY4gIo9I3mjkFw2sr/MIlao0I4tbvg/3kJzfKxIkTlTZphbzAfNNS8w/pEZJPeDmHiD0himjbcMCYs3E+xtG2uEv5UPt3iWkCopD8ENyLWrTobTnmuON1DlaJXRyI12ugAx6Mh95gkAgj0yEiAh3XXHONHHnkEZ42ZxpSIATPyTwGWCi/rtD3pCFiVP9yeTDu9Bg0YbI+nag+LCjUQ8U88g5FIXkdkGMyhdJblp7fy6+8LJ/97KkwMNoVdtHr98Fwr1FEejAG6vXF5laZfNllcuwxx1he3ZL3CjPlZR9YUiWKwa/cBlbZt1bbwda9O8P0UdkVtQNl2GG3RouKdl+M5xVVptj8oryj9/PmPStnfeGLupODh45yLYyOK4XztDEFUyeGdy6x2Iyz6S+68CI5+eTPKn2hHTyqBO+LXeHu4NeT5mDR9iyXgTE6NuLjf4iqkvd9dzwvLyNvpSKInpYpr3z7/xMzZ8rXzjvfzb/gvSrTDHagv3OhuQ3M0jy2ja+sYKH53HPPkbPOOjMiNvttVxXKzrEwSCn0KbcH60lRRP90fKCjFO3tZXQl7W59vLxp0x6Wb3/rEsy9OP2C94J9Yp2Z62CIImJoSHvl98HS8GCnn3E6rPG8rtQvSOMVYsor378QQcZdRMhHnxUPPCnLvv+rLkoogAxttP8MyOWTirmaVsyVxnlXxUBKXzTso7d26ZzCfNq79NpvlVAsfe75w70yZcoValzcj4iH5haauZuendx9HyylRnbiCcfJd74Da4y5iqVQDOvYou6WF6fE2jkv4Xz8a+JAJS3jcd/7/uVH7X+EKCz6B6ll3RuyatY3S6pDLHMMEUcefa+CovrE4hZY2BOef7QK2fT55S23yI9vuAlBDu7hQJCD62AcIuqZHFgDgxPDXkQEOvCN5omHTJSbb74pynebuc/WAOwIXb02vf6uvPG5+D84XeWZD12vPXaTvW6fnBW1rWmNrHj89KzwUgEqeg+SYR/5danYF8S3FM8/H4WmXHWV/OHue130EJMvBjrSfOlSh4iZjz/oyVJYD9ttt93lfuyo//flWiDd3CovH/0VfEZpc7c2Sf+jPiy7ffeMnDJXzDij2z9X1GvEOBk0/rKceu1owHPO+YrMnj0HUURGEHl0NloAP7pVCr4LIXq4NKbwYlXV1TL3mdk7WhvlrO9bF90sG56amxOn2MBdrv66DPzQ2Jxs1710o2x6+7GcOMUG9h/zJek9+uPFZrtN8zvuuP+SRYvfgk3x0FEaGS0MNjaOx7bhhoPENg6jOEzEv8cefzTrJ4yUcgf7WfWXp2XJlJ92W61T+IjFvtNuklQvrqdkv5pXPier516eHaHokJS4CGJxvuFddPXKxPDgD0yUlqZmDBER3OAeRP6nHsx/H4yK4X2wFi45w8Cm/uZWGTcu91/PMtWlLGLTTS3y6qf/W1pXruwW+YNO/ISMPv8zecla9dRX8OnYd/LCLRSpdvShMmDMBYWy2a7oV6JPHHHEx+C5KhDkoAeDo4Ino9uCB+NH0DE41CAAvReHi61y9dVXySc+0Xm/mY0a2Ulld7dcd+qz8s9PydLv/aLkVazo3Uf2vvcaqezfJyiL9W9e+SzC9VOCuAUjoPMM+dDNUtV7RKa/cJqB3gMdmJbj8rKZ8iq1PnHyFi5cKKeedro7UUrnX9zwSyPD/3ouIkOKVFC3SrXwK7Jyxumnyflf+1rJ2yxOYV9WcuFdEPDPM66QLa+90QXK/EmGf+UUGXHSEfkTALPx2UulqWFhIpqkyH3eexy+LPm5pGQ58f2z1v4HzFIbSE5lugi8+557ZMqVU+C0qjA85EvNjM9jxZkejAbG74O1MWjPczl0iCgyZv/95Pbbb+uiyNKRFfuBJOXX1NAob5w+WVrXlOZD4/xA++5XnJW1AbPpK60bZdXsr+MDew1ZaQsB9Bo2RgYdOBksyuOpvO7Z6t9VD1oMfhdfdLE88shfcWYJ3wPjHwmcJ0UPBkflPJhqz61SsDlEE9sQqmc7znpypvTpEx6m+MpvC2kxGnT9i2/K21/9nqSbmopa5dp99pI9f3JRMLCRTSg/GbtqzsWSbt6UDaVL5VX9R8kQHHpjPzjeJWZlJirG87dVOPyII2T1qjXYxYH5VyX8FfYh8lzENIMc+rpKipaFYwPg0hjgwKcPGUyUn9x0oxx66Ac78AspGIJ3YBaTSUqfFD9GZKIiL2/Dq2/L4ot+XLSgR99JB8tuk89S4/LDJCrm77P9hfb6MOXVtmmprJk/WVrWL9N8oT887GZg3SX46+z+0Fp5Vr8QPKRPUvqk+CH5IbiVt2jRIjn22OOx/kXvBa+EQAejiHRQ3ETvXldBjmtgKe6mp2fjmlir25N4/vmlnYdZhe0DC1W4nPAWfLZ20Xd+LpsXvNBlNVJV1TLktGNk5Bn/oTyKUv/WTbLm+Wtly9J5XdaLc4i+7/kPHHJzBnigt5To2pafP5vk7rvvkSumXIWPPiCwUcV24i4OthhtCmn9eHdsG3OsLL2Y7qyHC9t3//3lzt9OJZ+8r1CDheAhQSH6ENzyT4pv6ZlfO/tFWXbTXdL01ttx4Pgy/LXrf8Qk2emc46V6+CD1VPGIHUtD+kbhzY0vyYZ//Brfr369I5NArmanA6UfDKuyT/z3CXKRR+UTz/7BCMFz8SYsRB+CW/5J8S39hZh/PfrIo/oeGP8ocRdHBV//oq3xlRW3F9END1GCCuAlMRhXM4yNq9Ez/jZdBgzo76KMoLENZgVua/lQA4fg0fquf/4NWTt9vqyf9Zw0L8UQDae9Rq9UTY3UvP99MuAj42Xg4eOlFwyrO67mta/LlmWzEGWci6HjEgxROuolldVSNWAPqR15CD4AcahU1I5oN/gk9e+OuhRbRqh+ueCEHXHkkbKK8y/YCrdJ4U0wtB3sSIOINDAsNGtO52EwMX5pRYeKLXoQKXfVn3jiie31yiWQSEnh7YwzN9aAk/Kz9JZ/iJ/Ft/kQfRTOIWRzwxqdV9WMHKIn9EbhljfzVn+LnxRuZZBfumWdtG5qgCx8pKD3cA1ekG8+V6H6WHorM2n9LD9Lb/knxc9FP+fpp+Xss7+MaRcXmNF+3MWRxs6bCjgp2BHfDcuE6cEGRgWfpcbFLVOMJCLWIWPH7idTp04tmwdL2iBJ8W0D2nyx+Vn+oXxS+Unxiy0/xC8pPGl9kuKH9MnF79vfvkQefOgvbljITb40Mo4N9X/8cKSoczD4M7chsRWBDk7O3H5Ehuxb8AImP2e0x+67h3RRuFXIEtm/MBbfwi29zSelD+GH4Fa+zVt6C7f1s/gWbultPil9CD8Et/Jt3tJbuK2fxbdwS2/zSelD+CG4l79x40Y9B3EL3rCo4sIyvBeHhzxMSsPzGs2Agen3wWBUHDeizAU5aIKIIvJzRnzD+TOf+Yz8zyXfVt5WAS/Qp0kbyNP51PIP8SsU38v1aVJ5ns6nIXqPly0ttD4h+Za/1aPU9FaezVv9kuqTFN/Kz5f+1t/cJtf98Dp8GYPDw8wGX87D1D25QIeeN6rfB0MhwxytjN9jeJiC59JTpnDPuH01VqgfefRhGTw4+6dGvaK2gXy5T20FLH4I7vn4NIRv4Z6uVKmtj5Vj9bH4IXih/Cx9sfO2PpZ/qH4heKH8LH1X8vxU0ceP/qSsaFiu81iaDY2MVoTxohoZ7ytgU/p9sLY2F/mgB8MYUceOPGGKh+DwKDd+t/mLX/yCfPUr53bSxzaobaBOBKagUHrDrlPW8rcIVl+Lb+GWPil+sektP5u3+lm4rZ/Ft3BLnxS/2PSWn81b/Szc1s/iWzjp77v/fhypcakLbnBoyPA8o4c6B4PdIJ/Zu8EwPQ4ehVGleKoUXJzaF37gxLjijDkYQ/ct0qu6Rt9yHo2Po3slrLLMexhTXlbBpHBlkuMnKX/LKqk+Vl6x+Vl9LH+bt/pYegu39CH8ELzY/Kw8y9/mbf0svYVb+hC+hW/atEn+85jj4L0a4LU450LMgl6LtkPm+ElhX28KFkYLQBSRC81Eop0pCgwLBkZL45yMXgzrYgzdT/rwJLnphhvajcYqq/whyCvFvL9n2hW4EkV+CuUXoo+Iir219BbJPlCLnxRu+RfKL0Rv5dm8pbfwpPWz/Cy95R/CLxRu5dn81Vf/r9xx5x0wLhxswzA8PBg/FkvLoSdD7B05DgLxH43OfR8MwMzIsRWGxY3AsAw1NC5JcmcHDa0Vhnb99T/EsdpHquEA1G5sbJi4q9AKJ6W3OiR9YCH6kD6WPoRfbLiV/+/6d/yDb9vHtr+FR9vvlVdekc+cdJKaBj+yp2dvwMDcghfdFO0I0YyMs6KPQhQRRwbw+2AVLkTvUDDvIjK8llsT46Iz4x2tstPwkQjb3y+9e/dWXZIoqATmJym9xY82gGEdq5/FT8rPyrD0Fm7lWXhSeouflL/FT8qvUP0LpU+qbwg/BPf6Eu//n3KKvLDwRd3Yy7Pn9WgAOBadetG01Mfgh4YFQh7oqwvNbtGZcy3aIuOJiH5oijIME/VkUkQT+Q1nBjw+d9qpcsEF7jw++8C8Qj4NVSAp3PP1qZVv+Xk8n4bwQ3DPx6cW35f71Opj8ZPCPV+fhvh5PJ+G8ENwz8enFt+X+zRp/Sw/S+/5+rTY+Nn43fX7u+TyK6/SOZd+IhZWxSMCKjjfgnPSgSFdFv6nFXGw2MZgB78PhsGiRkB0VAjCSs7BiIYClrUy5WkdDHhguEgj5MuY/EhfoQ2QrULkG3dZfItj9bH4Fm7pQ/gheHfzs/Js/XqavsXWrzvqv2zZcjn+hONlHT4Tq4ENGo4OEemneI9E+ystg8ENFtBOkOf3wTBK1WLuSaQRMsZIH6YZGhfK8NKzGlpbW7N6tSFDB8sdd/xWdt5553YjA2X7PRsynyvUAULwfGREcSy/KIz3STuA5WfpLX+bD9GH4JZfKG/5WXyrv8VPCrf8bb7U/EPyLNzWj1FDDg3feO11GBKOBMD8imfP88wNxi040qOd+NAGMhgqugii3rvvgzljoD06o8ISGQyEY0s4LTU/Lj63IM+1Me4S50bx975vT7njt1P1rWc2VFcuWyHLwz4AC7f0Fj8ED/GzcJu38iw8lLf6WfwQf0tv8UNwK8/iW7jNW3kWHsqH5IX4W3qLH4Jb/aL4vP/Sl8+VWU89he1QcENV2ByNlMcCpPV4bJgLNvamMUysSGHjLo/dAIQ7ONSJ0TH5KKKzOVikujBaFewT/xgR4Z5Emo9bfHYvZfIzR7Q+HrP9s5/9RKOJVtmu5EMNZHmG8EPwUvOz/EP5cusbkh+Ch+oXgiflH8IPwa0+UfwrLr9Cfn/33ejbbjuUO1AUNsJdG7ATfYOZ+3jxH5BoWxkHhQQWxv1Q7vtgmbAihRGZY0gOG9X1wYiY47qYvsrC+CICHi0a/YCxIXR/4n+dIJMnX0by4BBLkXL8RP+CEC1aYeaLDSfP6BWSF8XlfQjfwi29zRe7fla+5W/lFxvf8rPybN7qZ+mLDbfyvbzf3DZVrvnBNWooVVhQptvi6z0cIsJfwR7gpGhTcELqfJgHM+YRlscbK65AF5o1nEhJMBpaHu3PhTmcsdHQOET0Buo+1AefB0Pjay3Mn/fV8/BuzBc6GQDZJrl8BZnysg0a4lUoveUf4heCW36hfKH8CqW3+oX4heCWXyhfKL9C6anfww8/IhfiI5T0UvxSJUPy9FbqyTSigX4JmMYs0E3dvZuRMXrh7Id/fGFP7vtgABJRfRXDi0TBxbElxqFtGGfiB+VMyRDGxVv+YDLGbzvD1uSzJ3HXvfsKCSuqLEDvK828v+8qXJlGfkL8Iqh6a/Et3OaLbeBWvuUfglv9CsW3/Gze6mfhNh/Sp1B4UnkhfAu/9dbfyA+uxQlauGhclTQonBTFTxLBGJwD0hGfGyZyIAiDwC8NEKM7vspMW0KZuioGOVIwgjSNCED1YTQKYnFYyP9wy/kYEGBUgOFfG/KtCN1jCz6Ycc8i1gJQPunQiXLdtdcW7bi30APRloj8JMWPkOZ1a/lboqQd0tLbvJUX4p8U38oL5S1/ix/Sz+KH8lZeiH9SfC+fTuLyK66Uu+75g2584lvKFbqRF5aAezU09H+aBQ2HgQ06ngpG3pFvpfNRq6HnYbADTohHuPHjDzpNowtUY4SJwXhoWP6isWlkBAgcTlZy6xRx1dDozThMBAUMGKaG6OJeOPLtJoTwR3kW7altgHZA5qbQBiw1f6tv0nyp9Ss1/6T1tfil1q8r/NevXy/nf/2bMmf2bBgTDIjnG+KGG3l1Ey8L+Q8XN/ZWsq/jnnaB3k/rcDnaDbwbPRKNjnGL1DicyeEMKOOl1GsRH6XA5XCR9BVqoTQqxw43yLgRJ6OMtDgdKsKvcW42ZOgQuenGG3QxGhzyvmwDhQwub8YZxKT8k+In1cfil1peUv5J8W19kuZLLc/y/9e//iVfPudcef31N9RLcb7ljIuhd3R+3WtIrwXHAyNjt/cXLYEbemkfalI0vMzwUQuB6M7kICIJ1fc5A+LRU7QbjSdyrkULRp4TOsXgcBJGR7uD/6LrAr4bJrbCw8HapBLrBp8/43T50tlnS21treqV1GBsg1j6ENw3RrHSpPKS4ls9Q/QhuOVXaD6pvKT4Vr8QfQhu+fk8+9Hvfvd7+dGPfiwbNqzX/s1hIY1Ih4Ta3Rnc0PGdlrf3f9oAh4jo/IwWus29IMAcjLM1GkrGL3GIOAFG6LJqY/yhCalR8V5NTAnoDn3euUZkUaTrYwTRi9GKQeuO4OZ9q4zaeTSCH9+Sww47DHkIhzymvPy90wHsDFyRCvhJyr/Y+CF+IXgBVVfSpPyLjR/iF4KXov4vvPCCXDb5cnnlpZfhcfwaF/uim2upkXH4xl6P8za4NhyxEFoH/Qk8HH50ROesITM61JGf0gITW6XGo0+TETJ0PMTihTLvxVwBceCVOGMDikYaceOw3S+Ni0bm9i1CDXoylNGj0egOP/yjcsm3vxU7N3Mykv+W4wF5mcm1LT6F14Upr3L/gSp+DXNzTFL/tWvXybXXXSf34FvKnB9p6B39HWalXot7B3HrbAH3XPNil/bG4vo/PuyAQgTVkQWQ7a4ejWZHQ3R24qdS7d8HU05KBERaLwyMcXyYlJvUgU5fwlSB9GNgh7IKRExa4Brdy5rAh+VRAa5iO08GVhoEgZ4wstqaWjnzrM/LySefogeaUv1SXkkeQDH06G55IZ27W5/ulpdP/ZvwkY4//vE+uQExgdUrV7Pzom9zjgVqhuJ5A0OBM4N56I8aCj0Xt+y6DVDOqaidgCza/1v9q17kB6OgiZBWDY5bpWh0tFQaCWP5NCrGR4hPASxLqckSDzjqCwlzNDqx4/BQGTljoxAGPShEz7rnsJGWj5Rh/traPvLpT58gp556mowe7TYMg6TTVe4HVmz5Sfklxe/UgAUWFFt+Un5J8aPVXbt2rdx55+/k9t/egdN3V6Ifw3hw8YAaZJxBcQjoLI09Xfu2Ww92nkTvO/R/0CI8T1vRgSFSXR9j31YOtAJaTsbQ6utgYCBgXB/mk/FezsCI5C61RWQ5qaORspzKIi5PdrROMlR03AOHb0a74SLJuGLmytXIdBgJnqAjl0MmHiyf+tSxctTHPoYXOV0wBMXb5FVIh9gmK2yULnf9+Ud95swn5f4HHpDHH58uzc1N2sfaYEQMWOj8iv0a0UE97hrdkp8c0s277KPskLAFmg/7tLsi/R+dHFi4Mv2fPOE0MJnj/7QCGkhmtAffxbPpM+QAEAFM1TVutWO6Q1qnylNjAipw3XIaooneRVIIrJ181MmBlS5MM9JChTlUJC/KgVJuiua8Gol61/aWCePHy0EHHyQH498BBxyAz3JSytar1A+w1Py31qRrd6XWr9T8u1brrVRx+r322mvyzDNz5Zm58/DvaWlcvUbnV+qiQMq5lduoywx6OIxCnRbL4SzoGGhK7p/LsJ8Cyq6MNKb/oxx2CUNyfZ7fBNNYBmwBhcpfZ2Tj6vCFS1iDLi5TAjs/jYGEvIfXStM04a349iaNEYVQSgeEik8K/Z/DRLpeZUNM/Ad0FUwTw30FflxYHxlyRZ7qq8PL4HOuRoY1CO3X14+Tgw48SOrqxsmuu+wio0aN6mR0yujfP9t9C3DEs3z5cnnnnXflxZdelLkwqnnPzlODYo/WF4TVeFx/VGNid9WFY3YpbnhC70YHpY9S49KOq6aghsafrP0fVNTB9381QOaVB37Zl9H/+R8NQxea9Y3mjEnovkMgkEC3Tymyi+3TALiKTU/EbVNEY0BDrZt4FKRRF9LjolxcFEaTYt4HT2g/2L2IIhRSKcLwH4+Oo2npPI8ejvSabtWHqvJcEM7bRo/eRdOhw4ZJX3yJs2/fPtii1Vf69eurW7V436tXL6nipz35gTT8q+I7PZl76qfDVIzJteFYsJ1fcR7AlxW76tE25X1LC96K13cJ+T4hpg3I89+GDRuFR1FzPYrperw5vBFljY2N8u4778hi/FsCo3pn6RJp4pBP+x/7let/DLVzxJT5UcNhv2Mn1XMzOGdix6ERan/kPXoXUdCHHS7JnYMgIGn/V+PW/p/xe9SH/BnkoIukgtrRca8A5CHb6cwCXvRaRFZYxupxD3VhfDQUKgY4rZFIOih1NJyt0TMRF2EQ7dA8moB7uIjtDc3lUAIY5ftQKB+Q83RevpqfilHjxw/5tMtXpsB1Zupk4Jcl7jdTZ9JRDvBZrjw07xpbH5zS4EcxACQuCTLtojyVgYO5+hNfIfh1fB29/42RD0VUF5DxAetogGJwucS1eU+X7yJo1Dqf+rMtWV/i8z7SWjQQbWby4eXqrxgkAJwydBIB4yGU3TtTrBBdw9JhHKnQ/wB0M//MEI/9VrmAF26oCxBVn7z7P0mhT8f+Dz7URb8PBsbsruz99BisFI/RpixC+AYMt/ZSOm1G33UBUL0ZmbOQ1qmdDLiMRJJYh5b864FbZ4ZInQdkSjoaDskoRauqeUIdFReq+YH2FDcWQ75WGj+uQsDqJJ904KbkNGetGVLeUwKNnI0MoSxjgksT0BCi+oAxWTjNIvUnDpg7ucBFng9WGWj9wR31J7+to3iH46T6UmoA3O1SPtsf9cPzZZ15mVojz3L3TNjSisW2xV2H9tc2dX1K8YHDDbZsciKy/d2AD1nisq/ijza9lQYr6BSA5OUrjRJTAz5XZeN6CTJqhGDT5f6fsRX2P63/uPH1aAsqDK7Uj/eabJ1zUQleCtY7NglNgimhDuI6P4wGldK3oTOE3MelRsiKou6uU3ojQIGzBuWT5gAZ/DRYkrnXvFdPZRHFPSJ2dnfn804+Xb9WBXgogZFCGTY65ZOcD0H1I2NXf20C3xZ8MJm2oHwiu1q6WrPM3wGIC3nwczSkBb7yJ2Wm/qwa9OogH/q5jgNuVMUpjaJtUz47v/557FB/tA0bI9L+rKxrH9abDcc2xKXtjzTS/s5wHIKiogMxR29HE+alXpN5xgm0/0EP15X1+Wu7atfyRo9nQn3wbHQJil5FH7AjSiNY4WMOTkIG7KRBKujxG+3/qhvWhZ18p9//AQKhMZlQ9r8ZAAAAAElFTkSuQmCC;" vertex="1" parent="1">
          <mxGeometry x="740.8" y="330" width="71.32" height="70" as="geometry" />
        </mxCell>
      </root>
    </mxGraphModel>
  </diagram>
</mxfile>
